<?xml version="1.0" encoding="UTF-8" standalone="no"?>
<!-- Created with Inkscape (http://www.inkscape.org/) -->

<svg
   xmlns:dc="http://purl.org/dc/elements/1.1/"
   xmlns:cc="http://creativecommons.org/ns#"
   xmlns:rdf="http://www.w3.org/1999/02/22-rdf-syntax-ns#"
   xmlns:svg="http://www.w3.org/2000/svg"
   xmlns="http://www.w3.org/2000/svg"
   xmlns:sodipodi="http://sodipodi.sourceforge.net/DTD/sodipodi-0.dtd"
   xmlns:inkscape="http://www.inkscape.org/namespaces/inkscape"
   width="453.08258"
   height="1023.626"
   id="svg4829"
   version="1.1"
   inkscape:version="0.48.0 r9654"
   sodipodi:docname="LOGO6.svg">
  <sodipodi:namedview
     id="base"
     pagecolor="#ffffff"
     bordercolor="#666666"
     borderopacity="1.0"
     inkscape:pageopacity="0.0"
     inkscape:pageshadow="2"
     inkscape:zoom="0.35"
     inkscape:cx="356.3067"
     inkscape:cy="486.79497"
     inkscape:document-units="px"
     inkscape:current-layer="layer1"
     showgrid="false"
     inkscape:window-width="1366"
     inkscape:window-height="706"
     inkscape:window-x="-8"
     inkscape:window-y="-8"
     inkscape:window-maximized="1"
     fit-margin-top="0"
     fit-margin-left="0"
     fit-margin-right="0"
     fit-margin-bottom="0" />
  <defs
     id="defs4831">
    <filter
       id="filter6222"
       height="1.3"
       width="1.3"
       y="-0.15000001"
       x="-0.15000001"
       inkscape:menu-tooltip="Van Gogh painting effect for bitmaps"
       inkscape:menu="Distort"
       inkscape:label="Pixel smear"
       color-interpolation-filters="sRGB">
      <feTurbulence
         id="feTurbulence6224"
         type="fractalNoise"
         numOctaves="3"
         baseFrequency="0.25 0.4"
         seed="5" />
      <feColorMatrix
         id="feColorMatrix6226"
         result="result5"
         values="1 0 0 0 0 0 1 0 0 0 0 0 1 0 0 0 0 0 1 0 " />
      <feComposite
         id="feComposite6228"
         in2="result5"
         in="SourceGraphic"
         operator="in" />
      <feMorphology
         id="feMorphology6230"
         operator="dilate"
         radius="1.5"
         result="result3" />
      <feTurbulence
         id="feTurbulence6232"
         numOctaves="5"
         baseFrequency="0.03"
         type="fractalNoise"
         seed="7" />
      <feGaussianBlur
         id="feGaussianBlur6234"
         stdDeviation="0.5"
         result="result91" />
      <feDisplacementMap
         id="feDisplacementMap6236"
         in2="result91"
         in="result3"
         xChannelSelector="R"
         yChannelSelector="G"
         scale="27"
         result="result4" />
      <feComposite
         id="feComposite6238"
         in2="result4"
         in="result4"
         k3="0.8"
         k1="1.3"
         result="result2"
         operator="arithmetic"
         k2="0"
         k4="0" />
      <feBlend
         id="feBlend6240"
         in2="result2"
         mode="screen"
         in="result2" />
    </filter>
    <filter
       id="filter6287"
       height="1.3"
       width="1.3"
       y="-0.15000001"
       x="-0.15000001"
       inkscape:menu-tooltip="Van Gogh painting effect for bitmaps"
       inkscape:menu="Distort"
       inkscape:label="Pixel smear"
       color-interpolation-filters="sRGB">
      <feTurbulence
         id="feTurbulence6289"
         type="fractalNoise"
         numOctaves="3"
         baseFrequency="0.25 0.4"
         seed="5" />
      <feColorMatrix
         id="feColorMatrix6291"
         result="result5"
         values="1 0 0 0 0 0 1 0 0 0 0 0 1 0 0 0 0 0 1 0 " />
      <feComposite
         id="feComposite6293"
         in2="result5"
         in="SourceGraphic"
         operator="in" />
      <feMorphology
         id="feMorphology6295"
         operator="dilate"
         radius="1.5"
         result="result3" />
      <feTurbulence
         id="feTurbulence6297"
         numOctaves="5"
         baseFrequency="0.03"
         type="fractalNoise"
         seed="7" />
      <feGaussianBlur
         id="feGaussianBlur6299"
         stdDeviation="0.5"
         result="result91" />
      <feDisplacementMap
         id="feDisplacementMap6301"
         in2="result91"
         in="result3"
         xChannelSelector="R"
         yChannelSelector="G"
         scale="27"
         result="result4" />
      <feComposite
         id="feComposite6303"
         in2="result4"
         in="result4"
         k3="0.8"
         k1="1.3"
         result="result2"
         operator="arithmetic"
         k2="0"
         k4="0" />
      <feBlend
         id="feBlend6305"
         in2="result2"
         mode="screen"
         in="result2" />
    </filter>
    <path
       style="fill:none;stroke:#000000;stroke-width:0.74862629px;stroke-linecap:butt;stroke-linejoin:miter;stroke-opacity:1"
       d="m 1538.3824,56.432772 c 152.7803,81.347638 298.0553,88.946078 433.078,-4.196797"
       id="path4392"
       inkscape:connector-curvature="0"
       sodipodi:nodetypes="cc" />
    <filter
       id="filter4401"
       height="1.3"
       width="1.3"
       y="-0.15000001"
       x="-0.15000001"
       inkscape:menu-tooltip="Van Gogh painting effect for bitmaps"
       inkscape:menu="Distort"
       inkscape:label="Pixel smear"
       color-interpolation-filters="sRGB">
      <feTurbulence
         id="feTurbulence4403"
         type="fractalNoise"
         numOctaves="9"
         baseFrequency="0.005333333333333334"
         seed="929" />
      <feColorMatrix
         id="feColorMatrix4405"
         result="result5"
         values="1 0 0 0 0 0 1 0 0 0 0 0 1 0 0 0 0 0 1 0 " />
      <feComposite
         id="feComposite4407"
         in2="result5"
         in="SourceGraphic"
         operator="in" />
      <feMorphology
         id="feMorphology4409"
         operator="dilate"
         radius="1.5"
         result="result3" />
      <feTurbulence
         id="feTurbulence4411"
         numOctaves="5"
         baseFrequency="0.03"
         type="fractalNoise"
         seed="7" />
      <feGaussianBlur
         id="feGaussianBlur4413"
         stdDeviation="0.5"
         result="result91" />
      <feDisplacementMap
         id="feDisplacementMap4415"
         in2="result91"
         in="result3"
         xChannelSelector="R"
         yChannelSelector="G"
         scale="27"
         result="result4" />
      <feComposite
         k4="0"
         k2="0"
         id="feComposite4417"
         in2="result4"
         in="result4"
         k3="0.8"
         k1="1.3"
         result="result2"
         operator="arithmetic" />
      <feBlend
         id="feBlend4419"
         in2="result2"
         mode="screen"
         in="result2"
         result="result92" />
      <feBlend
         blend="normal"
         id="feBlend6703"
         in2="result92"
         result="result93"
         mode="normal" />
      <feBlend
         blend="normal"
         id="feBlend6705"
         in2="result93"
         result="result94"
         mode="normal" />
      <feBlend
         blend="normal"
         id="feBlend6707"
         in2="result94"
         mode="normal" />
    </filter>
    <filter
       id="filter6681"
       inkscape:label="Ripple"
       inkscape:menu="Distort"
       inkscape:menu-tooltip="Horizontal rippling of edges"
       color-interpolation-filters="sRGB">
      <feTurbulence
         id="feTurbulence6683"
         numOctaves="1"
         baseFrequency="0 0.024888888888888891" />
      <feColorMatrix
         id="feColorMatrix6685"
         values="2 0 0 0 0 0 0 0 0 0 0 0 0 0 0 0 0 0 0.5 0.5"
         result="result91" />
      <feDisplacementMap
         id="feDisplacementMap6687"
         in2="result91"
         yChannelSelector="A"
         xChannelSelector="R"
         scale="14.3"
         in="SourceGraphic" />
    </filter>
    <filter
       id="filter6689"
       inkscape:label="Ripple"
       inkscape:menu="Distort"
       inkscape:menu-tooltip="Horizontal rippling of edges"
       color-interpolation-filters="sRGB">
      <feTurbulence
         id="feTurbulence6691"
         numOctaves="1"
         baseFrequency="0.002 0.107" />
      <feColorMatrix
         id="feColorMatrix6693"
         values="2 0 0 0 0 0 0 0 0 0 0 0 0 0 0 0 0 0 0.5 0.5"
         result="result91" />
      <feDisplacementMap
         id="feDisplacementMap6695"
         in2="result91"
         yChannelSelector="A"
         xChannelSelector="R"
         scale="14.3"
         in="SourceGraphic" />
    </filter>
    <filter
       id="filter6709"
       inkscape:label="filter6"
       color-interpolation-filters="sRGB" />
  </defs>
  <metadata
     id="metadata4834">
    <rdf:RDF>
      <cc:Work
         rdf:about="">
        <dc:format>image/svg+xml</dc:format>
        <dc:type
           rdf:resource="http://purl.org/dc/dcmitype/StillImage" />
      </cc:Work>
    </rdf:RDF>
  </metadata>
  <g
     id="layer1"
     inkscape:groupmode="layer"
     inkscape:label="Layer 1"
     transform="translate(-120.13356,-16.263454)">
    <g
       id="g3073">
      <path
         style="fill:#dd65ae;fill-opacity:1;fill-rule:evenodd;stroke:none"
         d="m 266.43668,182.52991 c 9.37026,-8.67327 35.38458,-25.38024 5.18427,-16.4739 -20.22857,4.8592 -27.89769,3.76061 -8.11099,-3.5603 7.47986,-3.59471 15.09657,-6.92739 22.63586,-10.36419 -7.81346,-3.11263 -17.40472,-1.7759 -25.37615,-4.23172 7.52986,-2.98878 15.23012,-5.62799 22.77286,-8.59789 -13.59202,-6.58643 -29.12282,-9.77163 -42.34799,-16.48929 14.60753,1.74722 29.19439,3.62265 43.8124,5.09709 -16.12105,-10.0472 -30.9987,-20.79006 -6.28856,-13.0425 24.26333,7.97312 -0.44906,-9.74727 -9.37969,-18.035645 -11.72798,-12.685638 24.8461,10.118055 32.80061,11.188035 -16.03555,-16.978774 -33.26389,-32.84093 -49.56881,-49.574768 13.30768,4.528445 53.31562,41.893188 49.52958,28.045433 -8.24635,-13.782429 -16.49913,-27.484436 -24.64231,-41.288517 14.25895,13.366002 26.20913,30.169361 40.33871,44.055302 -1.82886,-9.156268 -7.06853,-17.701034 -9.06764,-26.840517 5.82198,6.309076 9.93415,14.565004 15.79597,20.522951 0.25904,-6.558144 -1.23067,-26.462077 3.56129,-11.33416 2.46643,8.314369 6.73672,12.591154 5.50291,0.751998 0.20543,-4.619394 -0.74973,-20.846513 1.67029,-16.158781 1.82841,17.408872 7.19176,27.218927 10.22119,5.677599 3.64425,-13.16103 6.95773,-26.449574 10.93139,-39.477864 0.61796,19.521779 -1.49405,39.120717 -1.18859,58.636686 11.27877,-20.847366 10.17852,-13.422976 8.07205,1.349545 14.12643,-18.565992 7.67451,-2.394649 8.44699,2.56882 10.81744,-12.472834 53.04041,-66.351637 23.67247,-21.65273 -8.31267,13.240764 -26.13246,38.916843 -3.47923,21.402434 20.87467,-12.53189 -26.93909,27.780659 0.0794,14.320726 14.67296,-4.91491 -20.21091,21.027403 7.27726,9.149873 5.90973,-0.38021 52.61246,-14.381457 30.89957,-4.79418 -13.14866,6.30393 -29.26387,11.65076 -40.314,18.87124 6.0153,1.0477 16.76087,0.783 19.84765,2.80424 -22.37173,2.9156 -15.58605,9.75353 1.95583,14.8667 9.38418,4.19386 -11.27817,0.5731 -15.79342,0.96347 -22.33594,-2.3174 19.05225,12.994 23.31505,17.36018 21.85784,10.39391 25.92194,15.20564 1.80371,5.83883 -11.71945,-3.74001 -23.28586,-8.07571 -35.11281,-11.41016 7.17155,9.69288 49.11511,39.94996 37.10503,35.60993 -9.79236,-4.40372 -45.00998,-31.95346 -43.6158,-24.04518 14.31465,18.20137 28.98611,36.1475 43.08199,54.51248 -18.47368,-15.56211 -35.56545,-33.74663 -54.13796,-49.44478 4.64118,16.40182 12.11609,32.10702 17.41251,48.34432 -10.34009,-12.6824 -19.73295,-26.268 -29.44071,-39.48258 0.98166,22.37736 6.20277,45.72215 8.52905,68.47747 -7.95362,-18.34978 -12.01293,-41.47491 -20.25089,-57.84739 -1.57805,6.24814 -1.75144,18.15916 -4.64746,20.83167 -1.21331,-26.30376 -36.22999,-7.23397 -41.58825,-31.99619 -10.48158,-8.08066 -21.63039,5.13236 -32.73562,6.01644 l 0.7906,-1.12984 0.0404,0.01 z"
         id="path3001"
         inkscape:connector-curvature="0" />
      <path
         sodipodi:nodetypes="csscsscssssssccssscssssscscccsssscsccccssscscsssssscscscssssssccsssscscccscccsscssscssscscssscscsccsssscssscccsscscsccccccccccccscsssc"
         style="fill:#000000;fill-opacity:1;fill-rule:evenodd;stroke:none"
         d="m 355.76981,1035.7598 c 7.28969,-9.5525 8.86265,-33.2114 2.91219,-43.80561 -5.29477,-9.42703 -10.6159,-30.2329 -10.01471,-39.15895 0.29213,-4.33727 -0.87804,-8.57099 -3.02449,-10.94279 -2.81891,-3.11475 -3.50095,-7.99916 -3.50095,-25.06863 0,-17.62482 0.89511,-23.67186 5.3075,-35.85659 5.19295,-14.34001 5.63257,-27.01198 1.14756,-33.07829 -0.87849,-1.18816 -2.83462,-6.08507 -4.3471,-10.88202 -2.38617,-7.56824 -2.29917,-10.11734 0.65839,-19.27479 1.87453,-5.80421 3.40826,-12.46981 3.40826,-14.81244 0,-2.34263 2.02277,-8.43784 4.49504,-13.54487 5.5878,-11.54272 7.04068,-27.51608 3.93743,-43.28917 -1.524,-7.74655 -1.69365,-13.81829 -0.47302,-16.93405 5.45065,-13.91351 7.47656,-25.08524 7.47147,-41.20148 l 0,-17.82021 6.18031,-1.8143 c 5.88323,-1.72715 6.9712,-0.97573 22.64589,15.64102 9.05611,9.60042 13.58259,15.45319 10.05873,13.00615 -3.52386,-2.44707 -6.99711,-3.85912 -7.71838,-3.13787 -2.78357,2.7837 -1.09082,13.35414 3.96378,24.75056 4.41852,9.96247 5.06343,13.73404 3.97202,23.23089 -1.57402,13.69597 2.72412,28.17609 11.75553,39.60319 6.98782,8.8416 10.10949,9.49889 15.85002,3.33725 4.9447,-5.30753 7.86572,-24.9199 4.8869,-32.8117 l -2.06365,-5.46735 8.46241,4.83958 c 4.65436,2.66176 11.32864,4.85072 14.83154,4.86435 3.79727,0.015 8.78374,2.10148 12.34922,5.16781 3.68363,3.16783 8.51213,5.14399 12.57264,5.14553 13.28132,0.004 27.36867,-9.4568 27.36867,-18.38198 0,-2.92471 2.3155,-9.66731 5.14549,-14.98351 7.34823,-13.80356 6.6033,-21.41537 -4.56167,-46.60905 -19.24586,-43.4286 -28.28925,-52.63996 -71.95955,-73.2955 -15.22713,-7.2023 -17.14164,-8.76989 -20.06746,-16.43107 -1.779,-4.65806 -3.23442,-10.97165 -3.23442,-14.0302 l 0,-5.56101 6.6891,4.07846 c 3.67914,2.24316 8.17208,4.08195 9.98447,4.08617 1.81254,0.004 7.77408,2.38907 13.24823,5.29964 9.01598,4.79388 12.58012,5.35763 37.86883,5.98956 17.52107,0.43784 30.98178,1.80713 36.14898,3.67724 13.13339,4.75328 26.54888,6.0987 32.72978,3.28249 3.18112,-1.44943 5.06523,-3.6576 4.4621,-5.22947 -0.57424,-1.49639 -0.14674,-2.72071 0.94961,-2.72071 3.51533,0 10.17059,-8.04172 9.05701,-10.94372 -0.5919,-1.54234 0.25964,-3.91288 1.89235,-5.26788 1.63271,-1.35501 2.49294,-4.28198 1.91182,-6.5044 -0.58412,-2.23392 -0.0285,-4.04074 1.2416,-4.04074 4.28511,0 2.32538,-5.40203 -5.1121,-14.09096 -7.67361,-8.96492 -16.54614,-14.72398 -22.68392,-14.72398 -1.9482,0 -5.1985,-1.49905 -7.22306,-3.33125 -8.09751,-7.32814 -18.81508,3.89157 -18.41948,19.28238 0.0659,2.54703 -0.69492,4.63097 -1.68975,4.63097 -2.26354,0 -26.01283,-17.38436 -27.88287,-20.41022 -0.75811,-1.22655 -3.27515,-2.23009 -5.59349,-2.23009 -3.24206,0 -3.85163,-0.83157 -2.64088,-3.60187 0.86592,-1.98102 1.79877,-8.07478 2.07308,-13.54164 0.32493,-6.475 1.91556,-11.49713 4.56332,-14.40748 6.87687,-7.55891 8.6954,-12.97228 8.6954,-25.88491 0,-16.82146 -6.95368,-32.06764 -20.96302,-45.96182 -6.00751,-5.95812 -12.46003,-14.21238 -14.33891,-18.34276 -1.87887,-4.13041 -8.34502,-12.46616 -14.3693,-18.52389 -10.05035,-10.10628 -10.95699,-11.80207 -10.99951,-20.57449 -0.0315,-6.52705 1.1844,-10.92047 3.83276,-13.84697 3.40901,-3.76688 3.76059,-6.75115 2.90036,-24.61737 -1.62597,-33.76464 -11.43719,-47.66879 -34.83071,-49.36093 -9.19402,-0.66503 -13.9162,0.14045 -21.03999,3.58899 -10.88227,5.26802 -14.66891,12.04687 -18.04259,32.30001 -2.9056,17.44315 -3.11194,24.79856 -0.90829,32.38876 1.62073,5.58198 1.47818,5.75884 -2.79765,3.47051 -2.47796,-1.32614 -6.17236,-5.15242 -8.20981,-8.50285 -2.03759,-3.35044 -7.15043,-8.66099 -11.36217,-11.80125 -7.00924,-5.22626 -7.7064,-6.65944 -8.23706,-16.9318 -0.81456,-15.773 -4.85965,-27.47225 -12.64211,-36.56435 l -6.6903,-7.81613 8.43246,-15.32315 8.43247,-15.32316 0.31878,-25.72763 c 0.4516,-36.45109 5.0275,-55.57167 13.299,-55.57167 7.61057,0 14.45555,-4.845 17.91143,-12.67785 1.91795,-4.34734 4.37944,-7.90426 5.46966,-7.90426 3.51727,0 15.7494,-10.40734 15.7494,-13.39982 0,-1.5946 -2.25485,-5.02069 -5.01087,-7.61355 -2.99844,-2.82097 -5.27156,-7.57956 -5.66013,-11.84884 -0.59624,-6.55323 -1.86165,-7.77687 -15.52869,-15.017219 -11.24104,-5.955163 -15.77591,-7.402844 -18.54571,-5.920469 -2.01647,1.079184 -6.07384,1.50196 -9.01613,0.939481 -4.24678,-0.811817 -5.59619,-0.08071 -6.54461,3.545885 -0.80647,3.084102 -2.23763,4.168302 -4.40474,3.336722 -4.88959,-1.876299 -8.87658,0.45037 -10.26732,5.99164 -0.68968,2.74812 -2.59311,4.9966 -4.22971,4.9966 -4.40654,0 -6.30219,5.04969 -10.23797,27.27128 -1.95478,11.03716 -4.26879,20.06756 -5.14234,20.06756 -0.8734,0 -2.14555,4.06703 -2.82699,9.03786 -0.8189,5.97482 -5.71568,16.42062 -14.44851,30.82166 -7.26528,11.98109 -13.76048,24.81711 -14.43384,28.52448 -0.6732,3.70736 -0.21921,12.76094 1.00892,20.11903 1.22812,7.3581 2.09598,15.46232 1.92873,18.00935 -0.49787,7.57851 -0.45804,21.5618 0.0869,30.3586 0.28015,4.52807 -0.67561,12.86382 -2.12399,18.52388 -1.44839,5.66008 -3.09277,18.90959 -3.65413,29.44333 -1.07584,20.18449 0.74912,28.47095 8.07984,36.68998 3.68123,4.12725 3.71956,4.84987 0.64626,12.20528 -11.04669,26.43838 -12.70964,82.58163 -3.1055,104.84213 1.52789,3.54115 4.21144,10.29598 12.26552,30.87316 5.56759,14.22475 6.65736,22.23707 5.3635,39.43405 -2.50611,33.31086 -5.26273,85.66795 -6.59282,125.22278 l -1.31512,39.106 6.4922,13.37836 c 3.57058,7.3581 8.2715,16.62005 10.4464,20.58211 5.35526,9.75633 5.10865,15.03193 -1.16793,24.97458 -11.23041,17.7902 -13.56927,32.18148 -8.15426,50.17433 1.64543,5.46725 2.55238,10.65121 2.01543,11.51991 -1.03317,1.67165 9.53481,28.12283 18.82361,47.11485 12.05695,24.65168 19.52018,44.23783 19.53725,51.27219 0.0509,20.84988 3.65008,65.7108 5.55441,69.2269 6.68626,12.3453 25.54206,21.6161 30.56851,15.0295 l -1.5e-4,0 z m 60.6381,-470.73066 c 1.44764,-0.48257 4.90906,-3.29142 7.69218,-6.24189 l 5.05984,-5.36448 -2.67142,5.14552 c -1.46935,2.83005 -4.3769,6.35579 -6.46136,7.83499 -2.08431,1.47922 -3.91586,4.2578 -4.07009,6.17463 -0.15408,1.91686 -0.70795,1.19994 -1.23082,-1.59309 -0.566,-3.02362 0.1138,-5.43328 1.68167,-5.95568 z m 15.01586,-19.74631 c 1.86719,-2.8496 5.92905,-6.71606 9.02631,-8.59214 3.09726,-1.87606 8.17837,-5.15837 11.2915,-7.29401 3.11299,-2.13565 5.65998,-2.99628 5.65998,-1.91256 0,2.59871 -10.12417,10.50207 -13.45323,10.50207 -1.43386,0 -5.24521,3.09761 -8.46974,6.88354 -6.70198,7.86883 -9.09999,8.11314 -4.05482,0.4131 z"
         id="path3506"
         inkscape:connector-curvature="0" />
      <path
         style="fill:#b3026e;fill-opacity:1;fill-rule:evenodd;stroke:none"
         d="m 466.06821,515.40655 c 0.73028,0.0759 0.71045,3.06889 -0.15432,3.9736 -1.48811,2.47386 -2.27184,5.27457 -3.20203,7.9858 -0.9931,3.73199 -5.25243,5.53911 -5.63249,9.52894 -0.75853,4.2499 4.37211,3.17262 5.9797,5.47817 -1.43447,3.3316 -6.55222,2.88462 -9.45178,4.78376 -2.85804,2.64012 2.54635,1.96842 4.08934,1.62031 3.01257,1.41374 -1.91205,4.29165 -3.24061,5.51675 -1.96311,2.95532 -5.90624,2.33876 -8.71879,3.81929 -2.51346,1.28429 -2.15398,4.51143 -1.89036,6.86701 0.20261,2.39539 1.82458,4.30684 3.04772,6.13402 -0.4276,0.85858 4.0912,3.05319 5.28528,5.13097 3.94949,6.58136 11.61524,9.71711 18.98073,10.41625 6.2582,-0.37882 12.96602,1.8525 18.90356,-0.88731 3.63899,0.0123 7.2788,0.0152 10.91778,0 3.87674,-0.72589 8.493,1.38583 11.72792,-0.96447 2.97996,-5.57715 -4.07002,-6.62427 -7.98579,-6.90559 -5.38388,-0.75012 -10.53333,-2.59319 -15.85585,-3.70356 -0.13708,-1.78736 6.49507,-0.42648 9.02742,0.15432 5.48571,0.18387 11.01425,0.76938 16.51169,0.27005 5.4782,1.03949 4.77175,-5.26025 7.7929,-7.32995 4.95151,0.68092 10.51951,-0.63066 13.77259,-4.66803 4.06003,-4.17568 1.54905,-9.76456 1.00305,-14.65991 -0.27314,-1.85775 0.58143,-3.0825 1.65888,-3.58782 0.71762,-0.33655 3.13031,-2.80213 3.78072,-2.50761 0.43434,0.19668 -0.8235,2.98471 -0.61726,3.47208 0.26031,0.61515 0.27325,1.4546 -0.11568,2.5462 -1.97062,3.47798 1.84561,5.1877 3.89645,3.70355 1.22352,-1.44225 1.45055,-3.79006 3.20204,-5.05381 0.30263,0.12528 0.15742,2.14386 0.27005,2.66193 0.36806,1.69317 0.058,4.90894 1.11878,5.90255 3.67347,4.2239 10.49668,4.03434 13.61828,8.95026 -3.12942,2.94117 -6.70945,-3.0663 -9.83757,-4.12793 -5.41694,-4.13415 -13.06519,1.13603 -10.99493,7.67717 2.21835,4.79517 9.14199,5.08127 13.7726,6.94416 3.73131,0.4813 3.02267,3.51506 -0.38579,3.24061 -4.98721,-0.9277 -11.0323,0.19275 -13.88833,-5.16954 -3.47741,-6.60968 -11.87556,-0.34733 -7.0599,4.97665 4.40976,3.49357 10.51035,4.49729 14.96853,8.10153 4.14199,1.64648 1.46883,4.61474 -1.8132,3.54924 -6.03213,-0.26891 -9.1787,-6.33814 -14.58275,-7.98579 -6.42096,1.42216 -0.19732,9.25784 0.42437,13.23249 -1.65385,2.26695 -4.19623,-1.4381 -5.09239,-2.73908 -1.03098,-5.0297 -6.95912,-11.24644 -12.11371,-7.2528 l 0,6.13401 c -5.93131,-0.032 -11.85351,0.0442 -17.78479,0 -5.05133,0.55467 -10.11324,1.35433 -15.31574,1.62031 -1.71374,1.24978 -3.8541,0.55919 -5.82539,0.73299 -5.51288,0.86245 -11.10646,2.03643 -16.70458,1.04163 -4.46598,-0.0246 -9.34882,-0.9157 -12.46073,-4.06416 -0.74019,-0.74889 -2.43011,-1.6255 -2.94047,-2.64854 -1.88427,-0.49488 -2.80941,-3.12998 -6.35719,-4.05076 -3.6775,0.34649 -7.44575,-0.0799 -10.8792,-1.54315 -3.1359,-1.5883 -6.9046,-2.5672 -9.25889,-5.2467 -1.7176,-3.30165 -1.9605,-7.41377 -0.88731,-10.95635 1.97405,-4.79132 9.013,-3.98909 10.95636,-8.83453 0.70768,-4.3325 4.31056,-7.33878 5.63249,-11.41929 2.72038,-1.90224 2.04001,-5.55259 2.8934,-8.5259 -0.83858,-4.12709 4.3796,-4.91538 7.02132,-2.62335 3.0308,0.94143 5.65846,-1.37122 8.10154,-2.77767 2.83789,-1.27372 6.23362,-2.26346 7.21421,-5.67107 0.60399,-3.46532 2.75524,-6.23535 4.51371,-9.18173 0.41128,-0.80915 0.72105,-1.10552 0.96447,-1.0802 z"
         id="path4291"
         inkscape:connector-curvature="0"
         sodipodi:nodetypes="cccccccccccccccccccccccssscccscccccccccccccccccccsccccccccccccc" />
      <path
         style="fill:#000000;fill-opacity:1;fill-rule:evenodd;stroke:none"
         d="m 410.58383,361.14132 c 0.002,-0.24763 0.0719,-0.87151 0.15767,-1.38639 l 0.15482,-0.93616 -1.55709,-0.18071 -1.55709,-0.18073 -0.17399,-1.39156 -0.17384,-1.39158 -8.05738,0 -8.05753,0 -0.0809,0.70751 c -0.0644,0.55571 -0.23329,0.72499 -0.78895,0.78892 -0.67501,0.0777 -0.7075,0.14555 -0.7075,1.47934 l 0,1.39794 1.54362,0 c 1.45242,0 1.54376,-0.0361 1.54376,-0.60954 0,-0.50447 0.16621,-0.637 0.96474,-0.76899 1.25912,-0.20814 6.05528,-0.20638 8.74736,0.003 1.98174,0.15427 2.12249,0.2037 2.12249,0.74504 0,0.51721 0.16666,0.59913 1.54377,0.75896 1.4084,0.16346 1.54361,0.23325 1.54361,0.79708 0,0.57748 0.0928,0.61793 1.415,0.61793 1.17512,0 1.41559,-0.0764 1.41784,-0.45023 z"
         id="path3508"
         inkscape:connector-curvature="0" />
      <path
         style="fill:#000000;fill-opacity:1;fill-rule:evenodd;stroke:none"
         d="m 412.1246,353.35871 c 0,-0.68607 -0.0854,-0.77183 -0.77188,-0.77183 -0.68609,0 -0.77174,-0.0858 -0.77174,-0.77183 0,-0.68607 -0.0854,-0.77183 -0.77188,-0.77183 -0.64176,0 -0.77188,-0.10331 -0.77188,-0.61355 0,-0.55074 -0.14525,-0.63164 -1.415,-0.79033 -1.25043,-0.15625 -1.41499,-0.24512 -1.41499,-0.76434 l 0,-0.58754 -5.72436,-0.12293 c -7.23534,-0.15541 -7.91124,-0.0955 -7.91124,0.70037 0,0.53148 -0.15677,0.61723 -1.41499,0.77445 -1.2702,0.15869 -1.41515,0.23959 -1.41515,0.79033 0,0.51021 -0.13027,0.61356 -0.77173,0.61356 -0.68609,0 -0.77188,0.0858 -0.77188,0.77182 0,0.77184 0,0.77184 1.54361,0.77184 1.44914,0 1.54377,-0.0371 1.54377,-0.60507 0,-0.57297 0.1123,-0.61382 2.12249,-0.77028 1.16733,-0.0909 4.52483,-0.16592 7.46098,-0.16677 l 5.3385,-0.002 0,0.77183 c 0,0.77183 0,0.77183 1.54362,0.77183 1.54376,0 1.54376,0 1.54376,0.77183 0,0.76403 0.015,0.77183 1.41499,0.77183 1.40077,0 1.415,-0.007 1.415,-0.77183 z"
         id="path3510"
         inkscape:connector-curvature="0" />
      <path
         style="fill:#000000;fill-opacity:1;fill-rule:evenodd;stroke:none"
         d="m 379.19327,353.35871 0,-5.14552 -0.77188,0 c -0.68608,0 -0.77188,-0.0858 -0.77188,-0.77184 0,-0.65176 -0.10032,-0.77182 -0.64311,-0.77182 -0.60808,0 -0.64326,0.0771 -0.64326,1.41501 0,1.31615 0.0419,1.41502 0.60822,1.41502 0.52856,0 0.62963,0.15638 0.77188,1.19366 0.0898,0.65651 0.16366,2.68256 0.16366,4.50233 l 0,3.30869 0.64311,0 0.64326,0 0,-5.14553 z"
         id="path3512"
         inkscape:connector-curvature="0" />
      <path
         style="fill:#000000;fill-opacity:1;fill-rule:evenodd;stroke:none"
         d="m 422.67297,357.98967 c 0,-2.27307 0.015,-2.31548 0.61795,-2.31548 0.56375,0 0.63353,-0.13521 0.79704,-1.54365 0.16037,-1.38139 0.24062,-1.54366 0.76395,-1.54366 0.50969,0 0.60732,-0.17004 0.76035,-1.32398 0.1951,-1.47055 0,-1.84945 -0.91578,-1.7208 -0.44576,0.063 -0.63038,0.27533 -0.68998,0.79361 -0.0644,0.55571 -0.21576,0.70751 -0.70749,0.70751 -0.5937,0 -0.62604,0.0798 -0.62604,1.54366 0,1.54366 0,1.54366 -0.77189,1.54366 l -0.77188,0 0,3.08731 0,3.08732 0.77188,0 0.77189,0 0,-2.3155 z"
         id="path3514"
         inkscape:connector-curvature="0" />
      <path
         style="fill:#b3026e;fill-opacity:1;fill-rule:evenodd;stroke:none"
         d="m 411.6875,577.09375 c -3.45667,5.32137 -4.73689,12.128 -3.28125,17.96875 -1.55394,6.07473 0.9413,15.17784 6.96875,17.5625 10.95462,6.04283 22.64154,10.53395 33.1875,17.34375 7.11375,4.18537 13.62443,8.61087 19.65625,14.1875 6.38994,6.14903 12.59553,12.57489 17.21875,20.25 5.82676,6.95688 7.39817,16.29098 12.59375,23.6875 5.45859,7.9192 9.36837,17.3679 8.3125,27.1875 1.48011,4.18302 -0.57718,16.39033 -4.1875,7.25 -5.04456,-3.16804 0.14993,7.96458 -1.21875,10.9375 0.45511,7.31405 2.06272,19.51124 -8.875,17.75 -7.65159,2.09563 -15.05441,11.80203 -21.65625,2.65625 -4.92498,-3.64742 -8.29942,-9.88195 -14.1875,-11.84375 1.41166,3.79187 0.81731,7.42527 -4.34375,5.46875 -6.68878,0.92817 -12.56644,-2.79974 -18.15625,-5.8125 -0.10841,0.63753 -0.54479,2.84953 -0.0401,4.4145 1.63277,1.20837 3.206,1.85768 4.65901,2.73374 8.46939,5.10644 14.06289,4.66078 19.06862,4.50801 6.18634,0.56627 11.53779,5.0727 15.8125,9.375 5.8824,3.85325 13.89137,0.0679 20.03125,-2.0625 5.09523,-3.24185 12.56046,-5.71204 12.5625,-13 -1.1616,-9.06643 5.19689,-15.02149 8.46875,-22.65625 2.22708,-9.30724 1.38436,-19.39345 -2.84375,-28.03125 -3.64703,-8.17706 -8.54814,-15.76754 -11.625,-24.25 -3.41488,-7.1613 -6.37709,-14.62811 -11.5,-20.78125 -4.39224,-6.17603 -9.59758,-11.98013 -15.6875,-16.5 -8.08238,-5.94 -17.54197,-10.3329 -25.65625,-15.65625 -6.07492,-1.72624 -11.80577,-4.86265 -17.125,-8.0625 -5.55019,-2.05311 -11.79972,-4.64454 -12.75,-11.375 -1.64962,-4.04873 -1.66346,-16.5063 -6.84375,-7.625 -0.85793,-2.23991 9.82877,-15.07159 1.4375,-15.625 z"
         id="path3516"
         inkscape:connector-curvature="0"
         sodipodi:nodetypes="ccccccccccccccccscccccccccccccc" />
      <path
         inkscape:connector-curvature="0"
         id="path3518"
         d="m 318.9653,926.4902 c -7.34524,-21.76496 -19.73984,-41.42449 -27.48368,-62.95019 -4.54115,-19.96334 -6.40865,-42.72158 4.88765,-60.77738 5.2464,0.34954 6.51481,14.38775 7.87754,1.61989 0.14076,-19.08331 -6.37466,-37.01058 -13.55324,-54.39042 -7.23264,-16.31759 -7.59665,-34.14109 -8.28827,-51.61767 -1.17737,-16.54887 0.5338,-33.09279 2.84062,-49.43415 4.33242,-19.67722 3.46007,-40.04126 7.96469,-59.74321 5.38671,-17.0156 -5.85074,-33.68262 -2.66198,-50.83515 2.11036,-8.5272 -0.19316,-13.20039 -7.82799,-9.85842 -5.66192,-13.8769 -9.87965,-28.23377 -17.47046,-41.46103 -10.16474,-6.47083 -0.54324,16.09429 1.53299,20.79465 7.93864,17.28468 12.94712,36.61345 18.37425,54.21695 3.32606,5.64037 1.62732,12.4036 -2.5955,3.26371 -0.17983,11.91013 -3.27275,22.18896 -3.91032,34.61541 -0.84346,31.06943 -2.57649,62.12278 -5.19715,93.10467 -0.81485,22.07246 -2.38497,46.33698 11.37071,65.09713 12.03973,14.27412 11.59502,31.72984 -1.01475,45.40106 -9.82814,16.58143 -3.55455,36.46365 -0.18283,53.9064 4.04404,19.37214 15.70808,36.15221 22.70115,54.53953 4.81412,4.27978 2.86697,17.74573 12.63657,14.50822 z"
         style="fill:#b3026e;fill-opacity:1;fill-rule:evenodd;stroke:none" />
      <path
         inkscape:connector-curvature="0"
         id="path3520"
         d="m 406.35562,582.03317 c 3.70563,-4.16161 5.69127,-9.44271 8.29306,-14.18883 5.74353,-2.50335 11.30617,-6.36774 13.41983,-12.6218 2.43304,-4.75257 4.84153,-9.92772 8.43351,-14.09189 3.5309,-6.09092 11.50503,-3.27735 16.00216,-7.88544 7.0019,-6.60463 9.83353,-16.38789 12.3118,-25.40924 2.53905,-10.59653 3.16389,-22.0268 -1.2422,-32.24104 -0.73011,7.03769 -0.54055,14.57166 -1.90912,21.49842 -0.61002,5.09185 -1.95689,10.13216 -3.31902,15.05574 -2.83404,5.82201 -5.23219,12.55223 -10.64465,16.37398 -5.30675,2.5596 -11.23475,1.82037 -16.55558,-0.15816 -5.74892,-1.77166 -11.20361,-6.70932 -16.98951,-6.63858 0.49083,5.40472 5.92471,9.4299 10.60377,11.54322 8.27884,4.7385 -3.26018,12.48412 -4.10348,18.88927 -1.52924,6.64876 -7.97518,8.48602 -12.37873,12.39572 -1.21375,6.03757 -4.10498,12.0376 -4.01274,18.29615 0.59879,0.85084 1.76837,-0.29818 2.0909,-0.81752 z m 15.00552,-28.04752 c 1.27829,-2.83907 0.99514,2.66573 0,0 z"
         style="fill:#b3026e;fill-opacity:1;fill-rule:evenodd;stroke:none" />
      <path
         inkscape:connector-curvature="0"
         id="path3522"
         d="m 263.47373,457.69826 c 5.72301,-13.31194 0.34903,-25.29654 3.66446,-38.57049 1.18949,-14.84421 20.48087,-28.01224 7.47296,-42.67901 -6.81263,-7.78078 -8.25458,-19.81652 -7.56834,-30.4243 0.11679,-15.66149 5.70594,-30.79545 3.25388,-46.54376 1.36559,-8.30835 -9.62435,-21.81037 -2.30396,-24.5467 7.54992,16.51199 1.79517,-10.0558 1.46859,-15.75453 -0.49861,-9.8178 -9.69742,-14.81868 -2.5103,-25.03723 3.06253,-9.62766 7.76719,-16.15207 12.26837,-24.62229 6.79302,-11.37545 13.81064,-25.32586 14.23229,-39.38956 6.0996,-11.33527 6.98648,-24.81226 8.87419,-36.20844 -2.56646,-13.76691 12.31089,-14.11711 14.99594,-24.65358 10.61365,1.65706 13.43106,-9.577859 22.12346,-3.13595 4.82266,1.15951 7.17784,-5.77298 13.31831,0.0371 12.1405,1.76497 21.29379,11.70483 13.06452,22.59874 6.03236,-5.97303 20.42427,9.05556 8.96522,11.36412 -5.82573,5.05918 -13.73488,2.67043 -20.10969,0.16398 10.71817,8.52612 2.97703,21.40325 -9.17305,22.3693 -12.49327,0.59572 -14.11774,15.22415 -16.4021,24.82116 -2.50192,12.2334 -4.74644,24.42702 -4.41178,37.1927 -2.3721,12.52629 1.09021,23.18009 -4.29006,35.30415 -0.30126,10.44216 -20.68107,21.31787 -7.14519,28.61491 9.03664,10.93738 13.97145,24.7581 15.29421,38.95366 1.71192,6.17421 0.52287,30.60044 5.23997,15.71401 12.5057,5.26123 20.17946,18.84354 23.94978,31.4917 2.01349,6.76165 3.03423,16.34617 3.95495,21.81635 3.53284,-7.40646 -3.70294,-29.36656 7.58931,-15.87266 6.96626,8.84159 13.25227,18.05952 20.0697,26.78834 0.53171,-6.62855 -7.04083,-13.983 -10.14154,-21.35088 -8.74286,-6.97914 -10.87149,-17.63487 -10.76174,-26.62246 -2.4263,17.11665 -15.92804,-8.95782 -22.37098,-13.26272 -14.00245,-5.11675 -13.81722,-17.39054 -13.23416,-30.45706 1.13784,-14.26975 -9.8238,-24.0165 -17.41385,-34.19619 5.4147,-9.64705 9.52103,-20.72017 15.45173,-29.19267 3.77676,-19.8686 0.0689,-40.47106 3.02419,-60.44373 3.05414,-12.29911 5.26468,-27.0815 21.56855,-25.51941 11.16168,-5.13315 8.21355,-20.65473 22.30629,-22.94726 13.53423,-6.85917 -0.0374,-15.9101 -3.71611,-21.89358 5.71163,-12.96137 -10.7839,-16.36444 -19.40578,-21.1052 -8.63192,-9.054759 -16.60215,-0.42276 -26.57703,-2.243053 -2.4016,10.853873 -19.20394,2.022123 -17.17683,16.211123 -8.75275,0.65763 -10.62488,6.05288 -10.7261,13.99453 -3.09083,13.46043 -3.3042,27.72337 -11.05747,39.38103 0.0569,13.76198 -8.50359,24.75889 -15.54562,35.54043 -6.62322,9.60608 -11.66928,20.30874 -14.01592,31.83345 -2.46359,14.37525 10.01501,27.85692 2.29259,41.18456 -5.19026,11.27563 9.21752,23.07235 0.81321,35.5841 -4.16008,16.25055 -7.05655,32.98948 -6.29006,49.88367 -0.53411,12.94534 16.96345,21.66817 9.61088,33.89647 -6.04285,18.60112 -9.72693,37.97834 -9.57989,57.62252 0.10394,2.07913 0.003,5.02215 -0.0692,8.2663 -0.23836,10.75726 1.98925,36.78984 10.95014,33.65192 -0.64175,-2.90797 -1.33464,-8.04051 -1.93537,-13.49929 -0.80104,-7.27907 -1.43822,-15.13822 -1.57172,-19.07642 -0.057,-1.68077 -0.14968,-3.359 -0.31385,-5.03192 z"
         style="fill:#b3026e;fill-opacity:1;fill-rule:evenodd;stroke:none"
         sodipodi:nodetypes="ccccccccccccccccccccccccccccccccccccccccccccccccccscsscc" />
      <path
         inkscape:connector-curvature="0"
         id="path3524"
         d="m 483.62207,509.07851 c 8.48292,-5.30432 11.72798,-16.37131 11.46983,-25.88907 -0.55521,-8.91758 -2.09823,-18.10783 -6.91954,-25.92483 -4.59282,-8.87995 -9.3743,-17.98869 -17.82024,-23.77203 -10.94966,-4.24871 -10.38546,-17.71878 -18.25252,-25.29693 -4.73432,-7.13349 -11.62556,-12.90213 -18.59377,-17.31879 -0.0734,-7.32792 -1.57596,-15.32466 1.10729,-22.36728 6.81697,-5.71292 6.45641,-15.41566 5.418,-23.4407 -2.1749,-11.69718 0.5955,-24.38096 -5.67045,-35.21108 -4.22103,-10.25753 -14.74454,-16.50946 -25.22762,-18.65404 -8.84589,-0.13236 -19.07217,-0.73316 -25.86384,6.00356 -11.22293,5.81088 -14.66144,19.46355 -14.4545,31.25687 1.11582,8.86159 -7.63528,16.57759 -3.61056,25.44329 6.12041,10.8805 1.90463,-10.33167 3.84564,-14.14947 2.54923,-9.24687 1.45318,-19.19527 6.11457,-27.86834 4.07398,-11.28777 17.56958,-15.54583 28.63753,-14.6507 8.55001,-0.5181 17.36175,2.96556 23.47437,8.94925 6.57201,8.3985 9.19312,19.08199 8.92779,29.60492 1.95973,9.22672 -0.27431,18.37015 -2.49293,27.37465 -2.712,7.9558 -4.43605,16.30794 -3.62523,24.98901 -0.10781,6.17974 0.45025,20.24822 -0.75886,21.40837 -0.80692,-11.01424 -0.81066,6.6427 -0.63443,9.90516 -0.10182,4.12002 0.53096,9.64453 1.44929,2.62783 2.8773,-6.97624 -1.69829,-19.65435 5.27515,-23.2847 5.1392,4.53309 10.83332,8.71591 14.36197,14.9117 4.05661,4.71386 9.08456,14.41374 -1.14892,13.47448 -5.15342,3.15483 8.96777,0.62889 10.80307,4.6474 7.69577,4.86773 14.04348,11.74386 18.83634,19.48374 4.71185,6.92792 8.08133,14.68945 10.22329,22.88523 2.08236,10.98163 1.49705,23.3343 -5.42369,32.584 -0.46448,0.53512 -0.95262,2.56289 0.55297,2.2785 z"
         style="fill:#b3026e;fill-opacity:1;fill-rule:evenodd;stroke:none" />
      <path
         inkscape:connector-curvature="0"
         id="path3526"
         d="m 424.44852,375.44104 c 2.80079,-2.28783 3.59034,-6.23105 4.11352,-9.60734 -0.0898,-3.7838 -0.31085,-7.79671 1.65187,-11.20497 1.44704,-3.32633 2.75782,-6.86418 2.73461,-10.53413 -0.66468,-3.396 -4.56721,-3.9757 -7.21797,-5.14016 -3.27889,-1.46777 -6.87792,-2.34839 -10.46002,-2.50048 -3.60996,0.48323 -7.1464,-0.74786 -9.78457,-3.12085 -1.05159,-1.98394 -5.12902,-4.71064 -5.32757,-0.91616 0.44337,1.88814 -0.35442,4.1412 -2.67261,3.35675 -2.90082,0.77181 -1.98983,5.98543 1.24564,4.35459 2.72562,0.30061 6.33438,-0.0337 8.46945,1.23205 0.4254,3.3596 -4.22477,3.69496 -6.45567,4.8063 -2.57888,-1.12921 -5.08349,-2.86718 -8.05049,-2.6253 -3.24475,0.52532 -3.6962,4.28916 -5.81285,6.22855 -2.70736,1.45623 -0.19181,-3.07607 0.23448,-4.14178 0.66992,-3.4868 5.20987,-4.83103 4.8267,-8.51726 -2.60778,-1.38394 -6.45701,-0.75988 -9.42176,-0.0578 -3.15626,0.976 -6.45028,1.41179 -9.61282,2.64838 -2.98706,2.26583 0.91742,6.34406 1.06102,9.30369 0.62155,3.34629 0.98241,6.80525 0.0479,10.11337 -0.16575,2.75481 1.15955,5.43409 0.60523,8.18921 1.85986,3.52551 3.99972,7.40319 7.7636,9.15708 2.9896,0.99323 5.64949,-1.44354 8.60271,-1.40215 3.11224,-1.2089 6.30833,-2.07318 9.64128,-1.68384 3.16329,0.49152 5.96348,2.10524 9.17155,2.31771 3.24056,1.69822 6.71666,2.66654 10.40358,2.37933 1.8609,0.007 3.22813,-1.21237 4.24258,-2.63485 z m -4.631,-15.32551 c 1.22049,-3.47345 1.22229,-7.5096 3.80312,-10.38355 1.59108,-2.21958 3.08558,0.47301 1.62163,2.01374 -1.13799,2.77732 -2.56706,5.57946 -2.51884,8.65834 -0.52033,1.52383 -3.27605,1.85888 -2.90591,-0.28853 z m -13.37835,0.68748 c -1.79248,-1.11437 -4.48606,-0.44811 -5.74832,-2.08757 -3.50859,-0.87635 -6.73911,0.72421 -9.9075,1.56688 -3.65174,-0.44234 -0.76679,-3.63979 0.95411,-4.63002 2.80573,-1.85286 5.97501,-0.0282 8.94411,-0.15328 2.89242,-0.17186 6.31791,-0.38662 8.42183,2.0145 1.67703,0.67604 4.01843,2.60074 1.09172,3.63217 -1.14892,0.70177 -2.81981,0.743 -3.75595,-0.34268 z m -28.81497,-6.09028 c 1.23172,-2.53913 -3.12511,-5.66132 -0.38511,-7.60252 3.14518,1.90786 1.34671,6.0106 2.14989,8.90238 0.20918,1.80441 -2.21114,2.96725 -1.7513,0.34933 -0.015,-0.54973 0.015,-1.09971 -0.015,-1.64919 z m 2.05826,-0.51455 c -0.86397,-1.59828 1.39568,-3.41057 1.10085,-0.82387 0.80198,1.53253 -1.54392,4.43089 -1.09217,1.16255 l 0,-0.33868 0,0 z m 30.26664,0 c -3.19669,-2.61449 -7.47775,-3.07975 -11.45621,-2.84573 -2.77398,-0.10301 -5.4174,0.18115 -7.66163,1.4237 -2.18792,0.18609 -2.94184,-2.33389 -0.69267,-2.91369 3.04396,-2.67397 7.3379,-1.52995 11.00745,-1.76256 3.45798,-0.24793 6.80216,0.98373 9.38044,3.19434 0.94572,1.33367 1.65652,3.17554 2.73146,3.98323 -1.01221,0.2912 -2.96804,0.11769 -3.30884,-1.07929 z m 16.04304,-3.85915 c 1.22123,-2.07186 1.03197,1.93349 0,0 z"
         style="fill:#b3026e;fill-opacity:1;fill-rule:evenodd;stroke:none" />
      <path
         inkscape:connector-curvature="0"
         id="path3528"
         d="m 545.18224,602.65465 c 5.16495,-0.40043 7.17124,-6.20702 8.21579,-9.31891 6.50883,-0.0603 10.2212,-7.32013 8.69466,-12.894 6.2351,-0.84577 3.51816,-8.11779 4.37435,-11.11643 4.52169,-2.25372 2.44382,-7.72723 -0.49173,-10.33681 -4.90142,-5.06256 -10.18676,-9.85072 -16.02058,-13.8958 -3.43297,-2.52155 -7.6468,-2.8401 -11.5438,-2.00489 -4.27568,-1.30074 -6.36418,-7.35083 -11.48107,-6.31829 -4.10752,0.93023 -6.56781,4.64189 -6.91729,8.53258 0.37358,4.12181 -3.65279,7.56578 -2.7719,11.13217 1.58105,3.29172 -1.08572,7.34961 -4.52588,4.27656 -7.17574,-2.83224 -13.9484,-6.90415 -19.1421,-12.52515 -2.24797,-1.15551 -7.06074,-8.19181 -7.83427,-4.05341 5.79803,4.88993 9.72662,11.55563 15.90588,16.05989 4.37839,4.2712 11.21199,3.70839 16.27812,6.73648 0.79808,3.64438 11.17965,-0.21714 4.78298,-0.30845 -2.79106,-2.70116 -0.90964,-8.7759 -0.16441,-12.67116 1.5225,-4.17828 1.02912,-8.69258 1.47054,-12.85885 3.20388,-3.42202 10.57622,-0.21559 9.78547,4.49615 2.32838,3.92537 7.33761,0.96113 10.91776,1.15845 4.14227,-0.0394 6.357,3.96161 9.71719,5.74395 4.22612,3.41858 7.96095,7.54163 10.62069,12.19223 -1.045,3.02654 -8.31357,4.12172 -3.06701,7.8286 2.66677,4.76941 -6.56992,5.42911 -5.1416,9.96266 3.51278,3.36814 -0.59939,7.10631 -4.26684,7.71098 -4.17715,0.67695 -5.06523,4.52942 -3.29866,7.6394 -1.55634,5.38382 -8.68582,3.2253 -12.69631,1.99237 -4.92134,-1.40608 -10.02594,-2.8807 -15.2156,-2.25855 -4.99755,-2.6749 -9.68949,-7.80873 -15.983,-6.41178 -11.44497,0.87931 -22.94865,1.51624 -34.40681,2.42982 -1.59557,0.87214 -7.57104,0.96284 -2.61721,1.00033 11.40979,0.24995 22.87319,-0.41932 34.24659,0.57347 6.39473,1.19457 13.2415,1.09673 18.99581,4.44895 5.48029,0.82237 10.99862,1.00893 16.11611,3.28678 2.46822,0.43723 5.0248,0.31512 7.46413,-0.22934 z m -37.73392,-11.04651 c 1.77945,-0.91373 0.40084,0.98001 0,0 z"
         style="fill:#b3026e;fill-opacity:1;fill-rule:evenodd;stroke:none" />
      <path
         inkscape:connector-curvature="0"
         id="path3530"
         d="m 459.78549,551.64543 c 5.45933,-3.02383 11.67392,-5.10327 16.01248,-9.79307 2.79286,-2.93 3.8115,-6.97198 4.8589,-10.75988 1.14936,-4.57341 1.56443,-9.3725 0.84166,-14.04899 0.30306,-1.86022 -0.33107,-4.18975 -2.16711,-5.00862 -1.74142,-0.38246 -2.22506,2.0209 -2.10782,3.29934 1.11567,5.17118 1.97306,10.7417 0.0389,15.83298 -1.56458,7.08137 -6.54161,13.54468 -13.46236,16.05186 -1.73318,0.95376 -3.5845,1.91285 -4.84197,3.47999 -0.48679,0.6544 0.29692,0.94571 0.82773,0.94639 z"
         style="fill:#b3026e;fill-opacity:1;fill-rule:evenodd;stroke:none" />
      <path
         inkscape:connector-curvature="0"
         id="path3532"
         d="m 353.65271,1039.0677 c 3.43701,-2.3047 3.94297,-6.5629 5.61506,-9.8782 0.68833,-4.0771 2.01153,-7.763 2.76919,-11.7758 1.43311,-4.3583 1.44824,-9.1286 0.36895,-13.5534 -0.31175,-5.23885 -5.20463,-8.24382 -5.87664,-13.38363 -1.54886,-3.67531 -3.93084,-7.10812 -4.62726,-11.19302 -2.08416,-6.11947 -3.28039,-12.55478 -2.8767,-19.03438 0.0314,-4.20543 0.0958,-8.4255 -0.37479,-12.61196 -2.19436,-2.84754 -5.49332,-5.02343 -5.81525,-8.93396 -1.73079,-3.86145 -0.84406,-8.04964 -1.0173,-12.11678 -1.97246,0.10287 -3.94491,0.20575 -5.91737,0.30863 -0.12278,5.08798 0.69447,10.1012 1.42638,15.06632 -0.28854,4.80234 5.08873,6.37639 5.69845,10.6845 1.39149,5.58101 -0.97148,11.56179 1.08872,17.00501 1.31677,3.48144 0.14974,8.11524 2.25261,11.51468 0.0973,5.18005 2.32344,10.04089 4.12475,14.81166 2.23404,4.55633 5.36275,9.08553 4.69763,14.43433 -0.45954,5.3631 1.04994,11.1254 -1.3256,16.1702 0.38616,3.9765 -2.49608,10.9579 -7.49573,7.9873 -3.76283,-2.5242 -7.40468,-5.2759 -10.96088,-8.0839 -3.15611,-3.4026 -4.91445,-8.133 -5.21302,-12.6671 0.12278,-4.7312 -2.41777,-9.1205 -1.81913,-13.92481 -0.55222,-12.76307 -1.22109,-25.57837 -2.95202,-38.22712 -2.17685,-3.65016 -1.66505,-7.65194 0.14374,-10.90848 -0.63742,-4.5127 -1.64229,-9.02379 -3.11882,-13.31274 -0.95007,-3.74448 -2.16502,-7.40676 -3.40198,-11.06441 -4.35129,-0.76148 -6.95368,1.77112 -3.50918,5.14224 0.82549,3.90566 3.21166,7.0972 4.20335,10.97065 1.38745,3.84703 3.31543,7.96128 1.02419,11.92145 -3.23547,4.47527 0.4513,8.16553 2.69103,11.81638 0.83388,15.32853 -0.15392,30.71204 0.72083,46.04744 2.16741,3.3987 0.25155,8.0811 3.4421,11.1248 1.34522,2.8985 3.4421,3.8904 4.81562,6.8309 3.23936,1.3031 5.16735,5.0278 8.67998,6.1745 4.13702,1.2834 8.21729,5.1566 12.53969,2.6587 l -4.5e-4,0 z"
         style="fill:#b3026e;fill-opacity:1;fill-rule:evenodd;stroke:none" />
      <path
         inkscape:connector-curvature="0"
         id="path3534"
         d="m 353.32823,603.43629 c -1.89624,-5.63984 -6.24244,-10.2316 -7.48599,-16.11681 -0.60073,-3.08349 0.5675,-7.06825 3.96094,-7.89704 3.72091,-3.34846 -3.5318,-5.51225 -5.20853,-7.74384 -2.10167,-3.54636 -4.70077,-7.27104 -4.73401,-11.54647 -0.0449,-4.82829 5.34059,-6.39725 8.29411,-9.22385 3.21406,-2.17854 6.20755,-4.66342 9.78651,-6.2576 3.75775,-2.4252 8.48248,-2.27486 12.72761,-3.05551 4.26415,-1.83276 -0.17683,-5.89576 -3.26182,-5.16924 -6.858,-0.76693 -13.54636,1.75183 -19.80003,4.2588 -4.46494,2.18285 -8.77596,4.66007 -13.50189,6.26484 -3.23442,2.55759 -7.37713,3.50552 -10.86565,5.64731 -5.42445,2.05515 -11.68067,3.8645 -17.3345,1.65279 -4.82551,0.28984 -1.4129,5.98762 0.18582,8.11345 3.76793,6.45667 6.34336,13.50345 8.3552,20.67814 0.68084,4.31257 4.17536,1.28317 3.43177,-1.59393 0.12278,-4.02445 -0.32612,-8.17103 1.10939,-12.02339 0.88179,-3.38311 5.14099,-7.32058 8.57785,-5.13285 3.92366,0.63456 6.54177,4.13716 5.83891,8.07297 -0.46732,5.55094 -2.77234,11.0059 -1.53658,16.63762 1.00098,4.28671 3.13051,8.26717 5.47161,11.95598 2.94768,3.34856 8.06876,2.54055 12.10172,2.98394 1.23606,-0.14344 2.79076,0.1144 3.88756,-0.50531 z"
         style="fill:#b3026e;fill-opacity:1;fill-rule:evenodd;stroke:none" />
      <path
         inkscape:connector-curvature="0"
         id="path3536"
         d="m 375.80552,596.81997 c -2.21951,-1.07527 -1.59497,-3.78251 -1.29206,-5.71429 0.36086,-3.71816 0.31534,-7.57206 1.6393,-11.11203 1.54601,-2.9739 4.85365,-4.37349 7.94223,-5.13067 1.09307,-1.12292 2.15813,-2.69368 2.29768,-4.26344 -0.53141,-1.75537 -1.3536,-3.42349 -2.53905,-4.82592 -1.57266,-1.43135 -1.12481,-3.82722 -0.81665,-5.69383 1.11687,-1.3224 0.67665,-3.18274 1.66145,-4.62064 0.50761,-1.22552 1.15671,-4.55228 -0.47316,-4.73638 -1.47773,1.35979 -1.64094,3.59765 -3.12002,5.00906 -1.5511,2.57221 -3.14219,5.22076 -3.87738,8.1487 -1.02958,1.6692 -2.27762,3.18603 -3.18636,4.93413 -1.27784,1.76184 -3.12077,3.14456 -3.97756,5.1797 -1.20012,1.48517 -2.13776,3.30253 -2.17654,5.35257 -0.0195,2.0608 1.34222,3.88755 1.1567,5.98934 0.0629,3.80384 0.0494,7.61099 0.0479,11.41634 2.88329,0.45335 5.76134,0.93994 8.63131,1.47074 -0.63937,-0.46774 -1.27934,-0.93578 -1.91825,-1.40338 z"
         style="fill:#b3026e;fill-opacity:1;fill-rule:evenodd;stroke:none" />
      <path
         inkscape:connector-curvature="0"
         id="path3538"
         d="m 408.43963,554.81965 c 1.97754,-3.39933 0.88717,-8.92375 -2.8282,-10.60457 -2.83957,-2.12759 -6.56482,-3.11479 -9.97668,-1.90841 -3.06731,0.20758 -3.08468,4.47824 0.26848,3.39567 3.73753,-0.17525 7.94014,1.6707 8.51317,5.76406 0.37389,1.43091 2.34155,5.12439 4.02323,3.35325 z"
         style="fill:#b3026e;fill-opacity:1;fill-rule:evenodd;stroke:none" />
      <path
         inkscape:connector-curvature="0"
         id="path3540"
         d="m 384.92662,596.48807 c 3.23652,-1.65708 7.00834,-2.24668 9.5721,-5.0403 3.88382,-1.1173 4.04269,-4.9464 4.93136,-8.11071 0.35712,-2.89761 -2.97029,-8.5642 -5.27066,-3.72504 -1.82093,3.01844 -4.14496,6.02542 -4.23301,9.66494 -0.30321,3.57712 -3.94895,5.05388 -6.2956,6.26019 -0.20678,0.76299 0.61287,2.17908 1.29581,0.95092 z"
         style="fill:#b3026e;fill-opacity:1;fill-rule:evenodd;stroke:none" />
      <path
         inkscape:connector-curvature="0"
         id="path3542"
         d="m 432.71104,532.25954 c -6.88945,-4.27129 -15.1346,-7.86924 -19.15108,-15.22039 -5.23024,-10.17227 -2.25246,-21.9083 -2.40774,-32.83216 0.3116,-4.87759 0.94393,-21.57168 -2.21473,-9.19905 -0.40892,7.90461 -2.19391,15.45885 -4.36746,22.99774 -3.33115,8.88309 -12.27796,14.64309 -21.81277,13.51595 -4.34186,-0.10032 -11.75193,0.47331 -3.41395,1.88327 9.50621,2.85455 20.70623,0.62199 28.43224,7.94279 7.43344,3.88235 16.48386,13.40857 24.93549,10.91185 z"
         style="fill:#b3026e;fill-opacity:1;fill-rule:evenodd;stroke:none" />
      <path
         style="fill:#b3026e;fill-opacity:1;fill-rule:evenodd;stroke:none"
         d="m 344.28125,98.4375 c -3.29104,2.97078 4.81438,7.66001 7.03125,10.5 6.59887,5.81277 4.34508,15.83042 0.34375,22.46875 -1.49414,5.07153 -6.53251,3.88538 -5.96875,-1.3125 -0.14495,-9.47076 -7.80557,-16.01678 -11.5625,-24.09375 -2.21172,-6.01179 -6.15945,0.28622 -3.46875,3.53125 5.40369,5.78754 12.16189,12.20863 12.28125,20.78125 2.22634,7.0999 -9.19607,16.59863 -12.46875,7.4375 0.58048,-6.38028 -2.99931,-11.98248 -7.125,-16.5 -3.73787,-1.78197 -4.91928,-12.91227 -8.59375,-7.65625 1.73046,6.13958 7.98168,9.60875 11.25,14.90625 3.324,4.84515 4.85736,13.55971 -1.65625,16.53125 -9.73794,4.62062 -8.77089,-8.06574 -12.6875,-13.15625 -2.75839,-1.84596 -5.69216,-9.08642 -8.75,-6.5 -0.36001,5.41349 8.18523,11.89747 1.21875,16.71875 -5.03753,5.7176 -2.43564,15.63789 -8.4375,21.21875 -2.12959,6.94805 -2.89707,14.28258 -5.6875,21.03125 -5.43302,10.61774 -11.59536,20.98046 -15.4375,32.34375 -0.27606,0.98764 -0.6053,1.98918 -0.9375,3 -0.0204,0.062 -0.042,0.12541 -0.0625,0.1875 -0.61633,1.73076 -1.20413,3.48733 -1.71875,5.25 -0.0271,0.0928 -0.0357,0.18833 -0.0625,0.28125 -0.36046,1.18591 -0.70946,2.36961 -0.96875,3.5625 -0.007,0.0321 -0.0244,0.0616 -0.0312,0.0937 -0.62762,2.52773 -1.15565,5.08071 -1.59375,7.625 0.233,11.64647 7.41301,22.33469 5.875,34.21875 1.58375,14.21167 4.60707,28.68305 1.53125,42.96875 -1.41358,17.64556 -3.73082,36.34626 2.03125,53.28125 4.96667,9.03383 17.14408,14.24575 17.03125,25.90625 -1.00516,5.38448 0.94835,11.1517 -2.25,16.09375 -3.66292,7.35305 -12.21012,11.90826 -15.28125,19.21875 8.42746,-3.40911 12.62538,-14.41481 22.125,-15.375 7.59643,1.73068 7.68319,11.43819 8,17.71875 0.86386,13.54333 -3.32693,27.10378 -11.5625,37.75 -3.61341,6.09653 -10.55741,11.15708 -11.46875,18.28125 7.40883,-5.54618 12.3571,-16.59315 22.75,-17.03125 8.28125,1.20149 10.09236,11.32397 16.1875,15.875 9.9245,9.77289 22.55118,16.66749 35.53125,21.1875 -16.7992,-9.53739 -31.44886,-25.12326 -34.46875,-44.875 -3.01536,-13.81651 0.28593,-27.90137 2.46875,-41.5 -1.6336,-15.04702 -4.09407,-30.3297 -5.3125,-45.21875 -9.66359,-0.1133 -12.65252,-11.22377 -13.90625,-18.9375 -1.82601,-11.06873 -5.7964,-21.51829 -6.90625,-32.75 0.51421,18.88565 5.92829,37.31456 7.25,56.0625 0.38449,4.26096 -3.09727,10.81264 -8.09375,7.75 C 290.774,380.22902 289.22326,367.0925 286,356.25 c -4.35934,-18.51306 -4.84729,-38.23019 -1.53125,-56.96875 2.24084,-5.98847 7.47162,-10.0231 11,-15.1875 -4.33638,4.10264 -14.43865,5.1144 -15.78125,-2.3125 -0.34689,-11.08628 0.96776,-22.34193 4.3125,-32.96875 9.5e-4,-0.003 0.0303,0.003 0.0312,0 2.0243,-0.35834 3.78203,-1.65896 4.75,-4.3125 1.61811,-12.65849 2.22752,-25.4467 3.78125,-38.125 2.08678,-11.81115 3.36125,-24.10556 8.65625,-35.03125 1.47107,-4.65901 5.03212,-7.75816 9.28125,-8.8125 1.72753,-0.165 3.47917,-0.25038 5.125,-0.28125 0.71965,0.096 1.43318,0.22778 2.15625,0.4375 4.9427,1.05373 14.55469,-1.07831 13.75,-7 -4.36065,3.48359 -15.3462,5.33718 -15.25,-3.25 2.48375,-6.51695 8.63603,-5.14139 14.4375,-4.03125 1.0533,0.31046 2.16467,0.5345 3.21875,0.53125 1.11411,0.14664 2.20081,0.22263 3.1875,0.15625 4.77768,-3.88803 9.67037,-8.41937 15.8125,-9.8125 0.57654,-0.13077 1.15056,-0.24005 1.75,-0.3125 6.11111,1.98789 8.65579,-3.16966 2.71875,-6.1875 -7.80924,-3.83371 9.71841,-10.88459 0.84375,-13.46875 0.97416,-9.00235 -7.62342,-14.32202 -12.21875,-20.8125 l -0.84375,-0.03125 -0.90625,-0.03125 z"
         id="path3544"
         inkscape:connector-curvature="0" />
      <path
         style="fill:#b3026e;fill-opacity:1;fill-rule:evenodd;stroke:none"
         d="m 317.375,599.9375 c -3.95492,1.80452 -1.91535,7.96659 -4.15625,10.125 -6.72752,2.96428 -11.92775,-4.70975 -17.49106,-6.60216 -0.84522,-0.28756 -0.10526,-5.13891 -2.60269,-3.02284 -0.97406,2.39163 1.25813,5.39572 -0.5625,7.96875 -3.48208,5.99002 -0.51333,12.7839 -0.44331,19.26987 0.91883,6.4949 3.55222,14.18997 11.00581,15.54263 14.17208,3.84814 26.79092,12.37159 37.75,22.03125 9.28195,9.63223 18.15097,21.04005 18.53125,35.0625 0.16121,2.33032 0.0983,4.66995 -0.0312,7 1.27152,-9.0729 4.18118,-18.33393 0.3125,-27.15625 -1.97959,-4.99451 0.24389,-11.54102 6.0625,-12.1875 5.57096,-5.14669 15.94,-3.8149 18.125,4.09375 4.6895,7.08351 13.43616,11.78549 17.09375,19.03125 -0.10019,1.89545 -1.90605,4.41063 0.8125,2.59375 3.40369,0.43538 4.71708,4.56068 7.5625,6.28125 7.86452,9.20794 9.42831,21.73107 16.40915,31.50678 2.24155,2.94063 2.05809,7.74478 3.96585,10.24322 1.44934,-1.88021 6.29763,1.49323 4.375,-1.78125 -3.86252,-13.30865 -4.23228,-27.83123 -10.6875,-40.3125 -7.05892,-9.28756 -19.60025,-11.85486 -28.4375,-19 -12.21723,-7.96045 -20.08071,-25.18596 -12.53125,-38.84375 1.36828,-3.25745 4.25751,-5.41186 7.25,-2.9375 7.22611,5.63008 7.43491,15.87384 12.28125,23.1875 5.2209,9.19769 12.95285,17.40835 21.6875,23.1875 3.14485,1.61447 5.04173,5.81172 8.34375,6.75 -11.28526,-10.86727 -25.32011,-20.52158 -29.84084,-36.41962 -3.04852,-10.32314 -5.02706,-21.1352 -6.25291,-31.76788 0.72268,-5.20725 6.60279,-7.10615 10.96875,-7.84375 -3.66116,-1.63226 -7.1357,-4.40652 -10,-6.78125 -6.15855,2.31753 -9.37427,8.0831 -13.71875,12.5 -2.82477,2.11945 -6.28062,3.13562 -9.625,4.09375 4.86594,0.17794 9.74965,4.85897 7.21875,9.84375 -3.42651,8.01434 -4.17101,20.29042 -14.25,23 -10.47224,1.39688 -19.49157,-6.09391 -28.8125,-9.59375 -8.83733,-5.25131 -23.10741,-5.00118 -27.3125,-16.09375 -2.88673,-8.54669 5.1768,-20.77423 14.78125,-16.65625 2.44003,1.70225 -0.64335,-2.65386 -0.0312,-4.03125 -0.26475,-3.92004 1.28468,-11.23028 -4.71875,-11.03125 -0.86146,-0.60333 -1.94154,-1.45259 -3.03125,-1.25 z M 357,718.6875 c -1.86712,1.9338 -2.10235,4.95549 -1.96875,7.5625 0.63572,-2.23135 1.95669,-6.03373 1.96875,-7.5625 z"
         id="path3546"
         inkscape:connector-curvature="0" />
      <path
         style="fill:#b3026e;fill-opacity:1;fill-rule:evenodd;stroke:none"
         d="m 292.375,658.25 c -4.87267,12.9311 -7.88117,26.76758 -9.96875,40.375 -0.5148,16.45572 0.17597,33.5171 7.46875,48.5 3.72951,13.44901 12.06669,25.76885 11.8125,40.15625 1.65103,10.2037 4.75765,22.15837 -1.6875,31.25 -0.54052,14.73558 9.15623,30.2197 1.625,44.375 -5.07132,13.66926 4.04169,27.09467 9.32416,39.25224 9.09048,22.92521 15.94787,47.14331 16.98834,71.93526 3.31302,13.39942 0.90459,27.70095 3.8125,40.96875 1.73595,5.2112 5.93403,13.0027 12.5625,11.25 7.48188,-5.6019 3.12138,-16.4669 0.6888,-23.7208 -2.43388,-5.73744 -4.00985,-11.78882 -4.3763,-18.0292 -3.59065,1.96494 -5.12562,-6.04875 -0.34375,-4.9375 0.0505,-10.12694 -1.77577,-19.87844 -5.625,-29.15625 -4.48718,-16.60092 -4.59809,-34.08409 -4.5625,-51.1875 1.56335,-14.83043 6.46481,-30.57914 -0.5625,-44.8125 -3.50356,-8.73429 -6.31545,-19.39456 -0.47084,-27.85219 1.75835,-3.83074 3.85763,-8.57804 1.53334,-12.61656 -8.07416,4.55025 -22.31155,1.91198 -23.59375,-8.625 1.79739,-9.48994 5.57694,-19.12322 4.375,-29.15625 -0.36283,-7.47701 -4.10703,-14.24143 -9.46875,-19.28125 -6.06844,-10.13856 -3.83216,-22.54667 -2.53125,-33.65625 6.83282,4.70919 7.16814,14.56658 12.8125,19.78125 3.58792,2.56387 5.69159,-2.56729 4.4375,-5.53125 -1.77969,-9.02455 -8.17396,-16.31577 -11,-25 -9.38567,-17.59111 -9.92047,-38.12814 -11.71875,-57.625 -0.51042,1.11458 -1.02083,2.22917 -1.53125,3.34375 z"
         id="path3548"
         inkscape:connector-curvature="0" />
      <path
         inkscape:connector-curvature="0"
         id="path3550"
         d="m 451.12378,736.67985 c 0,-0.46121 -0.28405,-0.96483 -0.63129,-1.11917 -0.34723,-0.15434 -2.05196,-3.0168 -3.78829,-6.36104 -2.30456,-4.43902 -3.15686,-7.12227 -3.15686,-9.9398 0,-4.93863 -1.70098,-15.72576 -2.64416,-16.76902 -0.3977,-0.43986 -0.73924,-1.57634 -0.75886,-2.5255 -0.0195,-0.94916 -1.15595,-2.65504 -2.52542,-3.79083 -1.43656,-1.19145 -2.4898,-2.88309 -2.4898,-3.99869 0,-1.06348 -0.34334,-1.9336 -0.76304,-1.9336 -0.41971,0 -0.56585,0.75387 -0.32493,1.67527 0.3113,1.19017 -0.0973,1.87328 -1.41035,2.35905 -1.83919,0.68038 -1.83755,0.68864 0.32492,1.67399 1.19534,0.54461 2.1734,1.57004 2.1734,2.27868 0,0.70866 1.13649,2.47766 2.52543,3.93113 1.94131,2.03141 2.53516,3.44137 2.56721,6.09562 0.2499,20.72636 0.97088,25.74997 3.91676,27.29425 2.52677,1.32462 6.98528,2.04565 6.98528,1.12966 z"
         style="fill:#b3026e;fill-opacity:1;fill-rule:evenodd;stroke:none" />
      <path
         inkscape:connector-curvature="0"
         id="path3552"
         d="m 417.11391,436.0518 c 2.92837,-4.22248 -3.30195,-9.13767 0.24721,-13.64288 -0.14973,-4.51468 5.21018,-10.65905 1.97111,-13.91081 -3.67494,2.74663 -3.4159,8.71641 -5.79369,12.63525 -0.52931,5.05608 -3.47759,8.39863 -7.54873,10.96612 -0.48873,4.22652 6.1595,4.97854 9.37505,4.50854 0.60178,-0.11679 1.19324,-0.29942 1.74905,-0.55622 z"
         style="fill:#b3026e;fill-opacity:1;fill-rule:evenodd;stroke:none" />
      <path
         inkscape:connector-curvature="0"
         id="path3554"
         d="m 408.27477,411.42829 c -0.56944,-2.78131 -3.04621,-4.77912 -3.22544,-7.74514 -0.66168,-2.96755 -1.30135,-6.72549 -4.59686,-7.83092 -3.40407,-1.25928 -1.68541,4.12894 -0.95171,5.7127 0.69611,2.51241 1.65427,4.89853 2.42151,7.40548 0.89182,2.25165 3.06537,5.02511 5.80567,3.93896 0.45684,-0.33873 0.54728,-0.95384 0.54683,-1.48108 z"
         style="fill:#b3026e;fill-opacity:1;fill-rule:evenodd;stroke:none" />
      <path
         inkscape:connector-curvature="0"
         id="path3556"
         d="m 407.43281,435.28577 c -3.42234,-1.95356 -0.77757,-5.32073 2.13626,-5.33246 1.89625,-3.03421 -3.97515,2.25103 -5.30151,-0.70031 -3.28548,-2.96699 -3.67958,-7.814 -6.2914,-11.26531 -2.38722,-2.73155 -6.03312,2.57752 -7.85883,-1.92601 -3.22948,-3.24544 -5.85314,-6.49013 -8.01471,-10.35548 -1.99087,-4.45886 -3.95045,-8.90857 -6.61423,-13.01953 -1.31677,-2.09943 -0.7933,-4.64131 -3.79099,-4.83517 -2.01663,-3.512 -1.02254,3.2558 -0.3682,4.23105 0.66273,3.25032 4.97255,7.8926 1.6926,10.26417 -3.17961,-2.01308 -1.47713,-6.97777 -4.4302,-9.05946 -0.3944,4.72928 2.63503,9.44988 4.82595,13.62929 3.07077,2.58061 6.89424,4.13668 9.96336,6.80966 3.45318,3.01479 7.70595,4.99886 10.01546,9.16976 3.64754,3.21916 8.03342,5.66105 11.01314,9.5713 0.89901,0.90507 1.26436,3.55439 3.0233,2.8185 z"
         style="fill:#b3026e;fill-opacity:1;fill-rule:evenodd;stroke:none" />
      <path
         inkscape:connector-curvature="0"
         id="path3558"
         d="m 353.3453,411.84921 c 2.75393,-3.29201 4.48726,-7.08427 5.56984,-11.01695 2.38468,-4.15945 -0.51404,-8.56221 -0.55686,-12.87983 -0.3128,-4.61872 -1.57611,-9.07286 -1.65353,-13.71872 -0.0584,-2.03609 -1.89923,-6.46541 -1.78903,-1.9069 -0.30965,8.75757 0.15423,17.61618 -1.56892,26.25173 0.37329,4.60766 -3.63122,9.73528 -1.28847,13.86995 0.50221,0.65235 1.50184,0.28999 1.28697,-0.59928 z"
         style="fill:#b3026e;fill-opacity:1;fill-rule:evenodd;stroke:none" />
      <path
         inkscape:connector-curvature="0"
         id="path3560"
         d="m 341.6055,924.20624 c -2.78342,-15.26526 0.71333,-31.05105 7.00384,-45.01825 1.60366,-8.52728 5.18397,-18.59751 -0.0569,-26.50456 -1.19054,-10.90938 -12.81056,-22.52405 -3.81644,-32.27379 4.58653,-8.55257 0.66527,-19.20834 6.92599,-26.86629 5.90658,-11.55385 7.62719,-25.33462 5.3313,-38.08082 -1.96017,-11.627 -3.17976,-23.61487 2.56002,-34.40356 2.90321,-8.91159 4.2935,-18.23004 4.9131,-27.53159 1.45018,-9.60242 -7.07692,-23.92357 7.5947,-24.89741 10.36105,-4.45102 12.92256,12.94355 21.5964,16.57726 8.35505,6.14347 18.82241,22.1932 22.15326,25.36172 -6.32525,-18.70066 -24.65608,-29.86883 -32.65102,-47.58804 -0.55417,-4.63603 -3.01416,-17.72809 -5.80866,-7.05559 -1.89085,10.33162 -13.39303,9.98544 -18.64768,15.74287 4.68835,13.96975 1.65996,29.24984 -2.09553,43.15835 -6.47364,11.5963 -8.83211,-9.72001 -12.7625,-12.90025 -1.05398,7.64556 2.59446,17.03958 3.3873,25.22771 2.24842,8.53241 1.93487,17.46035 3.79458,26.04335 -0.0344,11.95763 -2.26294,23.89718 -5.88847,35.25999 -4.9986,6.50996 -6.04195,13.26673 -4.08042,20.68537 0.32567,10.041 -14.64212,15.98572 -8.53638,24.59367 4.69598,9.50404 7.88383,19.72317 10.28678,30.03834 -0.015,10.79497 -2.94619,21.70807 -6.42408,31.95321 -2.0295,9.74539 -3.96318,22.01333 0.0464,30.85148 2.26429,0.28529 6.57111,1.60675 5.17424,-2.37317 z"
         style="fill:#b3026e;fill-opacity:1;fill-rule:evenodd;stroke:none" />
      <g
         transform="matrix(1.4605929,-0.32972617,0.32972617,1.4605929,-3160.2804,1057.2584)"
         style="font-size:72px;font-style:normal;font-variant:normal;font-weight:bold;font-stretch:normal;line-height:125%;letter-spacing:0px;word-spacing:0px;fill:#000000;fill-opacity:1;stroke:none;font-family:Aharoni;-inkscape-font-specification:Aharoni Bold"
         id="text3897">
        <path
           d="m 2269.7311,-20.926529 -0.09,13.7457975 3.5507,0.023309 0.09,-13.7457975 9.4216,0.06185 -0.09,13.7457976 3.9022,0.025617 0.09,-13.7457976 9.949,0.06531 -0.1754,26.7181742 -36.7727,-0.2414002 0.1754,-26.718174 z m 33.4237,33.7592 0.2649,-40.358505 -50.413,-0.330945 -0.2649,40.358506 z"
           style="font-weight:normal;font-family:Thunder Lord;-inkscape-font-specification:Thunder Lord"
           id="path3948"
           inkscape:connector-curvature="0" />
        <path
           d="m 2262.5085,-42.324925 2.9386,-12.887998 24.2335,5.525343 3.0401,-13.333594 11.6198,2.649351 -5.9786,26.221592 z m 25.0787,-28.862055 -3.0401,13.333594 -24.2336,-5.525343 -5.9708,26.187315 49.1527,11.206989 9.0109,-39.520908 z"
           style="font-weight:normal;font-family:Thunder Lord;-inkscape-font-specification:Thunder Lord"
           id="path3950"
           inkscape:connector-curvature="0" />
        <path
           d="m 2275.8018,-89.277236 5.7903,-11.883094 22.344,10.887593 5.9905,-12.293943 10.7137,5.220499 -11.7808,24.177037 z m 30.9811,-22.408154 -5.9904,12.29394 -22.344,-10.88759 -11.7654,24.145431 45.3201,22.083179 17.7558,-36.43938 z"
           style="font-weight:normal;font-family:Thunder Lord;-inkscape-font-specification:Thunder Lord"
           id="path3952"
           inkscape:connector-curvature="0" />
        <path
           d="m 2334.3161,-134.41937 4.1724,-3.61336 -7.8993,-4.8789 z m 11.6039,1.53105 -7.5475,6.53626 2.1646,4.21791 -10.7366,9.29806 -14.161,-36.38285 11.1353,-9.64329 33.8004,19.37476 -10.7366,9.29806 z m -19.9693,-34.28266 -18.417,15.9494 19.4233,49.87032 22.0845,-19.12548 c -0.5853,-1.10539 -1.118,-2.13226 -1.5982,-3.08061 0.8546,0.59308 1.8126,1.25171 2.8738,1.97589 l 21.9782,-19.03341 z"
           style="font-weight:normal;font-family:Thunder Lord;-inkscape-font-specification:Thunder Lord"
           id="path3954"
           inkscape:connector-curvature="0" />
      </g>
      <g
         transform="matrix(1.4842918,0.19730388,-0.19730388,1.4842918,-3199.348,-228.27236)"
         style="font-size:72px;font-style:normal;font-variant:normal;font-weight:bold;font-stretch:normal;line-height:125%;letter-spacing:0px;word-spacing:0px;fill:#000000;fill-opacity:1;stroke:none;font-family:Aharoni;-inkscape-font-specification:Aharoni Bold"
         id="text3926">
        <path
           d="m 2462.1564,-128.03885 -11.7009,-7.21418 -1.8635,3.02248 11.7009,7.21418 -4.9448,8.02004 -11.7009,-7.21418 -7.2695,11.79066 -11.0425,-6.80827 19.2993,-31.30211 22.7434,14.02245 z m -19.7481,-31.87635 -26.4581,42.91322 22.6536,13.9671 7.2696,-11.79066 11.7008,7.21418 19.1887,-31.12255 z"
           style="font-weight:normal;font-family:Thunder Lord;-inkscape-font-specification:Thunder Lord"
           id="path3933"
           inkscape:connector-curvature="0" />
        <path
           d="m 2466.7535,-84.81651 -8.7114,-10.220994 27.9873,-23.853616 8.7114,10.22099 z m -18.3263,-10.987666 17.5596,20.602527 38.3689,-32.701811 -17.5596,-20.60252 z"
           style="font-weight:normal;font-family:Thunder Lord;-inkscape-font-specification:Thunder Lord"
           id="path3935"
           inkscape:connector-curvature="0" />
        <path
           d="m 2508.1828,-48.707306 -2.6648,-9.073824 -23.7471,6.974044 -3.7248,-12.683116 23.7471,-6.974043 -2.6648,-9.073825 11.5362,-3.387959 9.0544,30.830765 z m 7.104,-42.684495 -24.6242,7.231608 2.6648,9.073824 -23.7471,6.974044 7.5684,25.771011 23.7472,-6.974044 2.6648,9.073825 24.6241,-7.231608 z"
           style="font-weight:normal;font-family:Thunder Lord;-inkscape-font-specification:Thunder Lord"
           id="path3937"
           inkscape:connector-curvature="0" />
        <path
           d="m 2485.4773,8.8445077 -0.5969,-13.0644968 17.38,-11.6686729 -17.8774,0.781592 -0.5825,-12.74842 36.7351,-1.678351 0.5921,12.959138 -17.5157,11.78045 18.0179,-0.7880103 0.5825,12.7484202 z m -8.8013,-43.2019217 2.2993,50.326408 50.3616,-2.300913 -2.2993,-50.326408 z"
           style="font-weight:normal;font-family:Thunder Lord;-inkscape-font-specification:Thunder Lord"
           id="path3939"
           inkscape:connector-curvature="0" />
        <path
           d="m 2515.819,42.902297 -1.9054,-13.613399 -3.5165,0.492181 1.9054,13.613399 -9.3309,1.305985 -1.9054,-13.6134 -3.8647,0.540912 1.9054,13.6134 -9.8532,1.379081 -3.7035,-26.460828 36.4184,-5.097239 3.7036,26.460827 z m -37.9687,-28.551766 5.5943,39.969776 49.9274,-6.987993 -5.5943,-39.9697769 z"
           style="font-weight:normal;font-family:Thunder Lord;-inkscape-font-specification:Thunder Lord"
           id="path3941"
           inkscape:connector-curvature="0" />
        <path
           d="m 2522.5058,76.950264 c 0.4493,-1.077751 0.7379,-2.292576 0.8658,-3.64448 0.1278,-1.351946 0.028,-2.602849 -0.2978,-3.752713 -0.5249,-1.848845 -1.3397,-2.616455 -2.4444,-2.302832 -0.9921,0.281594 -1.361,2.286642 -1.1065,6.015151 0.012,0.556955 0.032,1.014142 0.06,1.371565 0.1339,2.617571 -0.4381,4.850848 -1.7161,6.699838 -1.2556,1.842532 -3.0896,3.106221 -5.502,3.791072 -3.9006,1.107198 -7.4797,0.600455 -10.7373,-1.520231 -3.2577,-2.120748 -5.5265,-5.435775 -6.8065,-9.945091 -1.3057,-4.599545 -1.2923,-9.573479 0.04,-14.921818 l 10.4412,2.408277 c -0.3823,1.399772 -0.6649,2.893085 -0.8479,4.479943 -0.183,1.586833 -0.1017,2.989017 0.2439,4.206555 0.2496,0.879303 0.6026,1.522176 1.0591,1.92862 0.4726,0.377459 0.9907,0.486195 1.5544,0.32621 0.9695,-0.275226 1.3615,-1.7265 1.1761,-4.353825 -0.048,-0.425055 -0.079,-0.79373 -0.095,-1.106023 -0.022,-0.334868 -0.031,-0.624629 -0.028,-0.869283 -0.1465,-2.833327 0.3968,-5.168064 1.6298,-7.004219 1.2329,-1.836166 3.0782,-3.103056 5.5358,-3.800673 3.7652,-1.068831 7.2124,-0.597727 10.3415,1.413314 3.1579,2.02718 5.3609,5.239074 6.609,9.635691 1.1456,4.035844 1.1022,8.689398 -0.1302,13.960675 z m 1.3538,7.472919 c 1.9241,0.59885 6.3983,1.98441 13.4226,4.156683 l 1.6539,-7.047639 c 1.4919,-6.416937 1.505,-12.206987 0.039,-17.370167 -1.7153,-6.042523 -4.8658,-10.532527 -9.4516,-13.470026 -4.8302,-3.11176 -10.1087,-3.854819 -15.8356,-2.229179 -3.5849,1.017632 -6.4567,2.916984 -8.6152,5.698062 -1.6155,-0.369778 -6.6712,-1.529366 -15.167,-3.478768 l -1.6046,6.448916 c -1.6144,6.500398 -1.6056,12.625302 0.026,18.37473 1.7409,6.132676 4.9428,10.71774 9.6057,13.755206 4.9877,3.237552 10.4126,4.024323 16.2748,2.360317 3.9682,-1.12647 7.048,-3.279797 9.2395,-6.459989 0.048,-0.08687 0.1097,-0.213934 0.1841,-0.381183 0.097,-0.173713 0.1727,-0.292701 0.2276,-0.356963 z"
           style="font-weight:normal;font-family:Thunder Lord;-inkscape-font-specification:Thunder Lord"
           id="path3943"
           inkscape:connector-curvature="0" />
        <path
           d="m 2539.3063,115.02295 c 0.2858,-1.13213 0.3925,-2.3762 0.3201,-3.73221 -0.073,-1.35604 -0.3547,-2.57872 -0.8467,-3.66804 -0.7912,-1.75149 -1.7101,-2.39084 -2.7567,-1.91807 -0.9399,0.42452 -1.0096,2.46201 -0.2093,6.1125 0.094,0.54914 0.1809,0.99839 0.2616,1.34774 0.5176,2.56937 0.2804,4.86251 -0.7116,6.87943 -0.9707,2.00723 -2.5988,3.52704 -4.8842,4.55943 -3.6953,1.66912 -7.31,1.69456 -10.8441,0.0763 -3.5343,-1.6183 -6.2662,-4.56338 -8.1959,-8.83525 -1.9682,-4.35734 -2.6869,-9.2791 -2.1561,-14.76527 l 10.6819,0.84563 c -0.1722,1.44079 -0.232,2.95944 -0.1795,4.55595 0.052,1.59649 0.3392,2.97144 0.8603,4.12487 0.3762,0.833 0.82,1.41693 1.3313,1.75178 0.523,0.30381 1.0515,0.33511 1.5855,0.0939 0.9185,-0.41489 1.0927,-1.90805 0.5227,-4.47949 -0.1097,-0.41343 -0.1951,-0.77344 -0.2565,-1.08005 -0.071,-0.32799 -0.1227,-0.61324 -0.1551,-0.85578 -0.5618,-2.78092 -0.368,-5.17018 0.5814,-7.167783 0.9493,-1.997604 2.588,-3.522236 4.9162,-4.5739 3.567,-1.611259 7.046,-1.652536 10.4369,-0.123832 3.4219,1.54042 6.0735,4.393175 7.955,8.558275 1.727,3.82334 2.3688,8.43261 1.9256,13.82785 z m 2.4388,7.19235 c 1.9913,0.30919 6.6206,1.02129 13.8881,2.13629 l 0.5989,-7.2143 c 0.5313,-6.56661 -0.3077,-12.29556 -2.5171,-17.186876 -2.5858,-5.724336 -6.3627,-9.701858 -11.3308,-11.932578 -5.2356,-2.36711 -10.566,-2.325339 -15.9913,0.125313 -3.3961,1.534083 -5.9571,3.835337 -7.6829,6.903767 -1.6523,-0.128027 -6.8236,-0.531044 -15.5138,-1.209053 l -0.6382,6.614837 c -0.6403,6.6672 0.2697,12.72413 2.73,18.17081 2.6243,5.80975 6.4661,9.87374 11.5252,12.19198 5.4098,2.46836 10.8915,2.44829 16.445,-0.0602 3.7592,-1.69813 6.4886,-4.28121 8.1882,-7.74926 0.035,-0.0931 0.077,-0.22776 0.1261,-0.40413 0.07,-0.18608 0.1277,-0.31493 0.1726,-0.38657 z"
           style="font-weight:normal;font-family:Thunder Lord;-inkscape-font-specification:Thunder Lord"
           id="path3945"
           inkscape:connector-curvature="0" />
      </g>
      <g
         id="g4979"
         transform="matrix(0.22210821,0.0095329,-0.00983294,0.20983266,493.14104,310.61539)"
         style="fill:#ffffff;fill-opacity:1;stroke:none">
        <path
           inkscape:connector-curvature="0"
           id="path2993"
           d="m -482.59411,110.88324 c -16.73809,-3.96486 -35.84771,-25.138343 -26.33221,-42.076984 12.81274,-10.036559 32.20012,-7.109732 45.16616,1.41626 9.91732,6.01405 19.58585,13.875651 31.59354,14.857897 7.76818,11.673149 -16.17017,18.355307 -24.34673,22.777357 -8.36101,2.78779 -17.30082,3.88823 -26.08076,3.02547 z"
           style="fill:#ffffff;fill-opacity:1;stroke:none" />
        <path
           inkscape:connector-curvature="0"
           id="path2995"
           d="m -345.0941,110.85549 c -13.6898,-2.8417 -37.71237,-10.55741 -38.79222,-23.679006 12.554,-5.595232 25.28003,-10.495423 36.4649,-19.054721 12.36745,-7.270828 30.07449,-8.865275 41.71754,0.49052 9.67443,14.853894 -6.94251,34.821587 -21.14494,40.245017 -5.79795,2.40075 -12.09949,2.35513 -18.24528,1.99819 z"
           style="fill:#ffffff;fill-opacity:1;stroke:none" />
      </g>
      <path
         style="fill:#b3026e;fill-opacity:1;fill-rule:evenodd;stroke:none"
         d="m 488.64613,693.4791 c -2.60105,-5.45737 -3.67339,-11.67067 -7.45137,-16.53256 -4.54463,-8.2405 -9.37631,-16.50186 -16.24858,-23.05019 -6.4833,-6.51747 -14.16402,-11.71064 -21.99839,-16.43869 -2.10364,-1.85012 -6.53101,-0.30083 -4.08068,2.63373 2.14276,2.35495 5.11147,3.76698 7.21572,6.18592 5.34759,5.19348 10.17634,10.89207 15.18992,16.39664 4.55732,5.83084 8.70808,11.97487 13.50636,17.61739 3.78857,4.76132 7.46116,9.71409 12.06032,13.72779 0.61623,0.36798 1.72119,0.40297 1.8067,-0.54003 z"
         id="path3138"
         inkscape:connector-curvature="0" />
      <path
         style="fill:#b3026e;fill-opacity:1;stroke:none"
         d="m 503.55821,710.36022 c 0,-0.42218 0,-0.84438 0,-1.26657 -0.90877,-3.32301 -1.68865,-3.4509 -2.17418,-5.13695 -0.85826,-2.30973 -1.24498,-5.63793 -1.41488,-8.43619 0.34849,-3.24606 -0.33686,-4.59796 -2.04974,-6.79817 -1.04048,-1.46677 -1.41027,-2.32694 -1.64593,1.96354 0.91689,7.88349 -3.13037,9.66932 1.72407,14.85621 1.89512,1.54315 1.351,5.14157 2.60561,6.17049 0.88579,0.64485 1.41212,1.86937 2.61044,2.00507 0.82808,-0.77618 0.35058,-1.96519 0.32159,-2.93439 -0.004,-0.14144 0.002,-0.28342 0.0231,-0.42347 z"
         id="path3452"
         inkscape:connector-curvature="0"
         sodipodi:nodetypes="cccccccccccc" />
    </g>
  </g>
</svg>
