<svg width="76" height="75" viewBox="0 0 76 75" fill="none" xmlns="http://www.w3.org/2000/svg">
<path d="M74.457 47.1477C66.4165 36.0054 43.6816 43.8432 44.9003 26.3836C45.9443 11.4267 38.2301 -4.8732 20.7425 1.3674C7.2527 6.18153 -3.27923 23.9587 0.944853 38.5691C3.43608 47.186 14.336 51.8345 15.3259 60.6677C15.9663 66.3823 15.8447 73.0266 22.6605 74.4745C31.0699 76.2609 37.1168 68.1941 46.0075 70.8612C56.2936 73.9471 65.248 67.1494 72.3456 59.6377C75.6856 56.1025 77.4765 51.332 74.457 47.1477Z" fill="url(#paint0_linear_343_430)"/>
<path d="M70.3423 34.6789L61.5205 30.3695C59.9775 29.6157 58.5804 31.6214 59.8224 32.8074L61.0101 33.9418H50.5684V38.1176H61.0102L59.8224 39.252C58.5804 40.438 59.9775 42.4437 61.5205 41.6899L70.3423 37.3805C71.4669 36.8311 71.4669 35.2283 70.3423 34.6789Z" fill="#8282FF"/>
<path d="M5.65787 34.6789L14.4797 30.3695C16.0227 29.6157 17.4198 31.6214 16.1778 32.8074L14.9901 33.9418H25.4318V38.1176H14.99L16.1778 39.252C17.4198 40.438 16.0227 42.4437 14.4797 41.6899L5.65787 37.3805C4.53331 36.8311 4.53331 35.2283 5.65787 34.6789Z" fill="#8282FF"/>
<path d="M59.9137 12.2052L50.6286 15.3959C49.0046 15.954 49.4349 18.36 51.1517 18.3205L52.7936 18.2828L45.4102 25.6663L48.363 28.6191L55.7464 21.2357L55.7087 22.8777C55.6692 24.5946 58.0753 25.0249 58.6334 23.4008L61.8241 14.1156C62.2308 12.9318 61.0974 11.7985 59.9137 12.2052Z" fill="#FFAA66"/>
<path d="M14.1752 14.1155L17.3659 23.4007C17.924 25.0247 20.33 24.5944 20.2905 22.8776L20.2528 21.2357L27.6362 28.6191L30.5891 25.6663L23.2057 18.2828L24.8477 18.3205C26.5645 18.36 26.9948 15.954 25.3708 15.3959L16.0856 12.2052C14.9018 11.7985 13.7685 12.9318 14.1752 14.1155Z" fill="#FFAA66"/>
<path d="M39.3508 3.68754L43.6603 12.5093C44.414 14.0523 42.4083 15.4494 41.2223 14.2074L40.088 13.0198V23.4615H35.9121V13.0197L34.7778 14.2074C33.5918 15.4494 31.5861 14.0523 32.3398 12.5093L36.6493 3.68754C37.1986 2.56298 38.8015 2.56298 39.3508 3.68754Z" fill="#8282FF"/>
<path d="M55.8374 32.9737L53.3545 32.6288C52.9526 30.8063 52.2354 29.1024 51.2616 27.5777L52.7738 25.5778C53.0859 25.1648 53.0459 24.585 52.6798 24.2188L49.8107 21.3497C49.4446 20.9836 48.8647 20.9435 48.4517 21.2557L46.4518 22.7678C44.9271 21.7941 43.2232 21.0768 41.4006 20.675L41.0558 18.1921C40.9846 17.6794 40.5462 17.2976 40.0285 17.2976H35.971C35.4534 17.2976 35.0149 17.6794 34.9436 18.1921L34.5988 20.675C32.7763 21.0768 31.0724 21.7941 29.5476 22.7678L27.5477 21.2557C27.1348 20.9435 26.5548 20.9836 26.1888 21.3497L23.3196 24.2188C22.9536 24.5849 22.9135 25.1648 23.2257 25.5778L24.7378 27.5777C23.764 29.1023 23.0468 30.8063 22.645 32.6288L20.1621 32.9737C19.6494 33.0449 19.2676 33.4832 19.2676 34.001V38.0585C19.2676 38.5761 19.6494 39.0146 20.1621 39.0859L22.645 39.4307C23.0468 41.2532 23.764 42.9573 24.7378 44.4819L23.2263 46.4816C22.9141 46.8946 22.9542 47.4745 23.3202 47.8406L26.1894 50.7097C26.5554 51.0758 27.1354 51.1158 27.5483 50.8037L29.5482 49.2915C31.073 50.2653 32.7769 50.9825 34.5994 51.3844L34.9442 53.8673C35.0155 54.38 35.4538 54.7618 35.9715 54.7618H40.0291C40.5467 54.7618 40.9852 54.38 41.0564 53.8673L41.4012 51.3844C43.2238 50.9825 44.9278 50.2653 46.4524 49.2915L48.4523 50.8037C48.8653 51.1158 49.4452 51.0758 49.8113 50.7097L52.6804 47.8406C53.0465 47.4745 53.0865 46.8946 52.7744 46.4816L51.2622 44.4817C52.236 42.9571 52.9532 41.2531 53.3551 39.4305L55.838 39.0857C56.3507 39.0145 56.7325 38.5761 56.7325 38.0584V34.0008C56.7319 33.4832 56.3501 33.0448 55.8374 32.9737Z" fill="#FF6C6C"/>
<path d="M38 47.5561C44.3658 47.5561 49.5263 42.3955 49.5263 36.0297C49.5263 29.6639 44.3658 24.5034 38 24.5034C31.6341 24.5034 26.4736 29.6639 26.4736 36.0297C26.4736 42.3955 31.6341 47.5561 38 47.5561Z" fill="#FF9393"/>
<path d="M37.9996 45.3125C43.1264 45.3125 47.2825 41.1564 47.2825 36.0297C47.2825 30.9029 43.1264 26.7468 37.9996 26.7468C32.8729 26.7468 28.7168 30.9029 28.7168 36.0297C28.7168 41.1564 32.8729 45.3125 37.9996 45.3125Z" fill="white"/>
<path d="M35.5215 36.7804C35.1116 36.7804 34.7793 36.448 34.7793 36.0382V36.0211C34.7793 35.6113 35.1116 35.2789 35.5215 35.2789C35.9313 35.2789 36.2637 35.6113 36.2637 36.0211V36.0382C36.2637 36.4482 35.9313 36.7804 35.5215 36.7804Z" fill="#9393FF"/>
<path d="M38 36.7804C37.5902 36.7804 37.2578 36.448 37.2578 36.0382V36.0211C37.2578 35.6113 37.5902 35.2789 38 35.2789C38.4098 35.2789 38.7422 35.6113 38.7422 36.0211V36.0382C38.7422 36.4482 38.4098 36.7804 38 36.7804Z" fill="#9393FF"/>
<path d="M40.4785 36.7804C40.0687 36.7804 39.7363 36.448 39.7363 36.0382V36.0211C39.7363 35.6113 40.0687 35.2789 40.4785 35.2789C40.8884 35.2789 41.2207 35.6113 41.2207 36.0211V36.0382C41.2207 36.4482 40.8884 36.7804 40.4785 36.7804Z" fill="#9393FF"/>
<path d="M59.8841 50.5008V69.583C59.8841 69.9928 59.5518 70.3252 59.142 70.3252H38V45.4723L59.8841 50.5008Z" fill="#FFAA66"/>
<path d="M59.8841 50.5008V54.0639H43.3898C42.9816 54.0639 42.5912 53.8946 42.3106 53.5978L38 49.0348V45.4723L59.8841 50.5008Z" fill="#FF9C33"/>
<path d="M56.5738 63.4094V66.5014C56.5738 66.9126 56.2413 67.2436 55.8316 67.2436H53.4521C53.0425 67.2436 52.71 66.9126 52.71 66.5014V63.4094L53.452 62.6672H55.8315L56.5738 63.4094Z" fill="#FFF2ED"/>
<path d="M56.5738 63.4092V61.9454C56.5738 61.5356 56.2414 61.2032 55.8316 61.2032H53.4521C53.0423 61.2032 52.71 61.5356 52.71 61.9454V63.4092H56.5738Z" fill="#FF4D4D"/>
<path d="M50.4259 67.2441H45.9033C45.4935 67.2441 45.1611 66.9118 45.1611 66.502C45.1611 66.0921 45.4935 65.7598 45.9033 65.7598H50.4259C50.8358 65.7598 51.1681 66.0921 51.1681 66.502C51.1681 66.9118 50.8359 67.2441 50.4259 67.2441Z" fill="#FFF2ED"/>
<path d="M50.4259 64.5645H48.5752C48.1654 64.5645 47.833 64.2321 47.833 63.8223C47.833 63.4124 48.1654 63.0801 48.5752 63.0801H50.4259C50.8358 63.0801 51.1681 63.4124 51.1681 63.8223C51.1681 64.2321 50.8359 64.5645 50.4259 64.5645Z" fill="#FFF2ED"/>
<path d="M38.0004 45.4723V70.3252H16.8584C16.4486 70.3252 16.1162 69.9928 16.1162 69.583V50.5008L38.0004 45.4723Z" fill="#FF8A00"/>
<path d="M38.0004 45.4723V70.3252H16.8584C16.4487 70.3252 16.1162 69.9927 16.1162 69.583V46.2145C16.1162 45.8048 16.4487 45.4723 16.8584 45.4723H38.0004Z" fill="#FF8A00"/>
<path d="M38.0004 45.4723V49.0348L33.6897 53.5978C33.4092 53.8946 33.0188 54.0639 32.6106 54.0639H16.1162V50.5008L38.0004 45.4723Z" fill="#FF7300"/>
<path d="M63.6876 49.4992L60.3229 45.9377C60.0425 45.6408 59.6523 45.4727 59.2439 45.4727H38L42.3106 50.0356C42.591 50.3325 42.9813 50.5007 43.3896 50.5007H63.2559C63.7768 50.5007 64.0453 49.8778 63.6876 49.4992Z" fill="#FFF2ED"/>
<path d="M33.6897 50.0359L38.0003 45.4729H16.7564C16.348 45.4729 15.9578 45.6411 15.6774 45.938L12.3127 49.4994C11.955 49.8781 12.2235 50.5009 12.7444 50.5009H32.6105C33.0189 50.5009 33.4091 50.3327 33.6897 50.0359Z" fill="#FFD5BA"/>
<path d="M22.0601 61.4523L23.5922 64.5887C23.8602 65.1374 23.1472 65.634 22.7255 65.1924L22.3222 64.7701V66.5527C22.3222 66.9627 21.9898 67.2951 21.5799 67.2951C21.1699 67.2951 20.8375 66.9627 20.8375 66.5527V64.7701L20.4342 65.1924C20.0125 65.634 19.2994 65.1372 19.5675 64.5887L21.0997 61.4523C21.2949 61.0524 21.8647 61.0524 22.0601 61.4523Z" fill="#FFE7DB"/>
<path d="M67.6299 18.4433C67.5616 18.4433 67.4933 18.4339 67.427 18.4151C65.4809 17.862 65.335 15.0697 65.3298 14.9511C65.3148 14.614 65.5293 14.3092 65.8517 14.2094L67.4103 13.7265C67.5533 13.6823 67.7066 13.6823 67.8496 13.7265L69.4081 14.2094C69.7305 14.3092 69.9449 14.614 69.93 14.9513C69.9249 15.0699 69.7788 17.862 67.8329 18.4151C67.7664 18.4338 67.6981 18.4433 67.6299 18.4433ZM66.8866 15.4426C66.9901 15.965 67.2122 16.6273 67.63 16.8948C68.0474 16.6274 68.2698 15.9654 68.3732 15.4426L67.63 15.2124L66.8866 15.4426Z" fill="#FF6C6C"/>
<path d="M9.59668 65.715C9.5284 65.715 9.46011 65.7056 9.39376 65.6868C7.44775 65.1336 7.30198 62.3415 7.29664 62.2229C7.28165 61.8858 7.49614 61.5809 7.81854 61.481L9.37714 60.9983C9.52008 60.954 9.67327 60.954 9.81622 60.9983L11.3748 61.481C11.6972 61.5809 11.9117 61.8856 11.8967 62.2229C11.8914 62.3415 11.7456 65.1336 9.79959 65.6868C9.73339 65.7056 9.66496 65.715 9.59668 65.715ZM8.85345 62.7143C8.95691 63.2367 9.17897 63.899 9.59668 64.1665C10.0142 63.8992 10.2363 63.2371 10.3399 62.7143L9.59668 62.4841L8.85345 62.7143Z" fill="#FF9C33"/>
<path d="M28.4523 5.7988C28.2623 5.7988 28.0724 5.72636 27.9274 5.58149C27.6375 5.29159 27.6375 4.82164 27.9274 4.53189L29.4118 3.04751C29.7017 2.75776 30.1715 2.75776 30.4614 3.04751C30.7513 3.33741 30.7513 3.80736 30.4614 4.09711L28.977 5.58149C28.8321 5.72636 28.6423 5.7988 28.4523 5.7988Z" fill="#6C6CFF"/>
<path d="M7.74132 57.2681C7.55132 57.2681 7.36147 57.1957 7.21645 57.0508C6.92655 56.7609 6.92655 56.291 7.21645 56.0012L8.70082 54.5169C8.99072 54.2271 9.46053 54.2271 9.75042 54.5169C10.0403 54.8068 10.0403 55.2767 9.75042 55.5665L8.26605 57.0508C8.12117 57.1957 7.93132 57.2681 7.74132 57.2681Z" fill="#6C6CFF"/>
<path d="M65.2949 26.7049C65.105 26.7049 64.9149 26.6325 64.7702 26.4876C64.4803 26.1977 64.4803 25.7278 64.7702 25.438L66.2545 23.9536C66.5441 23.6639 67.0144 23.6639 67.304 23.9536C67.5939 24.2435 67.5939 24.7135 67.304 25.0032L65.8196 26.4876C65.6747 26.6325 65.4847 26.7049 65.2949 26.7049Z" fill="#FF9C33"/>
<path d="M5.65789 37.3806L14.4797 41.69C16.0227 42.4438 17.4198 40.4381 16.1778 39.2521L14.99 38.1177H19.2709C19.2989 38.6092 19.6697 39.0174 20.1628 39.0858L22.6457 39.4307C23.0475 41.2532 23.7647 42.9571 24.7385 44.4818L23.9895 45.4724H16.8581C16.8565 45.4724 16.8548 45.4728 16.8532 45.4728H16.7563C16.3479 45.4728 15.9577 45.641 15.6773 45.9379L12.3126 49.4993C11.9549 49.878 12.2234 50.5008 12.7443 50.5008H16.1161V69.5831C16.1161 69.9928 16.4486 70.3253 16.8582 70.3253H38.0002H59.1422C59.5518 70.3253 59.8843 69.9928 59.8843 69.5831V50.5008H63.2563C63.7771 50.5008 64.0456 49.878 63.6879 49.4993L60.3233 45.9379C60.0429 45.641 59.6526 45.4728 59.2443 45.4728H59.1471C59.1454 45.4728 59.1438 45.4724 59.1422 45.4724H52.0109L51.2619 44.4818C52.2357 42.9572 52.9529 41.2532 53.3547 39.4307L55.8376 39.0858C56.3306 39.0174 56.7015 38.6092 56.7295 38.1177H61.0104L59.8226 39.2521C58.5806 40.4381 59.9777 42.4438 61.5207 41.69L70.3425 37.3806C71.4671 36.8312 71.4671 35.2284 70.3425 34.679L61.5207 30.3696C59.9777 29.6158 58.5806 31.6215 59.8226 32.8075L61.0102 33.9419H56.7293C56.7014 33.4504 56.3306 33.0424 55.8375 32.9738L53.3546 32.629C52.9528 30.8064 52.2355 29.1025 51.2618 27.5778L52.7739 25.5779C53.0739 25.1811 53.0454 24.6319 52.7181 24.2647L55.7471 21.2356L55.7094 22.8777C55.6699 24.5945 58.0759 25.0248 58.6341 23.4008L61.8247 14.1155C62.2314 12.9319 61.0981 11.7984 59.9145 12.2053L50.6291 15.396C49.0051 15.9541 49.4354 18.3601 51.1522 18.3206L52.7941 18.2829L49.7651 21.3119C49.3978 20.9846 48.8488 20.956 48.452 21.2561L46.4521 22.7683C44.9273 21.7945 43.2234 21.0773 41.4009 20.6754L41.0561 18.1925C40.9877 17.6996 40.5795 17.3286 40.088 17.3007V13.0198L41.2223 14.2074C42.4084 15.4494 44.414 14.0523 43.6603 12.5093L39.3508 3.68766C38.8015 2.5631 37.1986 2.5631 36.6493 3.68766L32.3398 12.5094C31.5861 14.0525 33.5918 15.4496 34.7778 14.2076L35.9121 13.0198V17.3007C35.4207 17.3286 35.0125 17.6994 34.944 18.1925L34.5992 20.6754C32.7767 21.0773 31.0728 21.7945 29.548 22.7683L27.5481 21.2561C27.1513 20.9561 26.6021 20.9846 26.2349 21.3121L23.2059 18.2831L24.8479 18.3208C26.5647 18.3603 26.995 15.9542 25.371 15.3961L16.0858 12.2054C14.9021 11.7987 13.7687 12.9321 14.1755 14.1157L17.3662 23.4009C17.9243 25.025 20.3303 24.5946 20.2909 22.8778L20.2532 21.2359L23.2822 24.265C22.9549 24.6322 22.9262 25.1813 23.2264 25.5782L24.7385 27.5781C23.7647 29.1027 23.0475 30.8067 22.6457 32.6293L20.1628 32.9741C19.6698 33.0425 19.2989 33.4507 19.2709 33.9422H14.99L16.1777 32.8078C17.4196 31.6218 16.0225 29.6161 14.4795 30.3699L5.65775 34.6793C4.53333 35.2284 4.53333 36.8312 5.65789 37.3806Z" fill="url(#paint1_linear_343_430)"/>
<defs>
<linearGradient id="paint0_linear_343_430" x1="10.7336" y1="64.5167" x2="54.6501" y2="20.6003" gradientUnits="userSpaceOnUse">
<stop stop-color="white" stop-opacity="0"/>
<stop offset="0.2617" stop-color="#EDEDFF" stop-opacity="0.416"/>
<stop offset="0.629" stop-color="#D8D8FF"/>
</linearGradient>
<linearGradient id="paint1_linear_343_430" x1="38.0001" y1="70.3253" x2="38.0001" y2="2.84424" gradientUnits="userSpaceOnUse">
<stop stop-color="#FF4D4D" stop-opacity="0.4"/>
<stop offset="0.1463" stop-color="#FF4D4D" stop-opacity="0.342"/>
<stop offset="1" stop-color="#FF4D4D" stop-opacity="0"/>
</linearGradient>
</defs>
</svg>
