<svg width="82" height="86" viewBox="0 0 82 86" fill="none" xmlns="http://www.w3.org/2000/svg">
<path d="M53.9251 6.95928C37.5431 25.9419 1.94281 5.17966 0.786172 36.4C0.136637 53.9314 21.2085 45.6796 28.6028 59.5204C32.6168 67.0336 37.3075 82.3534 45.0948 85.0352C62.0271 90.8661 74.9608 69.1052 60.6449 51.0086C57.8492 47.4745 58.2394 43.4497 61.2758 39.9085C66.0351 34.3577 73.5067 31.7589 77.5823 25.8647C89.6934 8.34889 69.0057 -10.5153 53.9251 6.95928V6.95928Z" fill="url(#paint0_linear_343_363)"/>
<path d="M58.66 12.7068V69.9338C58.66 72.717 56.4042 74.9728 53.6209 74.9728H22.6357C19.8525 74.9728 17.5967 72.717 17.5967 69.9338V12.7068C17.5967 9.92355 19.8525 7.66772 22.6357 7.66772H53.6209C56.4042 7.66772 58.66 9.92355 58.66 12.7068Z" fill="#FF6C6C"/>
<path d="M56.1358 40.9995H35.2842V46.7104H39.297V48.8302C39.297 49.2938 39.6732 49.67 40.1368 49.67H44.0589C44.5241 49.67 44.8987 49.2938 44.8987 48.8302V46.7104H48.468V48.8302C48.468 49.2938 48.8443 49.67 49.3079 49.67H56.1358C56.6985 51.2674 57.5619 52.7203 58.6604 53.9633V36.7062C57.5619 37.9491 56.6985 39.4021 56.1358 40.9995Z" fill="#FF4D4D"/>
<path d="M55.3006 12.7068V69.9338C55.3006 70.8609 54.5464 71.6134 53.6209 71.6134H22.6357C21.7081 71.6134 20.9561 70.8614 20.9561 69.9338V12.7068C20.9561 11.7791 21.7081 11.0271 22.6357 11.0271H28.2991C28.8356 11.0271 29.3399 11.2834 29.6562 11.7168L31.5944 14.3735C31.9106 14.8071 32.4149 15.0632 32.9514 15.0632H43.304C43.8405 15.0632 44.3447 14.8069 44.661 14.3735L46.5992 11.7168C46.9155 11.2833 47.4197 11.0271 47.9562 11.0271H53.6213C54.5464 11.0271 55.3006 11.7796 55.3006 12.7068Z" fill="white"/>
<path d="M20.9541 33.8743H55.3004V52.1257H20.9541V33.8743Z" fill="#D9D9FF"/>
<path d="M35.2842 40.9995V46.7104H39.297V48.8302C39.297 49.2938 39.6732 49.6701 40.1368 49.6701H44.0589C44.5241 49.6701 44.8987 49.2938 44.8987 48.8302V46.7104H48.468V48.8302C48.468 49.2938 48.8443 49.6701 49.3079 49.6701H55.301V40.9995H35.2842Z" fill="#B3B3FF"/>
<path d="M40.9723 34.7141V51.2859C40.9723 51.7495 40.5961 52.1257 40.1325 52.1257H36.123C35.6578 52.1257 35.2832 51.7495 35.2832 51.2859V34.7141C35.2832 34.2505 35.6578 33.8743 36.123 33.8743H40.1325C40.5961 33.8743 40.9723 34.2505 40.9723 34.7141Z" fill="#6C6CFF"/>
<path d="M35.2832 40.9995V46.7104H39.296V48.8302C39.296 49.2938 39.6722 49.6701 40.1358 49.6701H40.9723V40.9995H35.2832Z" fill="#4D4DFF"/>
<path d="M55.3965 41.3033C55.3965 45.8267 57.6993 49.8126 61.1981 52.1491C61.4753 52.3338 61.8011 52.4329 62.1337 52.4329H68.9259C69.2601 52.4329 69.586 52.3338 69.8631 52.1491C73.3602 49.8126 75.6648 45.8267 75.6648 41.3033C75.6648 36.7799 73.3602 32.794 69.8631 30.4576C69.586 30.2728 69.2601 30.1737 68.9259 30.1737H62.1337C61.8011 30.1737 61.4753 30.2728 61.1981 30.4576C57.6993 32.794 55.3965 36.7799 55.3965 41.3033ZM64.8862 41.3033C64.8862 38.9803 66.2484 37.0957 67.9298 37.0957C69.6112 37.0957 70.9734 38.9803 70.9734 41.3033C70.9734 43.628 69.6112 45.5109 67.9298 45.5109C66.2484 45.5109 64.8862 43.628 64.8862 41.3033Z" fill="#FFAB66"/>
<path d="M59.0869 41.3034C59.0869 42.2663 59.5772 43.1151 60.3222 43.6124C60.3811 43.6517 60.4505 43.6729 60.5214 43.6729H61.4536C61.5248 43.6729 61.5942 43.6517 61.6531 43.6124C62.3978 43.1149 62.8884 42.2663 62.8884 41.3034C62.8884 40.3404 62.3978 39.4917 61.6531 38.9943C61.5942 38.955 61.5248 38.9338 61.4536 38.9338H60.5214C60.4505 38.9338 60.3811 38.955 60.3222 38.9943C59.5772 39.4917 59.0869 40.3404 59.0869 41.3034Z" fill="#FF6C6C"/>
<path d="M35.2832 36.9683V42.6792H39.2965V44.7988C39.2965 45.2626 39.6726 45.6386 40.1363 45.6386H44.0594C44.5232 45.6386 44.8992 45.2626 44.8992 44.7988V42.6792H48.4682V44.7988C48.4682 45.2626 48.8443 45.6386 49.3081 45.6386H57.7339V36.9683H35.2832Z" fill="#FFAB66"/>
<path d="M44.8996 42.6792V44.7988C44.8996 45.2626 44.5236 45.6386 44.0598 45.6386H40.1367C39.673 45.6386 39.2969 45.2626 39.2969 44.7988V42.6792H44.8996Z" fill="#FFC599"/>
<path d="M56.135 42.6792V45.6386H49.3076C48.8439 45.6386 48.4678 45.2626 48.4678 44.7988V42.6792H56.135Z" fill="#FF9D33"/>
<path d="M44.8994 40.1597V42.6792H48.4684V40.1597C48.4684 39.6959 48.0923 39.3198 47.6286 39.3198H45.7393C45.2753 39.3198 44.8994 39.6957 44.8994 40.1597Z" fill="#FF6C6C"/>
<path d="M38.4566 39.3198H35.2832V42.6792H39.2965V40.1597C39.2965 39.6957 38.9204 39.3198 38.4566 39.3198Z" fill="#FF6C6C"/>
<path d="M50.7393 41.1675C51.2031 41.1675 51.5791 40.7915 51.5791 40.3276C51.5791 39.8638 51.2031 39.4878 50.7393 39.4878C50.2754 39.4878 49.8994 39.8638 49.8994 40.3276C49.8994 40.7915 50.2754 41.1675 50.7393 41.1675Z" fill="#FF8B00"/>
<path d="M53.5977 41.1675C54.0615 41.1675 54.4375 40.7915 54.4375 40.3276C54.4375 39.8638 54.0615 39.4878 53.5977 39.4878C53.1338 39.4878 52.7578 39.8638 52.7578 40.3276C52.7578 40.7915 53.1338 41.1675 53.5977 41.1675Z" fill="#FF8B00"/>
<path d="M20.9558 79.2926C27.74 79.2926 33.2397 73.793 33.2397 67.0087C33.2397 60.2245 27.74 54.7249 20.9558 54.7249C14.1716 54.7249 8.67188 60.2245 8.67188 67.0087C8.67188 73.793 14.1716 79.2926 20.9558 79.2926Z" fill="#FF9D33"/>
<path d="M20.9554 76.3626C15.7978 76.3626 11.6016 72.1666 11.6016 67.0088C11.6016 61.8509 15.7978 57.6549 20.9554 57.6549C26.1131 57.6549 30.3091 61.8509 30.3091 67.0088C30.3091 72.1666 26.1131 76.3626 20.9554 76.3626Z" fill="#FFAB66"/>
<path d="M19.0601 72.7706C18.6306 72.7706 18.2012 72.6068 17.8735 72.2791L14.6781 69.0838C14.0227 68.4286 14.0227 67.366 14.6781 66.7106C15.3333 66.0553 16.3957 66.0552 17.0513 66.7106L19.0601 68.7193L24.8916 62.8878C25.5472 62.2326 26.6096 62.2326 27.2648 62.8878C27.9202 63.5432 27.9202 64.6056 27.2648 65.261L20.2468 72.2791C19.919 72.6068 19.4895 72.7706 19.0601 72.7706Z" fill="white"/>
<path d="M39.9484 24.9432C39.4844 24.9432 39.1085 24.5671 39.1085 24.1034V21.283C39.1085 20.7391 38.6659 20.2965 38.1221 20.2965C37.5782 20.2965 37.1357 20.7389 37.1357 21.283V24.1034C37.1357 24.5671 36.7598 24.9432 36.2959 24.9432C35.832 24.9432 35.4561 24.5671 35.4561 24.1034V21.283C35.4561 19.8129 36.652 18.6168 38.1221 18.6168C39.5921 18.6168 40.7882 19.8129 40.7882 21.283V24.1034C40.7882 24.5671 40.4121 24.9432 39.9484 24.9432Z" fill="#B3B3FF"/>
<path d="M40.5229 29.528H35.707C35.1504 29.528 34.6992 29.0769 34.6992 28.5202V24.0844C34.6992 23.5277 35.1504 23.0765 35.707 23.0765H40.5229C41.0795 23.0765 41.5307 23.5277 41.5307 24.0844V28.5202C41.5307 29.0767 41.0795 29.528 40.5229 29.528Z" fill="#6C6CFF"/>
<path d="M38.1152 27.4799C38.5791 27.4799 38.9551 27.1039 38.9551 26.64C38.9551 26.1762 38.5791 25.8002 38.1152 25.8002C37.6514 25.8002 37.2754 26.1762 37.2754 26.64C37.2754 27.1039 37.6514 27.4799 38.1152 27.4799Z" fill="#2C27FF"/>
<path d="M42.8037 26.2382L41.4762 26.6239C41.1633 26.7148 40.8487 26.4862 40.8385 26.1606L40.7949 24.7789L40.0181 23.6356C39.835 23.3661 39.9551 22.9963 40.2616 22.8859L41.5622 22.4176L42.4096 21.3253C42.6094 21.0678 42.9982 21.0678 43.1979 21.3253L44.0453 22.4176L45.3459 22.8859C45.6524 22.9963 45.7725 23.3661 45.5895 23.6356L44.8126 24.7789L44.7691 26.1606C44.7588 26.4863 44.4442 26.7149 44.1313 26.6239L42.8037 26.2382Z" fill="#FFAB66"/>
<path d="M51.8446 65.6271H42.9375C42.4737 65.6271 42.0977 65.251 42.0977 64.7872C42.0977 64.3235 42.4737 63.9474 42.9375 63.9474H51.8446C52.3083 63.9474 52.6844 64.3235 52.6844 64.7872C52.6844 65.2512 52.3085 65.6271 51.8446 65.6271Z" fill="#FFAB66"/>
<path d="M51.8446 68.6067H42.9375C42.4737 68.6067 42.0977 68.2306 42.0977 67.7668C42.0977 67.3031 42.4737 66.927 42.9375 66.927H51.8446C52.3083 66.927 52.6844 67.3031 52.6844 67.7668C52.6844 68.2306 52.3085 68.6067 51.8446 68.6067Z" fill="#FFAB66"/>
<path d="M52.6844 56.8965C52.6844 55.3578 51.4326 54.1061 49.894 54.1061C48.3554 54.1061 47.1035 55.358 47.1035 56.8965C47.1035 57.6554 47.4089 58.3436 47.9022 58.8472C47.4091 59.3507 47.1035 60.0389 47.1035 60.7978C47.1035 61.2616 47.4794 61.6376 47.9434 61.6376C48.4073 61.6376 48.7832 61.2616 48.7832 60.7978C48.7832 60.1854 49.2816 59.687 49.894 59.687C50.5064 59.687 51.0048 60.1854 51.0048 60.7978C51.0048 61.2616 51.3807 61.6376 51.8446 61.6376C52.3085 61.6376 52.6844 61.2616 52.6844 60.7978C52.6844 60.0389 52.3791 59.3507 51.8858 58.8472C52.3791 58.3436 52.6844 57.6553 52.6844 56.8965ZM49.894 55.7856C50.5064 55.7856 51.0048 56.284 51.0048 56.8964C51.0048 57.5088 50.5064 58.0072 49.894 58.0072C49.2816 58.0072 48.7832 57.5088 48.7832 56.8964C48.7832 56.284 49.2816 55.7856 49.894 55.7856Z" fill="#FF6C6C"/>
<path d="M42.8027 13.0902C43.2666 13.0902 43.6426 12.7142 43.6426 12.2504C43.6426 11.7865 43.2666 11.4105 42.8027 11.4105C42.3389 11.4105 41.9629 11.7865 41.9629 12.2504C41.9629 12.7142 42.3389 13.0902 42.8027 13.0902Z" fill="#FF4D4D"/>
<path d="M39.5811 13.0902C40.0449 13.0902 40.4209 12.7142 40.4209 12.2504C40.4209 11.7865 40.0449 11.4105 39.5811 11.4105C39.1172 11.4105 38.7412 11.7865 38.7412 12.2504C38.7412 12.7142 39.1172 13.0902 39.5811 13.0902Z" fill="#FF4D4D"/>
<path d="M7.44824 55.6312C6.98448 55.6312 6.6084 55.2551 6.6084 54.7914C6.6084 54.2819 6.19402 53.8676 5.68457 53.8676C5.22081 53.8676 4.84473 53.4915 4.84473 53.0277C4.84473 52.5639 5.22081 52.1879 5.68457 52.1879C6.19402 52.1879 6.6084 51.7735 6.6084 51.264C6.6084 50.8003 6.98448 50.4242 7.44824 50.4242C7.912 50.4242 8.28809 50.8003 8.28809 51.264C8.28809 51.7735 8.70246 52.1879 9.21191 52.1879C9.67568 52.1879 10.0518 52.5639 10.0518 53.0277C10.0518 53.4915 9.67568 53.8676 9.21191 53.8676C8.70246 53.8676 8.28809 54.2819 8.28809 54.7914C8.28809 55.2551 7.912 55.6312 7.44824 55.6312Z" fill="#FF6C6C"/>
<path d="M67.9297 64.6021C67.4659 64.6021 67.0898 64.226 67.0898 63.7622C67.0898 63.2528 66.6755 62.8384 66.166 62.8384C65.7023 62.8384 65.3262 62.4623 65.3262 61.9985C65.3262 61.5348 65.7023 61.1587 66.166 61.1587C66.6755 61.1587 67.0898 60.7443 67.0898 60.2349C67.0898 59.7711 67.4659 59.395 67.9297 59.395C68.3934 59.395 68.7695 59.7711 68.7695 60.2349C68.7695 60.7443 69.1839 61.1587 69.6934 61.1587C70.1571 61.1587 70.5332 61.5348 70.5332 61.9985C70.5332 62.4623 70.1571 62.8384 69.6934 62.8384C69.1839 62.8384 68.7695 63.2528 68.7695 63.7622C68.7695 64.2261 68.3934 64.6021 67.9297 64.6021Z" fill="#FF9D33"/>
<path d="M10.7695 21.599C10.3058 21.599 9.92969 21.2229 9.92969 20.7592C9.92969 20.2497 9.51531 19.8353 9.00586 19.8353C8.5421 19.8353 8.16602 19.4592 8.16602 18.9955C8.16602 18.5317 8.5421 18.1556 9.00586 18.1556C9.51531 18.1556 9.92969 17.7413 9.92969 17.2318C9.92969 16.768 10.3058 16.392 10.7695 16.392C11.2333 16.392 11.6094 16.768 11.6094 17.2318C11.6094 17.7413 12.0238 18.1556 12.5332 18.1556C12.997 18.1556 13.373 18.5317 13.373 18.9955C13.373 19.4592 12.997 19.8353 12.5332 19.8353C12.0239 19.8353 11.6094 20.2497 11.6094 20.7592C11.6094 21.2229 11.2335 21.599 10.7695 21.599Z" fill="#FF6C6C"/>
<path d="M10.0851 48.3337C9.87009 48.3337 9.65525 48.2517 9.49115 48.0878C9.16311 47.7597 9.16311 47.2279 9.49115 46.9001L11.1708 45.2204C11.4989 44.8925 12.0305 44.8925 12.3585 45.2204C12.6866 45.5484 12.6866 46.0802 12.3585 46.4081L10.6789 48.0878C10.5149 48.2517 10.3001 48.3337 10.0851 48.3337Z" fill="#FF9D33"/>
<path d="M65.3263 23.8075C65.1113 23.8075 64.8965 23.7255 64.7324 23.5615C64.4043 23.2335 64.4043 22.7017 64.7324 22.3738L66.412 20.6941C66.7401 20.3663 67.2717 20.3663 67.5998 20.6941C67.9278 21.0222 67.9278 21.554 67.5998 21.8819L65.9201 23.5615C65.7561 23.7255 65.5413 23.8075 65.3263 23.8075Z" fill="#6C6CFF"/>
<path d="M53.6208 7.66772H22.6356C19.8524 7.66772 17.5966 9.92354 17.5966 12.7068V55.1938C12.446 56.6555 8.67188 61.3898 8.67188 67.0087C8.67188 73.793 14.1715 79.2926 20.9558 79.2926C24.7003 79.2926 28.0513 77.6149 30.3044 74.9728H53.6208C56.4041 74.9728 58.6599 72.717 58.6599 69.9337V12.7068C58.6599 9.92354 56.4041 7.66772 53.6208 7.66772Z" fill="url(#paint1_linear_343_363)"/>
<defs>
<linearGradient id="paint0_linear_343_363" x1="21.9684" y1="63.6156" x2="79.1545" y2="6.42934" gradientUnits="userSpaceOnUse">
<stop stop-color="#FFD9D9" stop-opacity="0"/>
<stop offset="0.9981" stop-color="#FFB3B3"/>
</linearGradient>
<linearGradient id="paint1_linear_343_363" x1="33.6658" y1="79.2926" x2="33.6658" y2="7.66772" gradientUnits="userSpaceOnUse">
<stop stop-color="#FF4D4D" stop-opacity="0.4"/>
<stop offset="0.1463" stop-color="#FF4D4D" stop-opacity="0.342"/>
<stop offset="1" stop-color="#FF4D4D" stop-opacity="0"/>
</linearGradient>
</defs>
</svg>
