<svg width="35" height="54" viewBox="0 0 35 54" fill="none" xmlns="http://www.w3.org/2000/svg">
<path fill-rule="evenodd" clip-rule="evenodd" d="M34.7475 35.8326V53.2037H17.2172C17.7394 46.1095 22.258 39.9161 28.8905 37.2035C30.7563 36.4389 32.7338 35.9761 34.7475 35.8326ZM16.5876 44.988L16.3828 45.4138C16.2472 45.7029 16.1181 45.9961 15.9955 46.2934C15.0786 48.4929 14.5324 50.8276 14.379 53.2037H0.15652C0.207817 51.8849 0.331301 50.5699 0.526424 49.2644C5.01924 49.0611 9.44221 48.0821 13.5974 46.3713C14.618 45.9495 15.6159 45.4883 16.5911 44.9876L16.5876 44.988ZM33.6518 18.9269C33.2103 20.8022 32.6145 22.6386 31.8705 24.4176C30.0543 28.75 27.3957 32.6859 24.046 36.0011C20.7004 39.3205 16.7285 41.9551 12.3565 43.7548C8.72205 45.2452 4.86457 46.1319 0.939121 46.3793C1.38067 44.504 1.97643 42.6676 2.72042 40.8886C6.39336 32.1425 13.4083 25.191 22.2344 21.5514C25.8689 20.061 29.7264 19.1743 33.6518 18.9269ZM10.0307 2.8322C14.2234 -0.948624 20.6305 -0.948624 24.8233 2.8322C27.5574 5.29774 28.7648 8.8434 28.3298 12.2576L34.591 12.2576C34.5397 13.5771 34.4162 14.8928 34.2211 16.1989C31.5185 16.3212 28.8412 16.7244 26.2322 17.3988L26.214 17.4255L26.1336 17.4244C24.4394 17.8671 22.7743 18.4244 21.1501 19.0934C20.1295 19.5154 19.1316 19.9769 18.1563 20.4779C18.3688 20.051 18.5673 19.6155 18.7519 19.1714C19.6684 16.9706 20.2146 14.6348 20.3685 12.2576L25.2068 12.2578C25.4183 11.0789 25.3589 9.84202 24.9948 8.63935C23.9921 5.32778 20.9161 3.05998 17.427 3.05998C13.9378 3.05998 10.8618 5.32778 9.85911 8.63935C9.49496 9.84202 9.43558 11.0789 9.64716 12.2578L17.5303 12.2576C17.3852 14.2524 16.9184 16.2111 16.1474 18.0593C15.1888 20.3443 13.7851 22.4196 12.0166 24.1665C10.2537 25.9184 8.15964 27.3088 5.85418 28.2582C3.98926 29.0223 2.01277 29.4849 0 29.6287V12.2576L6.52412 12.2576C6.08915 8.8434 7.29648 5.29774 10.0307 2.8322Z" fill="#2ED3C5"/>
</svg>
