<?xml version="1.0" encoding="UTF-8"?>
<svg width="50px" height="44px" viewBox="0 0 50 44" version="1.1" xmlns="http://www.w3.org/2000/svg" xmlns:xlink="http://www.w3.org/1999/xlink">
    <title>52D30911-B448-4806-82BB-3D5993B27828</title>
    <g id="Page-1" stroke="none" stroke-width="1" fill="none" fill-rule="evenodd">
        <g id="Z-Shop-Marketing-Updated" transform="translate(-1130.000000, -2203.000000)" fill="#90B5A1" fill-rule="nonzero">
            <g id="bar-chart-copy" transform="translate(1130.000000, 2203.000000)">
                <path d="M48.3260085,1.6316685 C47.4135585,0.6614685 46.1315085,0.1070685 44.7917085,0.1070685 C42.1236585,0.1070685 39.9638085,2.2669185 39.9638085,4.9349685 C39.9638085,5.3623185 40.0215585,5.7896685 40.1370585,6.2054685 L34.9049085,9.9130185 C33.0338085,8.0188185 29.9730585,7.9957185 28.0788585,9.8668185 C26.7390585,11.1950685 26.2886085,13.1701185 26.9354085,14.9488185 L22.1075085,19.0144185 C20.5829085,16.8314685 17.5799085,16.2886185 15.3854085,17.8132185 C14.5538085,18.3907185 13.9301085,19.2223185 13.5951585,20.1694185 L9.5873085,18.5408685 C9.1368585,15.9074685 6.6536085,14.1403185 4.0202085,14.5907685 C1.3868085,15.0412185 -0.3803415,17.5244685 0.0701085,20.1578685 C0.5205585,22.7912685 3.0038085,24.5584185 5.6372085,24.1079685 C7.3697085,23.8192185 8.8019085,22.6064685 9.3909585,20.9548185 L13.3988085,22.5833685 C13.8492585,25.2167685 16.3325085,26.9839185 18.9659085,26.5334685 C21.2874585,26.1407685 22.9853085,24.1310685 22.9853085,21.7748685 C22.9853085,21.6247185 22.9737585,21.4630185 22.9622085,21.3128685 L28.2290085,16.8661185 C30.2040585,18.6563685 33.2532585,18.5177685 35.0435085,16.5427185 C36.1869585,15.2837685 36.5796585,13.5166185 36.0945585,11.8996185 L41.2689585,8.2267185 C43.0938585,10.1786685 46.1430585,10.2710685 48.0950085,8.4577185 C50.0469585,6.6328185 50.1393585,3.5836185 48.3260085,1.6316685 Z M4.8287085,21.8788185 C3.4427085,21.8788185 2.3108085,20.7469185 2.3108085,19.3609185 C2.3108085,17.9749185 3.4427085,16.8430185 4.8287085,16.8430185 C6.2147085,16.8430185 7.3466085,17.9749185 7.3466085,19.3609185 C7.3466085,20.7469185 6.2147085,21.8788185 4.8287085,21.8788185 Z M18.1458585,24.3043185 C16.7598585,24.3043185 15.6279585,23.1724185 15.6279585,21.7864185 C15.6279585,20.4004185 16.7598585,19.2685185 18.1458585,19.2685185 C19.5318585,19.2685185 20.6637585,20.4004185 20.6637585,21.7864185 C20.6637585,23.1724185 19.5434085,24.3043185 18.1458585,24.3043185 Z M31.4745585,15.8266185 C30.0885585,15.8266185 28.9566585,14.6947185 28.9566585,13.3087185 C28.9566585,11.9227185 30.0885585,10.7908185 31.4745585,10.7908185 C32.8605585,10.7908185 33.9924585,11.9227185 33.9924585,13.3087185 C33.9924585,14.6947185 32.8605585,15.8266185 31.4745585,15.8266185 Z M44.7917085,7.4528685 C43.4057085,7.4528685 42.2738085,6.3209685 42.2738085,4.9349685 C42.2738085,3.5489685 43.4057085,2.4170685 44.7917085,2.4170685 C46.1777085,2.4170685 47.3096085,3.5489685 47.3096085,4.9349685 C47.3096085,6.3325185 46.1892585,7.4528685 44.7917085,7.4528685 Z" id="Shape"></path>
                <path d="M48.0257085,13.5974685 L41.5577085,13.5974685 C40.9224585,13.5974685 40.4027085,14.1172185 40.4027085,14.7524685 L40.4027085,42.2414685 C40.4027085,42.8767185 40.9224585,43.3964685 41.5577085,43.3964685 L48.0257085,43.3964685 C48.6609585,43.3964685 49.1807085,42.8767185 49.1807085,42.2414685 L49.1807085,14.7524685 C49.1807085,14.1172185 48.6609585,13.5974685 48.0257085,13.5974685 Z M46.8707085,41.2019685 L42.7127085,41.2019685 L42.7127085,15.9074685 L46.8707085,15.9074685 L46.8707085,41.2019685 Z" id="Shape"></path>
                <path d="M34.7432085,21.9134685 L28.2752085,21.9134685 C27.6399585,21.9134685 27.1202085,22.4332185 27.1202085,23.0684685 L27.1202085,42.2414685 C27.1202085,42.8767185 27.6399585,43.3964685 28.2752085,43.3964685 L34.7432085,43.3964685 C35.3784585,43.3964685 35.8982085,42.8767185 35.8982085,42.2414685 L35.8982085,23.0684685 C35.8982085,22.4332185 35.3784585,21.9134685 34.7432085,21.9134685 Z M33.5882085,41.2019685 L29.4302085,41.2019685 L29.4302085,24.2234685 L33.5882085,24.2234685 L33.5882085,41.2019685 Z" id="Shape"></path>
                <path d="M21.3452085,30.5759685 L14.8772085,30.5759685 C14.2419585,30.5759685 13.7222085,31.0957185 13.7222085,31.7309685 L13.7222085,42.3569685 C13.7222085,42.9922185 14.2419585,43.5119685 14.8772085,43.5119685 L21.3452085,43.5119685 C21.9804585,43.5119685 22.5002085,42.9922185 22.5002085,42.3569685 L22.5002085,31.7309685 C22.5002085,31.0957185 21.9804585,30.5759685 21.3452085,30.5759685 Z M20.1902085,41.2019685 L16.0322085,41.2019685 L16.0322085,32.8859685 L20.1902085,32.8859685 L20.1902085,41.2019685 Z" id="Shape"></path>
                <path d="M8.0627085,28.1504685 L1.5947085,28.1504685 C0.9594585,28.1504685 0.4397085,28.6702185 0.4397085,29.3054685 L0.4397085,42.3569685 C0.4397085,42.9922185 0.9594585,43.5119685 1.5947085,43.5119685 L8.0627085,43.5119685 C8.6979585,43.5119685 9.2177085,42.9922185 9.2177085,42.3569685 L9.2177085,29.3054685 C9.2177085,28.6702185 8.6979585,28.1504685 8.0627085,28.1504685 Z M6.9077085,41.2019685 L2.7497085,41.2019685 L2.7497085,30.4604685 L6.9077085,30.4604685 L6.9077085,41.2019685 Z" id="Shape"></path>
            </g>
        </g>
    </g>
</svg>