<?xml version="1.0" encoding="UTF-8"?>
<svg width="49px" height="49px" viewBox="0 0 49 49" version="1.1" xmlns="http://www.w3.org/2000/svg" xmlns:xlink="http://www.w3.org/1999/xlink">
    <title>C27DA65D-E972-4FB0-9865-317EA1938F67</title>
    <g id="Page-1" stroke="none" stroke-width="1" fill="none" fill-rule="evenodd">
        <g id="Z-Shop-Marketing-Updated" transform="translate(-260.000000, -2203.000000)" fill="#90B5A1" fill-rule="nonzero">
            <g id="doctor-3-copy" transform="translate(260.000000, 2203.000000)">
                <path d="M33.3029664,10.0913472 C32.9092157,10.0913472 32.5901664,10.4103965 32.5901664,10.8041472 C32.5901664,11.1978979 32.9092157,11.5169472 33.3029664,11.5169472 L45.09648,11.5169472 C46.2755462,11.5169472 47.23488,12.476281 47.23488,13.6553472 L47.23488,37.8563328 C47.23488,39.035399 46.2755462,39.9947328 45.09648,39.9947328 L27.1154822,39.9947328 C27.1130112,39.9947328 27.1106352,39.9943526 27.1081642,39.9943526 L21.559824,39.9947328 C21.557353,39.9947328 21.554977,39.9943526 21.5525059,39.9943526 L3.564,39.9947328 C2.38493376,39.9947328 1.4256,39.035399 1.4256,37.8563328 L1.4256,13.6553472 C1.4256,12.476281 2.38493376,11.5169472 3.564,11.5169472 L15.3361296,11.5169472 L15.3361296,12.2343091 C15.3361296,12.4726694 15.3462038,12.7087488 15.3642614,12.9425472 L3.84912,12.9425472 C3.2988384,12.9425472 2.8512,13.3901856 2.8512,13.9404672 L2.8512,35.8552222 C2.8512,36.2489729 3.17024928,36.5680222 3.564,36.5680222 C3.95775072,36.5680222 4.2768,36.2489729 4.2768,35.8552222 L4.2768,14.3681472 L15.5887459,14.3681472 C16.1979523,16.902769 17.8658093,19.0278634 20.091456,20.2347763 L20.091456,21.8317334 C20.091456,22.2059059 19.8528106,22.5374054 19.497361,22.6567757 L12.6176054,24.9700493 C10.390248,25.7182992 8.89374816,27.7987248 8.89374816,30.1468781 L8.89374816,37.1437229 L4.2768,37.1437229 L4.2768,34.9455427 C4.2768,34.551792 3.95775072,34.2327427 3.564,34.2327427 C3.17024928,34.2327427 2.8512,34.551792 2.8512,34.9455427 L2.8512,37.5714029 C2.8512,38.1216845 3.2988384,38.5693229 3.84912,38.5693229 L44.81136,38.5693229 C45.3616416,38.5693229 45.80928,38.1216845 45.80928,37.5714029 L45.80928,13.9404672 C45.80928,13.3901856 45.3616416,12.9425472 44.81136,12.9425472 L33.3029664,12.9425472 C33.3168422,12.737641 33.3242554,12.5314992 33.3242554,12.3241219 L33.3242554,4.30825824 C33.3243504,1.9326384 31.391712,0 29.0160922,0 L19.6444829,0 C17.268863,0 15.3362246,1.9326384 15.3362246,4.30825824 L15.3362246,10.0913472 L3.564,10.0913472 C1.59876288,10.0913472 1.08047971e-14,11.6901101 1.08047971e-14,13.6553472 L1.08047971e-14,37.8563328 C1.08047971e-14,39.8215699 1.59876288,41.4203328 3.564,41.4203328 L20.8395158,41.4203328 L20.8395158,44.38368 L19.9391069,44.38368 C18.131161,44.38368 16.6602269,45.8546141 16.6602269,47.66256 C16.6602269,48.2128416 17.1078653,48.66048 17.6581469,48.66048 L31.002143,48.66048 C31.5524246,48.66048 32.000063,48.2128416 32.000063,47.66256 C32.000063,45.8546141 30.529129,44.38368 28.721183,44.38368 L27.8207741,44.38368 L27.8207741,41.4203328 L45.09648,41.4203328 C47.0617171,41.4203328 48.66048,39.8215699 48.66048,37.8563328 L48.66048,13.6553472 C48.66048,11.6901101 47.0617171,10.0913472 45.09648,10.0913472 L33.3029664,10.0913472 Z M38.3410368,37.1435328 L10.3194432,37.1435328 L10.3194432,30.146688 C10.3194432,28.4115427 11.4255187,26.8742707 13.0718966,26.321233 L14.6822544,25.7797901 C14.5899706,26.2989936 14.5513843,26.8261805 14.5714378,27.3574541 C14.5897805,27.8432986 14.6557382,28.3247712 14.7682656,28.7967398 C13.2097046,29.2059821 12.0565843,30.626545 12.0565843,32.3116992 L12.0565843,34.6575715 C12.0565843,35.3211408 12.5965066,35.861063 13.2600758,35.861063 L13.9261162,35.861063 C14.3198669,35.861063 14.6389162,35.5420138 14.6389162,35.148263 C14.6389162,34.7545123 14.3198669,34.435463 13.9261162,34.435463 L13.4821843,34.435463 L13.4821843,32.3116992 C13.4821843,31.094617 14.4718358,30.1043952 15.688728,30.1034448 C15.6893933,30.1034448 15.6899635,30.1035398 15.6905338,30.1035398 C15.6913891,30.1035398 15.6923395,30.1034448 15.6931949,30.1034448 C16.9096118,30.1049654 17.8986931,31.0949021 17.8986931,32.3116042 L17.8986931,34.435368 L17.4547613,34.435368 C17.0610106,34.435368 16.7419613,34.7544173 16.7419613,35.148168 C16.7419613,35.5419187 17.0610106,35.860968 17.4547613,35.860968 L18.1208016,35.860968 C18.7843709,35.860968 19.3242931,35.3210458 19.3242931,34.6574765 L19.3242931,32.3116042 C19.3242931,30.4880717 17.9739648,28.9744646 16.220857,28.7168112 C16.0897968,28.2557722 16.0140499,27.7822829 15.9959923,27.3034714 C15.9694762,26.6035018 16.0655616,25.9115155 16.2798768,25.2424339 L19.4796835,24.1664861 L23.5025366,28.1851574 C24.002447,28.6844976 24.8160845,28.6844976 25.3160899,28.1850624 L29.2988362,24.2063078 L32.7978288,25.382713 C33.052441,26.0489434 33.1824557,26.7668755 33.1758029,27.4770144 C33.1698154,28.1145427 33.0512054,28.7576784 32.833849,29.3606122 C31.2655939,29.6010634 30.0605818,30.9584246 30.0605818,32.591687 C30.0605818,34.3942157 31.5281894,35.8606829 33.3321437,35.8606829 C35.1360979,35.8606829 36.6038006,34.3941206 36.6038006,32.591687 C36.6038006,31.1250298 35.6320166,29.8810512 34.2981302,29.4682925 C34.490016,28.8262973 34.5951302,28.1560752 34.6014979,27.4905101 C34.60644,26.9704512 34.551792,26.447256 34.442496,25.9355606 L35.5887734,26.3209478 C37.2349613,26.8739856 38.3410368,28.4112576 38.3410368,30.1464029 L38.3410368,37.1435328 Z M27.9285494,23.560511 L24.4094083,27.0759456 L20.8134749,23.4837187 C21.2527498,23.0605056 21.517056,22.4701171 21.517056,21.8315434 L21.517056,20.8534867 C22.3931347,21.1458298 23.3278531,21.3062573 24.2984966,21.3095837 C24.3092362,21.3095837 24.3198806,21.3096787 24.3306202,21.3096787 C25.3008835,21.3096787 26.2474819,21.1571395 27.143424,20.863561 L27.143424,21.8315434 C27.143424,22.5092736 27.4398538,23.1337814 27.9285494,23.560511 L27.9285494,23.560511 Z M33.3310982,30.7486714 L33.3318586,30.7486714 L33.332809,30.7486714 C34.3504022,30.7489565 35.1782957,31.5758045 35.1782957,32.5919722 C35.1782957,33.608425 34.3501171,34.435368 33.3322387,34.435368 C32.3143603,34.435368 31.4862768,33.608425 31.4862768,32.5919722 C31.4862768,31.5758995 32.3137901,30.7492416 33.3310982,30.7486714 Z M33.0915024,14.3681472 L44.38368,14.3681472 L44.38368,37.1435328 L39.7666368,37.1435328 L39.7666368,30.146688 C39.7666368,27.7985347 38.270137,25.7181091 36.0429696,24.9698592 L29.1627389,22.6565856 C28.8075744,22.5372154 28.568929,22.2057158 28.568929,21.8315434 L28.568929,20.2539744 C29.336377,19.8432115 30.0479414,19.3176403 30.6818582,18.6858144 C31.8920026,17.480137 32.7154291,15.9910502 33.0915024,14.3681472 L33.0915024,14.3681472 Z M16.7617296,4.30825824 C16.7617296,2.71871424 18.0548438,1.4256 19.6443878,1.4256 L29.0159971,1.4256 C30.6055411,1.4256 31.8986554,2.71871424 31.8986554,4.30825824 L31.8986554,8.58040128 C31.1743555,8.49790656 30.2816448,8.28074016 29.3657443,7.77294144 C28.5590448,7.32577824 27.8613562,6.72721632 27.2921616,5.99407776 C26.9264477,5.52258432 26.2515686,5.4106272 25.7560301,5.73918048 C24.7801594,6.38602272 23.7378557,6.93421344 22.6579162,7.36873632 C20.7861984,8.12183328 18.8058499,8.53829856 16.7617296,8.61185952 L16.7617296,4.30825824 Z M16.7617296,10.0395504 C18.9892771,9.96532416 21.1484909,9.51283872 23.1901402,8.69131296 C24.2795837,8.25298848 25.3337674,7.70764896 26.3269354,7.06898016 C26.984327,7.86436992 27.773064,8.52005088 28.6745184,9.0197712 C29.8513037,9.67203072 30.9967258,9.92873376 31.8987504,10.0139846 L31.8987504,12.3241219 C31.8987504,14.3468582 31.1092531,16.2475632 29.6756698,17.6761094 C29.0602858,18.2894026 28.3581302,18.7830403 27.597335,19.1474237 C27.5658768,19.1596838 27.535464,19.1738448 27.5064768,19.1902867 C26.5164451,19.6481894 25.4295677,19.8883555 24.3035338,19.8840423 L24.3034387,19.8840423 C20.1449635,19.8697277 16.7617296,16.4379283 16.7617296,12.2342141 C16.7617296,12.2249952 16.7613494,10.0469635 16.7617296,10.0395504 Z M22.2651158,41.4203328 L26.3952691,41.4203328 L26.3952691,44.38368 L22.2651158,44.38368 L22.2651158,41.4203328 Z M28.7212781,45.80928 C29.5960262,45.80928 30.3311606,46.4183914 30.5247571,47.23488 L18.1357229,47.23488 C18.3292243,46.4183914 19.0643587,45.80928 19.9392019,45.80928 L28.7212781,45.80928 Z" id="Shape"></path>
            </g>
        </g>
    </g>
</svg>