<?xml version="1.0" encoding="UTF-8"?>
<svg width="100px" height="100px" viewBox="0 0 100 100" version="1.1" xmlns="http://www.w3.org/2000/svg" xmlns:xlink="http://www.w3.org/1999/xlink">
    <title>CA59FA6D-BC74-4E93-8886-8ECB4DBDC4DB</title>
    <g id="Page-1" stroke="none" stroke-width="1" fill="none" fill-rule="evenodd">
        <g id="Z-Shop-Marketing-Updated" transform="translate(-670.000000, -5495.000000)">
            <g id="Group-31" transform="translate(670.000000, 5495.000000)">
                <circle id="Oval-Copy-3" fill="#EAF0EC" cx="50" cy="50" r="50"></circle>
                <g id="medical" transform="translate(13.000000, 8.000000)" fill="#000000" fill-rule="nonzero">
                    <path d="M67.241832,55.944 L61.992,55.944 L61.992,50.736 C62.0010184,50.3395389 61.8503809,49.9560762 61.5739288,49.6717579 C61.2974766,49.3874396 60.91839,49.2261056 60.521832,49.2239943 L55.817832,49.2239943 C54.9749545,49.2217353 54.2847333,49.8933745 54.264,50.736 L54.264,55.944 L48.929832,55.944 C48.0869545,55.9417353 47.3967333,56.6133745 47.376,57.456 L47.376,62.16 C47.3967333,63.0026255 48.0869545,63.6742647 48.929832,63.672 L54.264,63.672 L54.264,69.048 C54.2847333,69.8906255 54.9749545,70.5622647 55.817832,70.5600057 L60.521832,70.5600057 C60.91839,70.5578944 61.2974766,70.3965604 61.5739288,70.1122421 C61.8503809,69.8279238 62.0010184,69.4444611 61.992,69.048 L61.992,63.672 L67.241832,63.672 C67.63839,63.6698944 68.0174766,63.5085604 68.2939288,63.2242421 C68.5703809,62.9399238 68.7210184,62.5564611 68.712,62.16 L68.712,57.456 C68.7210184,57.0595389 68.5703809,56.6760762 68.2939288,56.3917579 C68.0174766,56.1074396 67.63839,55.9461056 67.241832,55.944 Z M66.36,61.32 L61.193832,61.32 C60.3509545,61.3177353 59.6607333,61.9893745 59.64,62.832 L59.64,68.208 L56.616,68.208 L56.616,62.832 C56.6250184,62.4355389 56.4743809,62.0520762 56.1979288,61.7677579 C55.9214766,61.4834396 55.54239,61.3221056 55.145832,61.32 L49.728,61.32 L49.728,58.296 L55.145832,58.296 C55.54239,58.2938944 55.9214766,58.1325604 56.1979288,57.8482421 C56.4743809,57.5639238 56.6250184,57.1804611 56.616,56.784 L56.616,51.576 L59.64,51.576 L59.64,56.784 C59.6607333,57.6266255 60.3509545,58.2982647 61.193832,58.296 L66.36,58.296 L66.36,61.32 Z" id="Shape"></path>
                    <path d="M58.43544,39.338544 C51.8418152,39.3403985 45.6667839,42.5701155 41.90424,47.984832 C41.587504,47.887392 41.287848,47.79264 41.005272,47.700576 L39.86388,44.463216 C43.39188,41.820072 44.358216,37.692816 44.621976,35.693616 C46.994472,35.050008 49.173264,32.262384 50.046192,28.568232 C50.516592,26.570208 49.827792,24.709944 48.331584,23.938992 C47.9169108,23.7255511 47.4573245,23.6140525 46.990944,23.613744 C47.068224,23.033976 47.148864,22.324848 47.23236,21.454104 C47.427576,19.416768 47.55156,17.358936 47.55156,16.837464 C47.55156,16.467864 47.558952,16.08684 47.56668,15.683472 C47.629008,12.46644 47.706456,8.463 44.15796,4.873848 L44.15796,4.873848 C40.973352,1.652952 36.464904,-0.12264 31.790304,0.006552 C27.133512,0.133896 22.766688,2.121 19.809216,5.45832 C19.718496,5.561024 19.62632,5.6644 19.532688,5.768448 C17.748864,7.7616 15.30564,10.491432 15.481032,17.48208 C15.497832,18.166344 16.153032,21.302232 16.831584,23.6922 C16.43603,23.7314865 16.0524292,23.8499834 15.703632,24.040632 C14.2674,24.816792 13.60884,26.636232 14.064792,28.5684 C14.938392,32.268936 17.12424,35.05992 19.502112,35.696472 C19.786368,37.657032 20.781432,41.743464 24.219384,44.388792 L22.7136,47.485368 C21.6384,47.822376 20.426616,48.156192 19.175856,48.50664 C11.091864,50.772456 0,53.875248 0,63.955752 L0,74.495736 C0,76.985664 1.331736,79.632 3.722208,79.632 L58.505832,79.632 C58.516752,79.632 58.527336,79.630656 58.538088,79.63032 C69.639161,79.5666051 78.5967333,70.5344913 78.5685185,59.4332716 C78.54017,48.3320518 69.5366935,39.3456959 58.43544,39.338544 Z M21.2856,7.336392 C21.381696,7.229096 21.476504,7.122696 21.570024,7.017192 C24.097416,4.164888 27.846,2.46624 31.854816,2.356704 C35.882952,2.244816 39.757032,3.76656 42.485688,6.526632 C45.335976,9.409344 45.271968,12.717768 45.21552,15.636768 C45.207456,16.052064 45.199896,16.444344 45.199896,16.836456 C45.199896,17.085768 45.174696,17.60304 45.131688,18.261096 C44.563008,16.147152 43.767864,14.105448 42.673008,12.91164 L42.585984,12.737592 C42.3833112,12.3321035 41.96562,12.0792081 41.5123791,12.0875669 C41.0591382,12.0959258 40.6510558,12.3640503 40.463472,12.776736 C38.5686,16.944648 36.691536,16.776816 33.581856,16.499448 C33.220824,16.467192 32.853576,16.434432 32.48028,16.40856 C31.297056,16.32456 30.868992,17.016048 30.7398,17.31576 C30.356424,18.20616 30.889152,19.167624 31.864392,20.307672 C28.75992,19.937064 27.973008,17.666376 27.264048,15.61812 C26.771976,14.196504 26.214384,12.585048 24.592848,12.585048 C23.0120624,12.5540869 21.494997,13.2076702 20.431656,14.377776 C19.226592,15.671376 18.547536,17.51568 18.169536,19.323024 C18.01653,18.6973769 17.904294,18.0624583 17.833536,17.422272 C17.680152,11.364864 19.59552,9.224544 21.2856,7.336392 Z M21.747096,34.610184 C21.717619,33.9810971 21.2008628,33.4851588 20.571096,33.48156 C20.554296,33.48156 20.537496,33.48156 20.519856,33.48156 C18.79752,33.48156 16.97892,30.671928 16.353456,28.02744 C16.114056,27.01272 16.428384,26.321736 16.821672,26.109048 C17.266368,25.869144 17.740632,26.291664 17.923752,26.484696 C18.2375581,26.8151271 18.7140134,26.9345226 19.146558,26.7911204 C19.5791026,26.6477182 19.8898654,26.2673349 19.94412,25.81488 C20.059977,25.6131509 20.11314,25.3814913 20.096832,25.149432 C19.97184,23.345616 20.098008,18.181968 22.153152,15.979656 C22.7407449,15.3277604 23.5738324,14.9508005 24.451392,14.939736 C24.628128,15.194928 24.864,15.876168 25.040904,16.387728 C25.912488,18.905712 27.534696,23.591568 34.723752,22.565928 C35.1736292,22.5017538 35.5462715,22.1841252 35.6808923,21.7500917 C35.815513,21.3160583 35.6880171,20.8433057 35.353416,20.535816 C34.7833272,20.0116784 34.2421831,19.4569062 33.732384,18.87396 C36.49716,19.114032 39.317376,19.204416 41.648208,15.536808 C43.121232,18.2994 43.888152,23.792832 44.075976,25.974312 C44.128257,26.5820157 44.6364839,27.0488813 45.246432,27.049512 C45.280032,27.049512 45.313632,27.048 45.348408,27.044976 C45.7825614,27.007747 46.1604602,26.7333113 46.3302,26.331984 C46.562376,26.102496 46.91652,25.854864 47.2542,26.028408 C47.685624,26.250672 47.99676,27.008856 47.757024,28.027608 C47.131896,30.6726 45.313464,33.482064 43.590624,33.482064 L43.561224,33.482064 C43.3329542,33.4783724 43.1084743,33.540676 42.91476,33.661488 C42.5810738,33.8696137 42.373956,34.2311708 42.363216,34.624296 C42.312816,35.585928 41.857368,40.50312 37.850568,42.993384 C37.844016,42.997248 37.837968,43.001616 37.831584,43.005648 C36.271536,43.96812 34.328112,44.456328 32.05524,44.456328 C29.788584,44.456328 27.849528,43.957032 26.29116,42.97188 C22.341312,40.47792 21.812784,35.56896 21.746928,34.610184 L21.747096,34.610184 Z M24.608304,48.967128 L26.237904,45.616536 C27.925464,46.407144 29.87544,46.807992 32.055408,46.807992 C34.203792,46.807992 36.127896,46.427304 37.797648,45.677016 L38.978016,49.025088 C39.0977104,49.3649493 39.3666045,49.6311812 39.70764,49.747488 C40.000632,49.847392 40.310816,49.949368 40.638192,50.053416 C40.0618602,51.1355629 39.5862115,52.2683919 39.217248,53.437608 C38.128944,54.726504 35.844984,56.697984 32.055408,56.697984 C29.4690572,56.725974 26.9930297,55.6518681 25.246368,53.744208 C24.005856,52.413648 23.303784,50.930376 23.067072,49.83804 C23.355528,49.749504 23.638272,49.6608 23.914464,49.571088 C24.218091,49.4722862 24.4684913,49.25427 24.608136,48.967128 L24.608304,48.967128 Z M2.352,74.495736 L2.352,63.955752 C2.352,55.658736 12.0414,52.948896 19.810224,50.771448 C20.139,50.679216 20.473488,50.588328 20.79336,50.498112 C21.64428,54.072816 25.477536,59.049312 32.04936,59.049312 C34.3014893,59.0777366 36.5128773,58.4476965 38.411856,57.236592 C37.4925055,65.457287 41.6902639,73.4048832 48.998376,77.28 L3.722208,77.28 C2.9736,77.28 2.352,75.783288 2.352,74.495736 Z M58.43544,77.28 C48.6078196,77.28 40.641048,69.3130044 40.641048,59.485384 C40.641048,49.6577636 48.6079316,41.69088 58.435552,41.69088 C68.2631724,41.69088 76.230168,49.6576516 76.230168,59.485272 C76.2192428,69.3085 68.258668,77.2690748 58.43544,77.28 Z" id="Shape"></path>
                </g>
            </g>
        </g>
    </g>
</svg>