<?xml version="1.0" encoding="UTF-8"?>
<svg width="100px" height="100px" viewBox="0 0 100 100" version="1.1" xmlns="http://www.w3.org/2000/svg" xmlns:xlink="http://www.w3.org/1999/xlink">
    <title>04479E9B-EC50-4BD7-9E40-D77E904B5C15</title>
    <g id="Page-1" stroke="none" stroke-width="1" fill="none" fill-rule="evenodd">
        <g id="Z-Shop-Marketing-Updated" transform="translate(-286.000000, -5495.000000)">
            <g id="Group-27" transform="translate(286.000000, 5495.000000)">
                <circle id="Oval" fill="#EAF0EC" cx="50" cy="50" r="50"></circle>
                <g id="doctor-5" transform="translate(16.000000, 4.000000)" fill="#000000" fill-rule="nonzero">
                    <path d="M25.520208,26.934096 C24.824352,26.934096 24.260208,27.498072 24.260208,28.194096 L24.260208,29.540952 C24.260208,30.236976 24.824352,30.800952 25.520208,30.800952 C26.216064,30.800952 26.780208,30.236976 26.780208,29.540952 L26.780208,28.194096 C26.780208,27.49824 26.215896,26.934096 25.520208,26.934096 Z" id="Path"></path>
                    <path d="M41.680464,26.934096 C40.98444,26.934096 40.420464,27.498072 40.420464,28.194096 L40.420464,29.540952 C40.420464,30.236976 40.98444,30.800952 41.680464,30.800952 C42.376488,30.800952 42.940464,30.236976 42.940464,29.540952 L42.940464,28.194096 C42.940464,27.49824 42.37632,26.934096 41.680464,26.934096 Z" id="Path"></path>
                    <path d="M38.537352,36.736392 C38.048808,36.240624 37.250976,36.235584 36.755712,36.724296 C36.295728,37.177896 35.193312,37.707768 33.600336,37.707768 C32.00736,37.707768 30.905112,37.177896 30.445128,36.724296 C29.949528,36.235248 29.151696,36.240792 28.66332,36.736224 C28.174608,37.231656 28.179984,38.02932 28.675248,38.518032 C29.76036,39.588528 31.601472,40.227768 33.600336,40.227768 C35.599032,40.227768 37.440144,39.588528 38.525256,38.518032 C39.020688,38.029488 39.026064,37.231656 38.537352,36.736392 Z" id="Path"></path>
                    <path d="M26.866728,22.894032 L24.17352,22.894032 C23.477664,22.894032 22.91352,23.458008 22.91352,24.154032 C22.91352,24.850056 23.477664,25.414032 24.17352,25.414032 L26.866896,25.414032 C27.562752,25.414032 28.126896,24.850056 28.126896,24.154032 C28.126896,23.458008 27.562584,22.894032 26.866728,22.894032 Z" id="Path"></path>
                    <path d="M43.027152,22.894032 L40.333776,22.894032 C39.637752,22.894032 39.073776,23.458008 39.073776,24.154032 C39.073776,24.850056 39.63792,25.414032 40.333776,25.414032 L43.027152,25.414032 C43.723176,25.414032 44.287152,24.850056 44.287152,24.154032 C44.287152,23.458008 43.723176,22.894032 43.027152,22.894032 Z" id="Path"></path>
                    <path d="M60.58584,60.016152 L51.503928,57.223992 C51.518712,56.949648 51.498552,56.672112 51.433872,56.397936 C51.23496,55.556088 50.677368,54.851328 49.903728,54.464424 L44.287152,51.656304 L44.287152,47.65152 C48.489336,44.728992 51.446808,40.135032 52.186344,34.841016 L52.935288,34.841016 C55.390944,34.841016 57.497328,33.016368 57.730512,30.686712 C57.861216,29.381184 57.43416,28.07784 56.55888,27.110664 C56.135352,26.642448 55.623456,26.272008 55.060824,26.01312 L55.060824,12.033672 C55.060824,6.883464 50.870904,2.693376 45.720528,2.693376 C45.713976,2.693376 45.62628,2.693376 45.507504,2.693544 C43.239,1.020264 39.906384,0 36.209544,0 C28.338912,0 24.723048,1.63968 20.536488,3.538248 C18.299904,4.552464 15.987384,5.60112 12.709368,6.559728 C12.365304,6.66036 12.080208,6.902784 11.925816,7.22652 C11.771424,7.550088 11.762184,7.924224 11.900448,8.255016 C11.938752,8.346744 12.50172,9.653616 13.95408,11.241216 C13.326936,12.013176 12.139848,13.987344 12.139848,17.86932 L12.139848,26.069232 C10.690008,26.760552 9.631776,28.12992 9.470328,29.741208 C9.339456,31.046736 9.766344,32.350248 10.641624,33.31776 C11.517408,34.285776 12.768168,34.840848 14.073192,34.840848 L15.013656,34.840848 C15.75252,40.136544 18.71016,44.731008 22.913352,47.6532 L22.913352,51.656136 L17.296608,54.464256 C16.522968,54.851328 15.965208,55.556088 15.766464,56.397936 C15.701784,56.671944 15.681792,56.94948 15.696408,57.223824 L6.614496,60.015984 C2.669688,61.228944 0.019152,64.816584 0.019152,68.94384 L0.019152,84.756 C0.019152,85.452024 0.583296,86.016504 1.279152,86.016504 C1.975008,86.016504 2.539152,85.452024 2.539152,84.756 L2.539152,68.944008 C2.539152,65.930424 4.474512,63.310632 7.355208,62.424936 L16.802016,59.520552 L18.469416,61.743864 L16.575048,63.6384 C15.369816,64.843464 15.07212,66.677352 15.834336,68.201952 L19.441296,75.415704 L16.006536,75.415704 L16.006536,73.982328 C16.006536,73.286304 15.442392,72.722328 14.746536,72.722328 C14.05068,72.722328 13.486536,73.286304 13.486536,73.982328 L13.486536,75.415704 L8.012928,75.415704 C7.317072,75.415704 6.752928,75.97968 6.752928,76.675704 L6.752928,84.756 C6.752928,85.452024 7.317072,86.016504 8.012928,86.016504 L21.480144,86.016504 C22.176,86.016504 22.740144,85.452024 22.740144,84.756 L22.740144,82.013232 L24.393264,85.31964 C24.614016,85.761144 25.05888,86.016504 25.521216,86.016504 C25.710552,86.016504 25.902744,85.973328 26.08368,85.882944 C26.70612,85.57164 26.958456,84.814968 26.647152,84.19236 L18.088392,67.074672 C17.812032,66.521952 17.920056,65.857176 18.357024,65.42004 L21.02436,62.752536 C21.467712,62.309184 21.517608,61.60728 21.141456,61.105632 L18.2868,57.299592 C18.19188,57.17292 18.203808,57.043056 18.219432,56.976864 C18.235056,56.910504 18.282432,56.78904 18.424056,56.718144 L23.386776,54.236784 L26.890248,66.248616 C27.085128,66.91692 27.784344,67.29996 28.452648,67.105584 C29.120784,66.910704 29.504328,66.21132 29.309448,65.543184 L28.757232,63.649824 C30.306528,64.188264 31.944696,64.468488 33.600672,64.468488 C35.25732,64.468488 36.894816,64.189104 38.443776,63.650664 L33.600504,80.255784 L30.881256,70.932792 C30.686376,70.264488 29.986992,69.880944 29.318856,70.075824 C28.65072,70.270704 28.267176,70.970256 28.462056,71.638224 L32.390904,85.108464 C32.547816,85.646064 33.04056,86.016504 33.600504,86.016504 C34.160448,86.016504 34.65336,85.646064 34.810104,85.108464 L43.8144,54.236784 L48.776952,56.718144 C48.918744,56.78904 48.965952,56.910672 48.981744,56.976696 C48.997368,57.043056 49.009296,57.17292 48.914376,57.299592 L46.05972,61.105632 C45.683568,61.607112 45.733464,62.309184 46.176648,62.752704 L48.844152,65.420208 C49.281288,65.857176 49.388976,66.52212 49.112784,67.074672 L40.55352,84.192528 C40.242216,84.814968 40.494552,85.571808 41.116992,85.883112 C41.297928,85.973664 41.490288,86.016504 41.679624,86.016504 C42.141792,86.016504 42.586824,85.761144 42.807576,85.319808 L51.366336,68.20212 C52.128552,66.677688 51.831024,64.8438 50.62596,63.638568 L48.731256,61.743864 L50.398488,59.52072 L59.845464,62.425272 C62.725992,63.3108 64.661352,65.930592 64.661352,68.944344 L64.661352,84.756 C64.661352,85.452024 65.225328,86.016504 65.921352,86.016504 C66.617376,86.016504 67.181352,85.452024 67.181352,84.756 L67.181352,68.944008 C67.181352,64.816752 64.530816,61.228944 60.58584,60.016152 Z M20.219808,83.496 L9.272592,83.496 L9.272592,77.935704 L13.4862,77.935704 L13.4862,78.022392 C13.4862,78.718416 14.050344,79.282392 14.7462,79.282392 C15.442056,79.282392 16.0062,78.718416 16.0062,78.022392 L16.0062,77.935704 L20.219808,77.935704 L20.219808,83.496 L20.219808,83.496 Z M21.57708,5.833296 C25.659312,3.982104 28.883568,2.52 36.209544,2.52 C40.858104,2.52 45.012072,4.46544 45.872064,7.045416 C46.092312,7.705656 46.805304,8.061984 47.46588,7.84224 C48.125952,7.62216 48.482784,6.908496 48.262704,6.248424 C48.190296,6.031032 48.103776,5.81784 48.005832,5.608512 C50.645784,6.55032 52.540992,9.074352 52.540992,12.033672 L52.540992,25.587576 L51.107616,25.587576 C50.317176,25.587576 49.67424,24.94464 49.67424,24.1542 L49.67424,22.807344 C49.67424,16.965816 45.445008,12.669552 45.264912,12.489456 C44.932776,12.157152 44.443056,12.03804 43.994496,12.178824 C36.999984,14.387688 27.13788,16.249296 19.877256,12.57564 C17.293584,11.268264 15.767976,9.606912 14.965608,8.497608 C17.640336,7.618632 19.713624,6.678336 21.57708,5.833296 Z M41.76732,52.255056 L39.360888,60.505872 C37.59756,61.450704 35.616504,61.948824 33.600504,61.948824 C31.58568,61.948824 29.602776,61.451376 27.840288,60.507216 L25.433352,52.255056 L25.433352,49.12908 C27.903792,50.328096 30.674784,51.001776 33.600336,51.001776 C36.525552,51.001776 39.296544,50.32776 41.76732,49.127904 L41.76732,52.255056 L41.76732,52.255056 Z M33.600336,48.481608 C24.641568,48.481608 17.353224,41.193096 17.353224,32.234328 C17.353224,31.538304 16.78908,30.974328 16.093224,30.974328 C15.397368,30.974328 14.833224,31.538304 14.833224,32.234328 L14.833224,32.321016 L14.073192,32.321016 C13.478976,32.321016 12.909288,32.068008 12.510288,31.627008 C12.10608,31.180296 11.916912,30.599856 11.977728,29.992536 C12.083736,28.93548 13.088712,28.107408 14.26572,28.107408 L16.093224,28.107408 C18.273192,28.107408 20.0466,26.333832 20.0466,24.154032 L20.0466,19.398288 C20.0466,18.702264 19.482456,18.138288 18.7866,18.138288 C18.090744,18.138288 17.5266,18.702264 17.5266,19.398288 L17.5266,24.154032 C17.5266,24.944472 16.883496,25.587408 16.093224,25.587408 L14.659848,25.587408 L14.659848,17.86932 C14.659848,14.937552 15.447768,13.479648 15.811656,12.962712 C16.581432,13.569864 17.484264,14.171304 18.540984,14.722008 C21.39648,16.21032 24.79512,17.034528 28.64232,17.171616 C33.151608,17.333736 38.305512,16.542792 43.97064,14.824152 C44.970576,16.035096 47.154408,19.103952 47.154408,22.807176 L47.154408,24.154032 C47.154408,26.334 48.927984,28.107408 51.107784,28.107408 L53.127816,28.107408 C53.722032,28.107408 54.29172,28.360416 54.69072,28.801416 C55.094928,29.248128 55.284096,29.8284 55.22328,30.43572 C55.11744,31.492944 54.112632,32.321016 52.935624,32.321016 L52.367112,32.321016 L52.367112,32.247432 C52.367112,31.551744 51.803304,30.987768 51.107616,30.987432 C51.107448,30.987432 51.10728,30.987432 51.107112,30.987432 C50.411592,30.987432 49.847616,31.550904 49.847112,32.246424 C49.840224,41.198472 42.552048,48.481608 33.600336,48.481608 Z" id="Shape"></path>
                    <path d="M59.187912,76.089048 L57.081192,76.089048 L57.081192,73.982328 C57.081192,73.286304 56.517216,72.722328 55.821192,72.722328 C55.125168,72.722328 54.561192,73.286304 54.561192,73.982328 L54.561192,76.089048 L52.454304,76.089048 C51.75828,76.089048 51.194304,76.653024 51.194304,77.349048 C51.194304,78.045072 51.75828,78.609048 52.454304,78.609048 L54.561192,78.609048 L54.561192,80.715768 C54.561192,81.411792 55.125168,81.975768 55.821192,81.975768 C56.517216,81.975768 57.081192,81.411792 57.081192,80.715768 L57.081192,78.609048 L59.187912,78.609048 C59.883936,78.609048 60.447912,78.045072 60.447912,77.349048 C60.447912,76.653024 59.8836,76.089048 59.187912,76.089048 Z" id="Path"></path>
                </g>
            </g>
        </g>
    </g>
</svg>