<?xml version="1.0" encoding="UTF-8"?>
<svg width="100px" height="100px" viewBox="0 0 100 100" version="1.1" xmlns="http://www.w3.org/2000/svg" xmlns:xlink="http://www.w3.org/1999/xlink">
    <title>1CD894A5-8660-4FBA-8C14-1C73D5743E30</title>
    <g id="Page-1" stroke="none" stroke-width="1" fill="none" fill-rule="evenodd">
        <g id="Z-Shop-Marketing-Updated" transform="translate(-1049.000000, -5495.000000)">
            <g id="Group-28" transform="translate(1049.000000, 5495.000000)">
                <circle id="Oval-Copy-4" fill="#EAF0EC" cx="50" cy="50" r="50"></circle>
                <g id="help-2" transform="translate(12.000000, 11.000000)" fill="#000000" fill-rule="nonzero">
                    <path d="M76.8,51.975 C76.8,40.7806641 69.2572266,31.0001953 58.6207032,28.0529296 C57.9521484,12.4710937 45.0685547,0 29.325,0 C13.1548828,0 0,13.1548828 0,29.325 C0,34.5949218 1.4027343,39.7259766 4.06640625,44.2306641 L0.1078125,58.5416016 L14.4193359,54.5835937 C18.5601562,57.0322266 23.23125,58.4115234 28.0523437,58.6195312 C30.9990234,69.2566407 40.7800782,76.8 51.975,76.8 C56.4433593,76.8 60.7886718,75.6099609 64.6066407,73.3488282 L76.6916016,76.6916016 L73.3488282,64.6066407 C75.6099609,60.7886718 76.8,56.4433593 76.8,51.975 Z M15.1294921,49.7179687 L6.5619141,52.0880859 L8.93203125,43.5205079 L8.3917968,42.6755859 C5.8458984,38.6923829 4.5,34.0757813 4.5,29.325 C4.5,15.6363282 15.6363282,4.5 29.325,4.5 C43.0136718,4.5 54.15,15.6363282 54.15,29.325 C54.15,43.0136718 43.0136718,54.15 29.325,54.15 C24.5742188,54.15 19.9582032,52.8041016 15.9744141,50.2582032 L15.1294921,49.7179687 Z M70.2380859,70.2380859 L63.8806641,68.4791016 L63.0316407,69.0316407 C59.7404296,71.1697266 55.9166016,72.3 51.975,72.3 C43.1765625,72.3 35.4451172,66.6111329 32.7058593,58.4537109 C46.1789062,56.9003907 56.9003907,46.1789062 58.4542968,32.7052734 C66.6111328,35.4451172 72.3,43.1765625 72.3,51.975 C72.3,55.9166016 71.1697266,59.7404296 69.0316407,63.0316407 L68.4791016,63.8806641 L70.2380859,70.2380859 Z" id="Shape"></path>
                    <polygon id="Path" points="27.075 40.65 31.575 40.65 31.575 45.15 27.075 45.15"></polygon>
                    <path d="M33.825,22.5 C33.825,23.7779296 33.3046875,24.9574218 32.3601563,25.8216797 L27.075,30.6591796 L27.075,36.15 L31.575,36.15 L31.575,32.6408203 L35.3982422,29.1416016 C37.2580078,27.4394532 38.325,25.0189453 38.325,22.5 C38.325,17.5371093 34.2878907,13.5 29.325,13.5 C24.3621093,13.5 20.325,17.5371093 20.325,22.5 L24.825,22.5 C24.825,20.0185546 26.8435547,18 29.325,18 C31.8064454,18 33.825,20.0185546 33.825,22.5 Z" id="Path"></path>
                </g>
            </g>
        </g>
    </g>
</svg>