<?xml version="1.0" encoding="UTF-8"?>
<svg width="48px" height="48px" viewBox="0 0 48 48" version="1.1" xmlns="http://www.w3.org/2000/svg" xmlns:xlink="http://www.w3.org/1999/xlink">
    <title>E518D809-2157-4730-A6D9-3E163BB8A9EF</title>
    <g id="Page-1" stroke="none" stroke-width="1" fill="none" fill-rule="evenodd">
        <g id="Z-Shop-Marketing-Updated" transform="translate(-696.000000, -2205.000000)" fill="#90B5A1" fill-rule="nonzero">
            <g id="medical-assistance-copy" transform="translate(696.000000, 2205.000000)">
                <path d="M15.162,39.9 C13.8398303,39.9 12.768,40.9718303 12.768,42.294 C12.768,43.6161697 13.8398303,44.688 15.162,44.688 C16.4841697,44.688 17.556,43.6161697 17.556,42.294 C17.556,40.9718303 16.4841697,39.9 15.162,39.9 Z M15.162,43.092 C14.7212768,43.092 14.364,42.7347232 14.364,42.294 C14.364,41.8532768 14.7212768,41.496 15.162,41.496 C15.6027232,41.496 15.96,41.8532768 15.96,42.294 C15.96,42.7347232 15.6027232,43.092 15.162,43.092 Z" id="Shape"></path>
                <path d="M47.88,24.738 L47.88,8.778 C47.8760561,7.45746737 46.8065326,6.38794388 45.486,6.384 L30.324,6.384 L30.324,3.99 C30.324,1.78638385 28.5376162,0 26.334,0 L3.99,0 C1.78638385,0 0,1.78638385 0,3.99 L0,43.89 C0,46.0936162 1.78638385,47.8800296 3.99,47.8800296 L26.334,47.8800296 C27.8825235,47.8859677 29.29213,46.9878113 29.94096,45.58176 C33.2298757,48.098608 37.6421994,48.5868856 41.4018376,46.8500463 C45.1614759,45.113207 47.6499247,41.436981 47.8655084,37.3011602 C48.0810921,33.1653393 45.9883446,29.250314 42.42966,27.132 L45.486,27.132 C46.8065326,27.1280561 47.8760561,26.0585326 47.88,24.738 L47.88,24.738 Z M26.334,46.2840196 L3.99,46.2840196 C2.66946737,46.2800561 1.59994388,45.2105326 1.596,43.89 L1.596,3.99 C1.59994388,2.66946737 2.66946737,1.59994388 3.99,1.596 L26.334,1.596 C27.6545326,1.59994388 28.7240561,2.66946737 28.728,3.99 L28.728,6.384 L27.132,6.384 L27.132,3.99 C27.132,3.54927677 26.7747232,3.192 26.334,3.192 L3.99,3.192 C3.54927677,3.192 3.192,3.54927677 3.192,3.99 L3.192,37.506 C3.192,37.9467232 3.54927677,38.304 3.99,38.304 L25.66368,38.304 C25.8223137,39.4106972 26.1478756,40.4869349 26.62926,41.496 L25.536,41.496 L25.536,43.092 L27.132,43.092 L27.132,42.42966 C27.5615247,43.1535897 28.0729505,43.8256729 28.65618,44.43264 C28.4126719,45.5183537 27.4466771,46.2884939 26.334,46.2840196 Z M15.162,27.132 L15.96,27.132 L15.96,34.314 C15.9587676,34.6370228 16.154895,34.9280507 16.45476,35.04816 C16.5494471,35.0928898 16.6533157,35.1147569 16.758,35.112 C16.969992,35.1126141 17.1736386,35.0294345 17.32458,34.88058 L25.06518,27.132 L25.536,27.132 L25.536,36.708 L4.788,36.708 L4.788,4.788 L25.536,4.788 L25.536,6.384 L15.162,6.384 C13.8414674,6.38794388 12.7719439,7.45746737 12.768,8.778 L12.768,24.738 C12.7719439,26.0585326 13.8414674,27.1280561 15.162,27.132 L15.162,27.132 Z M46.284,36.708 C46.284,41.9966788 41.9966788,46.284 36.708,46.284 C31.4193212,46.284 27.132,41.9966788 27.132,36.708 C27.132,31.4193212 31.4193212,27.132 36.708,27.132 C41.9948551,27.1364002 46.2795998,31.4211449 46.284,36.708 L46.284,36.708 Z M27.132,30.98634 L27.132,27.132 L28.728,27.132 L28.728,28.90356 C28.1148937,29.5317316 27.5790912,30.2309539 27.132,30.98634 L27.132,30.98634 Z M30.324,27.55494 L30.324,27.132 L30.98634,27.132 C30.7629,27.26766 30.53946,27.40332 30.324,27.55494 Z M24.738,25.536 C24.5264406,25.5375755 24.3235855,25.6204318 24.17142,25.76742 L17.556,32.39082 L17.556,26.334 C17.556,25.8932768 17.1987232,25.536 16.758,25.536 L15.162,25.536 C14.7212768,25.536 14.364,25.1787232 14.364,24.738 L14.364,8.778 C14.364,8.33727677 14.7212768,7.98 15.162,7.98 L45.486,7.98 C45.9267232,7.98 46.284,8.33727677 46.284,8.778 L46.284,24.738 C46.284,25.1787232 45.9267232,25.536 45.486,25.536 L24.738,25.536 Z" id="Shape"></path>
                <polygon id="Path" points="3.192 41.496 4.788 41.496 4.788 43.092 3.192 43.092"></polygon>
                <polygon id="Path" points="6.384 41.496 7.98 41.496 7.98 43.092 6.384 43.092"></polygon>
                <polygon id="Path" points="9.576 41.496 11.172 41.496 11.172 43.092 9.576 43.092"></polygon>
                <polygon id="Path" points="19.152 41.496 20.748 41.496 20.748 43.092 19.152 43.092"></polygon>
                <polygon id="Path" points="22.344 41.496 23.94 41.496 23.94 43.092 22.344 43.092"></polygon>
                <path d="M31.92,39.102 L34.314,39.102 L34.314,41.496 C34.314,41.9367232 34.6712768,42.294 35.112,42.294 L38.304,42.294 C38.7447232,42.294 39.102,41.9367232 39.102,41.496 L39.102,39.102 L41.496,39.102 C41.9367232,39.102 42.294,38.7447232 42.294,38.304 L42.294,35.112 C42.294,34.6712768 41.9367232,34.314 41.496,34.314 L39.102,34.314 L39.102,31.92 C39.102,31.4792768 38.7447232,31.122 38.304,31.122 L35.112,31.122 C34.6712768,31.122 34.314,31.4792768 34.314,31.92 L34.314,34.314 L31.92,34.314 C31.4792768,34.314 31.122,34.6712768 31.122,35.112 L31.122,38.304 C31.122,38.7447232 31.4792768,39.102 31.92,39.102 Z M32.718,35.91 L35.112,35.91 C35.5527232,35.91 35.91,35.5527232 35.91,35.112 L35.91,32.718 L37.506,32.718 L37.506,35.112 C37.506,35.5527232 37.8632768,35.91 38.304,35.91 L40.698,35.91 L40.698,37.506 L38.304,37.506 C37.8632768,37.506 37.506,37.8632768 37.506,38.304 L37.506,40.698 L35.91,40.698 L35.91,38.304 C35.91,37.8632768 35.5527232,37.506 35.112,37.506 L32.718,37.506 L32.718,35.91 Z" id="Shape"></path>
                <polygon id="Path" points="17.556 11.172 20.748 11.172 20.748 12.768 17.556 12.768"></polygon>
                <polygon id="Path" points="22.344 11.172 43.092 11.172 43.092 12.768 22.344 12.768"></polygon>
                <polygon id="Path" points="17.556 15.96 43.092 15.96 43.092 17.556 17.556 17.556"></polygon>
                <polygon id="Path" points="17.556 20.748 38.304 20.748 38.304 22.344 17.556 22.344"></polygon>
                <polygon id="Path" points="39.9 20.748 43.092 20.748 43.092 22.344 39.9 22.344"></polygon>
            </g>
        </g>
    </g>
</svg>