<?xml version="1.0" encoding="UTF-8"?>
<svg width="47px" height="47px" viewBox="0 0 47 47" version="1.1" xmlns="http://www.w3.org/2000/svg" xmlns:xlink="http://www.w3.org/1999/xlink">
    <title>FF700A24-45C9-48D7-879E-8954F23AEB3F</title>
    <g id="Page-1" stroke="none" stroke-width="1" fill="none" fill-rule="evenodd">
        <g id="Z-Shop-Marketing-Updated" transform="translate(-1131.000000, -1970.000000)" fill="#90B5A1" fill-rule="nonzero">
            <g id="pharmacy-copy" transform="translate(1131.000000, 1970.000000)">
                <path d="M45.312,13.824 L44.544,13.824 L44.544,5.376 C44.544,4.95187498 44.200125,4.608 43.776,4.608 L30.72,4.608 L30.72,0.768 C30.72,0.343874976 30.376125,0 29.952,0 L16.128,0 C15.703875,0 15.36,0.343874976 15.36,0.768 L15.36,4.608 L2.304,4.608 C1.87987498,4.608 1.536,4.95187498 1.536,5.376 L1.536,13.824 L0.768,13.824 C0.343874976,13.824 0,14.167875 0,14.592 L0,17.664 C0,18.088125 0.343874976,18.432 0.768,18.432 L1.536,18.432 L1.536,45.312 C1.536,45.736125 1.87987498,46.08 2.304,46.08 L43.776,46.08 C44.200125,46.08 44.544,45.736125 44.544,45.312 L44.544,18.432 L45.312,18.432 C45.736125,18.432 46.08,18.088125 46.08,17.664 L46.08,14.592 C46.08,14.167875 45.736125,13.824 45.312,13.824 Z M30.72,6.144 L43.008,6.144 L43.008,13.824 L30.72,13.824 L30.72,6.144 Z M16.896,1.536 L29.184,1.536 L29.184,13.824 L16.896,13.824 L16.896,1.536 Z M3.072,6.144 L15.36,6.144 L15.36,13.824 L3.072,13.824 L3.072,6.144 Z M37.632,44.544 L27.648,44.544 L27.648,38.4 L37.632,38.4 L37.632,44.544 Z M37.632,36.864 L27.648,36.864 L27.648,29.184 L37.632,29.184 L37.632,36.864 Z M37.632,27.648 L27.648,27.648 L27.648,23.808 L37.632,23.808 L37.632,27.648 Z M43.008,44.544 L39.168,44.544 L39.168,23.04 C39.168,22.615875 38.824125,22.272 38.4,22.272 L26.88,22.272 C26.455875,22.272 26.112,22.615875 26.112,23.04 L26.112,44.544 L3.072,44.544 L3.072,18.432 L43.008,18.432 L43.008,44.544 Z M44.544,16.896 L1.536,16.896 L1.536,15.36 L44.544,15.36 L44.544,16.896 Z" id="Shape"></path>
                <path d="M7.68,39.168 L21.504,39.168 C21.928125,39.168 22.272,38.824125 22.272,38.4 L22.272,34.56 C22.272,34.135875 21.928125,33.792 21.504,33.792 L20.736,33.792 L20.736,23.04 C20.736,22.615875 20.392125,22.272 19.968,22.272 L9.216,22.272 C8.79187498,22.272 8.448,22.615875 8.448,23.04 L8.448,33.792 L7.68,33.792 C7.25587498,33.792 6.912,34.135875 6.912,34.56 L6.912,38.4 C6.912,38.824125 7.25587498,39.168 7.68,39.168 Z M9.984,23.808 L19.2,23.808 L19.2,33.792 L9.984,33.792 L9.984,23.808 Z M8.448,35.328 L20.736,35.328 L20.736,37.632 L8.448,37.632 L8.448,35.328 Z" id="Shape"></path>
                <path d="M35.328,33.792 C35.752125,33.792 36.096,33.448125 36.096,33.024 L36.096,32.256 C36.096,31.831875 35.752125,31.488 35.328,31.488 C34.903875,31.488 34.56,31.831875 34.56,32.256 L34.56,33.024 C34.56,33.448125 34.903875,33.792 35.328,33.792 Z" id="Path"></path>
                <path d="M26.88,5.376 L25.344,5.376 L25.344,3.84 C25.344,3.41587498 25.000125,3.072 24.576,3.072 L21.504,3.072 C21.079875,3.072 20.736,3.41587498 20.736,3.84 L20.736,5.376 L19.2,5.376 C18.775875,5.376 18.432,5.71987498 18.432,6.144 L18.432,9.216 C18.432,9.64012502 18.775875,9.984 19.2,9.984 L20.736,9.984 L20.736,11.52 C20.736,11.944125 21.079875,12.288 21.504,12.288 L24.576,12.288 C25.000125,12.288 25.344,11.944125 25.344,11.52 L25.344,9.984 L26.88,9.984 C27.304125,9.984 27.648,9.64012502 27.648,9.216 L27.648,6.144 C27.648,5.71987498 27.304125,5.376 26.88,5.376 Z M26.112,8.448 L24.576,8.448 C24.151875,8.448 23.808,8.79187498 23.808,9.216 L23.808,10.752 L22.272,10.752 L22.272,9.216 C22.272,8.79187498 21.928125,8.448 21.504,8.448 L19.968,8.448 L19.968,6.912 L21.504,6.912 C21.928125,6.912 22.272,6.56812502 22.272,6.144 L22.272,4.608 L23.808,4.608 L23.808,6.144 C23.808,6.56812502 24.151875,6.912 24.576,6.912 L26.112,6.912 L26.112,8.448 Z" id="Shape"></path>
                <path d="M12.831,28.959 L15.135,26.655 C15.426,26.3535 15.421875,25.874625 15.125625,25.578375 C14.829375,25.282125 14.3505,25.278 14.049,25.569 L11.745,27.873 C11.5455,28.06575 11.46525,28.3515 11.53575,28.62 C11.605875,28.8885 11.8155,29.098125 12.084,29.16825 C12.3525,29.23875 12.63825,29.1585 12.831,28.959 L12.831,28.959 Z" id="Path"></path>
                <path d="M16.353,27.105 L12.513,30.945 C12.3135,31.13775 12.23325,31.4235 12.30375,31.692 C12.373875,31.9605 12.5835,32.170125 12.852,32.24025 C13.1205,32.31075 13.40625,32.2305 13.599,32.031 L17.439,28.191 C17.73,27.8895 17.725875,27.410625 17.429625,27.114375 C17.133375,26.818125 16.6545,26.814 16.353,27.105 L16.353,27.105 Z" id="Path"></path>
            </g>
        </g>
    </g>
</svg>