<?xml version="1.0" encoding="UTF-8"?>
<svg width="38px" height="38px" viewBox="0 0 38 38" version="1.1" xmlns="http://www.w3.org/2000/svg" xmlns:xlink="http://www.w3.org/1999/xlink">
    <title>CD73AAAB-BF40-46EB-9464-13DECEDBE3EC</title>
    <g id="Page-1" stroke="none" stroke-width="1" fill="none" fill-rule="evenodd">
        <g id="Z-Shop-Marketing-Updated" transform="translate(-266.000000, -1975.000000)" fill="#90B5A1" fill-rule="nonzero">
            <g id="rocket-launch" transform="translate(266.000000, 1975.000000)">
                <path d="M4.7393346,28.8590874 C5.0743836,28.5240384 5.0743836,27.9807528 4.7393346,27.645618 C4.4042856,27.3106548 3.861,27.3106548 3.5258652,27.645618 L0.2513082,30.9203466 C-0.0837408,31.2553956 -0.0837408,31.7986812 0.2513082,32.133816 C0.4187898,32.3012976 0.6384378,32.3851242 0.858,32.3851242 C1.0775622,32.3851242 1.2972102,32.3012976 1.4646918,32.133816 L4.7393346,28.8590874 Z" id="Path"></path>
                <path d="M26.3333928,5.8883682 C25.5725184,6.6493284 25.1534712,7.6609962 25.1534712,8.737014 C25.1534712,9.8131176 25.5725184,10.8247854 26.3333928,11.5856598 C27.1187202,12.3709872 28.1503794,12.763608 29.1820386,12.763608 C30.2136978,12.763608 31.2452712,12.3709872 32.0305986,11.5856598 C32.7915588,10.8247854 33.2105202,9.8131176 33.2105202,8.737014 C33.2105202,7.6609962 32.791473,6.6493284 32.0305986,5.8883682 C30.4599438,4.3177134 27.9042192,4.3177134 26.3333928,5.8883682 Z M30.817215,10.3722762 C29.9155428,11.27412 28.4485344,11.2740342 27.5467764,10.3722762 C27.1099686,9.9354684 26.8694712,9.3548598 26.8694712,8.737014 C26.8694712,8.1193398 27.1100544,7.5385596 27.5467764,7.1017518 C27.9976554,6.6508728 28.5897612,6.4254762 29.1820386,6.4254762 C29.7741444,6.4254762 30.3665076,6.6509586 30.817215,7.1017518 C31.2540228,7.5385596 31.494606,8.119254 31.494606,8.737014 C31.494606,9.3548598 31.2540228,9.9354684 30.817215,10.3722762 Z" id="Shape"></path>
                <path d="M7.445295,30.3515784 C7.110246,30.0166152 6.5669604,30.0166152 6.2319114,30.3515784 L1.6385226,34.945053 C1.3034736,35.280102 1.3034736,35.8233876 1.6385226,36.1585224 C1.80609,36.326004 2.0256522,36.4098306 2.2452144,36.4098306 C2.4647766,36.4098306 2.6844246,36.326004 2.8519062,36.1585224 L7.445295,31.5650478 C7.780344,31.229913 7.780344,30.6866274 7.445295,30.3515784 Z" id="Path"></path>
                <path d="M37.3728498,1.1436282 C37.2923694,0.8534526 37.0656,0.6268548 36.775596,0.5462886 C33.648615,-0.3215784 30.2615742,-0.152724 26.9805822,1.034319 C24.4382424,1.9541808 21.965658,3.4961784 20.1968052,5.265117 L17.5287684,7.9331538 L7.8630552,9.4429764 C7.68339,9.471033 7.517367,9.5554602 7.3887528,9.6839886 L1.206777,15.8659644 C0.9660222,16.106805 0.8903466,16.4670792 1.0139844,16.7842818 C1.1376222,17.1014844 1.4372358,17.3155554 1.777347,17.329884 L7.8754104,17.5863402 L6.347055,19.1146956 C6.012006,19.4497446 6.012006,19.9930302 6.347055,20.328165 L7.2391176,21.2201418 L4.5747702,25.304136 C4.353063,25.6439898 4.3996524,26.092638 4.6866534,26.379639 L11.5395852,33.232485 C11.8265862,33.5194002 12.2752344,33.566247 12.615174,33.3443682 L16.6989966,30.679935 L17.5910592,31.5719976 C17.9261082,31.9069608 18.4693938,31.9069608 18.8045286,31.5719976 L20.332884,30.0436422 L20.5893402,36.141534 C20.6036688,36.481731 20.8177398,36.7812588 21.1349424,36.9048966 C21.2361864,36.9443646 21.3417204,36.963498 21.4463964,36.963498 C21.6698196,36.963498 21.889296,36.8760678 22.0532598,36.7121898 L28.2352356,30.530214 C28.3638498,30.4015998 28.4481912,30.235491 28.4763336,30.0559116 L29.986242,20.3902842 L32.654193,17.7222474 C34.4230458,15.9533946 35.9651292,13.4808102 36.884991,10.9385562 C38.0718624,7.65765 38.240631,4.2705234 37.3728498,1.1436282 Z M12.2606484,31.5266952 L6.3924432,25.65849 L8.479185,22.4600376 L11.3624082,25.3432608 L11.0233266,25.6823424 C10.6881918,26.0173914 10.6881918,26.560677 11.0233266,26.8958118 C11.3583756,27.230775 11.9016612,27.230775 12.236796,26.8958118 L12.5758776,26.5567302 L15.4591008,29.4399534 L12.2606484,31.5266952 Z M31.4406378,16.5089496 L28.574832,19.3748412 C28.5744888,19.3751844 28.5741456,19.3755276 28.5738024,19.3758708 L25.5919092,22.357764 C25.2568602,22.692813 25.2568602,23.2360986 25.5919092,23.5712334 C25.9269582,23.9061966 26.4702438,23.9061966 26.8053786,23.5712334 L27.9278142,22.4487978 L26.8239972,29.514771 L22.2216852,34.1171688 L21.981102,28.39551 L24.3786114,25.9980006 C24.7136604,25.6629516 24.7136604,25.119666 24.3786114,24.7845312 C24.0435624,24.449568 23.5002768,24.449568 23.165142,24.7845312 L20.5035402,27.446133 C20.5020816,27.4475916 20.5007088,27.4489644 20.4992502,27.450423 L18.197751,29.7518364 L17.4326724,28.9867578 C17.4239208,28.9777488 17.4151692,28.9689114 17.4060744,28.9602456 L13.7891754,25.3432608 L24.1662564,14.9662656 C24.5013054,14.6312166 24.5013912,14.087931 24.1662564,13.7527962 C23.8312932,13.4179188 23.2880076,13.417833 22.9528728,13.7527962 L12.5757918,24.129963 L8.9587212,20.5128924 C8.9501412,20.5039692 8.9413896,20.4952176 8.9323806,20.4865518 L8.167302,19.7213874 L10.4688012,17.4198882 C10.4702598,17.4185154 10.4716326,17.4171426 10.4730054,17.415684 L13.1346072,14.7540822 C13.469742,14.4190332 13.469742,13.8757476 13.1346072,13.5406128 C12.799644,13.2056496 12.2562726,13.2056496 11.9212236,13.5406128 L9.5237142,15.9381222 L3.8020554,15.6974532 L8.4043674,11.0951412 L15.4703406,9.99141 L14.347905,11.1137598 L15.5612886,12.3272292 L18.5341728,9.354345 C18.5406078,9.3480816 18.5470428,9.3417324 18.5533062,9.3352116 L21.410103,6.4784148 C23.7977454,4.0908582 29.4670662,0.5532384 35.8419204,2.0771322 C37.3658142,8.4520722 33.8281944,14.1214788 31.4406378,16.5089496 Z" id="Shape"></path>
                <path d="M9.060051,33.1798038 L5.7854082,36.4544466 C5.4503592,36.7894956 5.4503592,37.3327812 5.7854082,37.667916 C5.9529756,37.8353976 6.1725378,37.9192242 6.3921,37.9192242 C6.6116622,37.9192242 6.8313102,37.8353976 6.9987918,37.667916 L10.2734346,34.3932732 C10.6084836,34.0582242 10.6084836,33.5149386 10.2734346,33.1798038 C9.9384714,32.8447548 9.3951858,32.8447548 9.060051,33.1798038 Z" id="Path"></path>
            </g>
        </g>
    </g>
</svg>