<?xml version="1.0" encoding="UTF-8"?>
<svg width="46px" height="51px" viewBox="0 0 46 51" version="1.1" xmlns="http://www.w3.org/2000/svg" xmlns:xlink="http://www.w3.org/1999/xlink">
    <title>97378328-707D-4684-9654-9EB812EE621A</title>
    <g id="Page-1" stroke="none" stroke-width="1" fill="none" fill-rule="evenodd">
        <g id="Z-Shop-Marketing-Updated" transform="translate(-697.000000, -1968.000000)" fill="#90B5A1" fill-rule="nonzero">
            <g id="web-design-copy" transform="translate(697.000000, 1968.000000)">
                <path d="M41.895117,6.591816 L41.293692,6.591816 C42.440112,4.725369 42.016788,2.21958 40.176873,0.854469 C38.194398,-0.616275 35.377155,-0.142857 33.99363,1.924659 L30.870576,6.591915 L4.041873,6.591915 C1.836648,6.591915 0.04257,8.385993 0.04257,10.591218 L0.04257,36.160344 C0.04257,38.365569 1.836648,40.159647 4.041873,40.159647 L19.576359,40.159647 L18.402615,45.08955 L15.869304,45.08955 C14.218281,45.08955 12.875049,46.432683 12.875049,48.083706 L12.875049,48.708891 L9.752094,48.708891 C9.205317,48.708891 8.762094,49.152213 8.762094,49.698891 C8.762094,50.245569 9.205317,50.688891 9.752094,50.688891 L36.184995,50.688891 C36.731772,50.688891 37.174995,50.245569 37.174995,49.698891 C37.174995,49.152213 36.731772,48.708891 36.184995,48.708891 L33.06204,48.708891 L33.06204,48.083706 C33.06204,46.432683 31.718808,45.08955 30.067785,45.08955 L27.534474,45.08955 L26.36073,40.159647 L41.895216,40.159647 C44.100441,40.159647 45.894519,38.365569 45.894519,36.160344 L45.894519,30.534174 L45.894519,10.591119 C45.894519,8.385894 44.100441,6.591816 41.895117,6.591816 Z M27.710199,23.995917 C26.162334,25.079472 23.262525,23.606649 20.493297,25.084323 C19.817622,21.574278 20.243619,18.273123 23.760594,17.544483 C24.215103,17.44974 24.70446,17.406873 25.121052,17.415189 C26.311428,18.298368 27.515466,19.191645 28.702476,20.072448 C29.222127,21.58398 29.027097,23.074128 27.710199,23.995917 Z M28.707921,13.384305 L31.510314,15.463503 L29.355183,18.091062 C28.467945,17.432811 27.705249,16.866927 26.818011,16.208577 C27.00225,15.933258 28.539522,13.635864 28.707921,13.384305 L28.707921,13.384305 Z M35.639307,3.025836 C36.389133,1.905057 37.918386,1.644291 38.99709,2.444706 C40.07619,3.24522 40.269438,4.784274 39.414375,5.826843 C37.8972,7.67646 34.290234,12.074139 32.767317,13.930884 L29.810187,11.736846 L35.639307,3.025836 Z M31.081941,48.083706 L31.081941,48.708891 L14.855049,48.708891 L14.855049,48.083706 C14.855049,47.524554 15.310053,47.06955 15.869304,47.06955 L30.067686,47.06955 C30.626937,47.06955 31.081941,47.524554 31.081941,48.083706 Z M25.499034,45.08955 L20.437956,45.08955 L21.6117,40.159647 L24.32529,40.159647 L25.499034,45.08955 Z M43.914519,36.160344 C43.914519,37.273797 43.008669,38.179647 41.895216,38.179647 C40.32369,38.179647 5.808924,38.179647 4.041972,38.179647 C2.928519,38.179647 2.022471,37.273797 2.022471,36.160344 L2.022471,31.524174 L4.851693,31.524174 C5.39847,31.524174 5.841693,31.080852 5.841693,30.534174 C5.841693,29.987496 5.39847,29.544174 4.851693,29.544174 L2.022471,29.544174 L2.022471,10.591119 C2.022471,9.477666 2.928321,8.571816 4.041774,8.571816 L29.545659,8.571816 C28.597239,9.989199 25.830288,14.124231 24.953841,15.433902 C23.013738,15.451425 21.076803,16.127298 19.808811,17.607546 C18.08334,19.621701 17.780202,22.786533 18.907812,27.014031 C19.100565,27.736929 20.002554,27.995913 20.548341,27.474579 C23.108184,25.028586 26.29638,27.696636 29.151441,25.385778 C30.894237,23.975028 31.306671,21.732282 30.649509,19.635066 C31.537836,18.552006 38.833245,9.65745 39.723651,8.571816 L41.895018,8.571816 C43.008471,8.571816 43.914519,9.477666 43.914519,10.591119 L43.914519,29.544075 L4.36939255,29.544075 C3.82261555,29.544075 3.37939255,29.987397 3.37939255,30.534075 C3.37939255,31.080753 3.82261555,31.524075 4.36939255,31.524075 L43.914519,31.524075 L43.914519,36.160344 Z" id="Shape"></path>
            </g>
        </g>
    </g>
</svg>