<?xml version="1.0" encoding="UTF-8"?>
<svg width="63px" height="63px" viewBox="0 0 63 63" version="1.1" xmlns="http://www.w3.org/2000/svg" xmlns:xlink="http://www.w3.org/1999/xlink">
    <title>Group 2</title>
    <defs>
        <filter id="filter-1">
            <feColorMatrix in="SourceGraphic" type="matrix" values="0 0 0 0 0.203922 0 0 0 0 0.596078 0 0 0 0 0.858824 0 0 0 1.000000 0"></feColorMatrix>
        </filter>
        <polygon id="path-2" points="0 0.061992 35 0.061992 35 26.99352 0 26.99352"></polygon>
    </defs>
    <g id="Page-1" stroke="none" stroke-width="1" fill="none" fill-rule="evenodd">
        <g id="Group-2">
            <path d="M0,31.5023913 C0,48.9011615 14.1025505,63 31.5047821,63 C48.9022317,63 63,48.9011615 63,31.5023913 C63,14.103621 48.9022317,0 31.5047821,0 C14.1025505,0 0,14.103621 0,31.5023913" id="Fill-4-Copy-4" fill="#D6EBF9"></path>
            <g filter="url(#filter-1)" id="Group">
                <g transform="translate(13.800000, 13.000000)">
                    <path d="M20.2,7.00001693 C20.2,5.38202378 19.2255597,3.92358551 17.7307882,3.30469924 C16.2360168,2.68536853 14.5155796,3.02781153 13.3714734,4.17147335 C12.2278115,5.31557962 11.8853685,7.03601678 12.5046992,8.53078823 C13.1235855,10.0255597 14.5820238,11 16.2000169,11 C18.4078965,10.9974445 20.1974445,9.20789648 20.2,7.00001693 Z M13.5333616,7.00001693 C13.5333616,5.92146594 14.1831366,4.94924784 15.1795768,4.53647181 C16.1761281,4.12369578 17.32279,4.3515837 18.0854534,5.11458047 C18.8484502,5.87724391 19.0763381,7.02390572 18.6635621,8.02045706 C18.250786,9.01689728 17.2785679,9.66667231 16.2000169,9.66667231 C14.7278009,9.66489454 13.5351393,8.47223292 13.5333616,7.00001693 Z" id="Fill-1" fill="#000000"></path>
                    <path d="M16.8350455,17.883563 C17.0541667,18.0388123 17.3458333,18.0388123 17.5649545,17.883563 C18.7735152,16.9842099 19.879303,15.9521074 20.8619545,14.805791 C23.0457424,12.2686595 24.2,9.59470717 24.2,7.071397 C24.2,3.16616444 21.065803,0 17.2,0 C13.334197,0 10.2,3.16616444 10.2,7.071397 C10.2,9.59470717 11.3542576,12.2686595 13.5380455,14.805791 C14.520697,15.9521074 15.6264848,16.9842099 16.8350455,17.883563 Z M17.2,1.28570855 C20.3615606,1.28945853 22.9235606,3.87758983 22.9272727,7.071397 C22.9272727,11.6710193 18.5137727,15.5110022 17.2,16.5522118 C15.8842121,15.5121807 11.4727273,11.679805 11.4727273,7.071397 C11.4764394,3.87758983 14.0384394,1.28945853 17.2,1.28570855 Z" id="Fill-2" fill="#000000"></path>
                    <polygon id="Fill-3" fill="#000000" points="9.2 33.7565946 9.4271527 33 10.2 33.2434054 9.9728473 34"></polygon>
                    <polygon id="Fill-4" fill="#000000" points="11.2 34.7565946 11.4270942 34 12.2 34.2434714 11.9726483 35"></polygon>
                    <g id="Group-8" transform="translate(0.200000, 12.000000)">
                        <mask id="mask-3" fill="white">
                            <use xlink:href="#path-2"></use>
                        </mask>
                        <g id="Clip-6"></g>
                        <polygon id="Fill-5" fill="#000000" mask="url(#mask-3)" points="14.0752932 23.376492 14.4562963 22.137516 15.7530247 22.536144 15.3720216 23.775228"></polygon>
                        <path d="M34.5426235,3.052728 L24.8204012,0.061992 L24.438858,1.300644 L32.1483642,3.672 L17.5,8.178084 L2.8516358,3.672 L10.5607099,1.300644 L10.1795988,0.061992 L0.457376543,3.052728 C0.185262346,3.136212 0,3.387636 0,3.672 L0,21.168 C0,21.452364 0.185694444,21.703788 0.457376543,21.787272 L17.3092284,26.971272 C17.4337809,27.00972 17.5662191,27.00972 17.6907716,26.971272 L34.5426235,21.787272 C34.8143056,21.703788 35,21.452364 35,21.168 L35,3.672 C35,3.387636 34.8143056,3.136212 34.5426235,3.052728 Z M1.2962963,4.5495 L16.8518519,9.334872 L16.8518519,25.4745 L1.2962963,20.68956 L1.2962963,4.5495 Z M18.1481481,25.4745 L18.1481481,9.334872 L33.7037037,4.5495 L33.7037037,20.68956 L18.1481481,25.4745 Z" id="Fill-7" fill="#000000" mask="url(#mask-3)"></path>
                    </g>
                    <polygon id="Fill-9" fill="#000000" points="26.2 33.2434714 26.972856 33 27.2 33.7565946 26.427144 34"></polygon>
                    <polygon id="Fill-10" fill="#000000" points="28.2 31.2434054 28.9726483 31 29.2 31.7565946 28.4270942 32"></polygon>
                    <polygon id="Fill-11" fill="#000000" points="31.2 31.2434054 31.9729058 31 32.2 31.7565286 31.4270942 32"></polygon>
                    <path d="M12.5333333,26 C12.9013333,26 13.2,25.6888078 13.2,25.3053745 L13.2,21.8322471 C13.2,21.5274223 13.009,21.2579076 12.7295556,21.1683009 L6.06288889,19.030591 C5.86055556,18.9659908 5.641,19.0048898 5.47044444,19.1360583 C5.30022222,19.267111 5.2,19.4742251 5.2,19.6950003 L5.2,23.1681277 C5.2,23.4728367 5.391,23.7420041 5.67044444,23.8319581 L12.3371111,25.9692049 C12.401,25.9895806 12.4668889,26 12.5333333,26 Z M11.8666667,24.3647358 L6.53333333,22.6547994 L6.53333333,20.6351759 L11.8666667,22.3449965 L11.8666667,24.3647358 Z" id="Fill-12" fill="#000000"></path>
                    <path d="M29.2,23.1682022 L29.2,19.6950127 C29.2,19.4742336 29.0997778,19.2671157 28.9295556,19.1360607 C28.759,19.0048899 28.5394444,18.9659902 28.3371111,19.0305915 L21.6704444,21.1683397 C21.391,21.2579479 21.2,21.5274674 21.2,21.8322977 L21.2,25.3054872 C21.2,25.5256874 21.3002222,25.7332684 21.4704444,25.8639761 C21.641,25.9951468 21.8605556,26.0340466 22.0628889,25.9693295 L28.7295556,23.8320444 C29.009,23.7420888 29.2,23.4729166 29.2,23.1682022 Z M27.8666667,22.6548648 L22.5333333,24.3648317 L22.5333333,22.3450563 L27.8666667,20.6352051 L27.8666667,22.6548648 Z" id="Fill-13" fill="#000000"></path>
                </g>
            </g>
        </g>
    </g>
</svg>