<?xml version="1.0" encoding="UTF-8"?>
<svg width="333px" height="330px" viewBox="0 0 333 330" version="1.1" xmlns="http://www.w3.org/2000/svg" xmlns:xlink="http://www.w3.org/1999/xlink">
    <title>Group Copy 5</title>
    <g id="Page-1" stroke="none" stroke-width="1" fill="none" fill-rule="evenodd" opacity="0.3">
        <g id="Group-Copy-5" transform="translate(166.021125, 164.557023) rotate(30.000000) translate(-166.021125, -164.557023) translate(43.021125, 45.557023)" fill="#FC5C42">
            <g id="Group-79" transform="translate(0.392882, 1.172450)">
                <path d="M7.41935484,3.70491803 C7.41935484,5.75132256 5.75871079,7.40983607 3.70807911,7.40983607 C1.66064405,7.40983607 0,5.75132256 0,3.70491803 C0,1.6585135 1.66064405,0 3.70807911,0 C5.75871079,0 7.41935484,1.6585135 7.41935484,3.70491803" id="Fill-1"></path>
                <path d="M29.6774194,3.70491803 C29.6774194,5.75132256 28.0167753,7.40983607 25.9669428,7.40983607 C23.9187086,7.40983607 22.2580645,5.75132256 22.2580645,3.70491803 C22.2580645,1.6585135 23.9187086,0 25.9669428,0 C28.0167753,0 29.6774194,1.6585135 29.6774194,3.70491803" id="Fill-3"></path>
                <path d="M50.0806452,3.70491803 C50.0806452,5.75132256 48.4196433,7.40983607 46.3709677,7.40983607 C44.3214929,7.40983607 42.6612903,5.75132256 42.6612903,3.70491803 C42.6612903,1.6585135 44.3214929,0 46.3709677,0 C48.4196433,0 50.0806452,1.6585135 50.0806452,3.70491803" id="Fill-5"></path>
                <path d="M72.3387097,3.70491803 C72.3387097,5.75132256 70.6777078,7.40983607 68.6274336,7.40983607 C66.5787581,7.40983607 64.9193548,5.75132256 64.9193548,3.70491803 C64.9193548,1.6585135 66.5787581,0 68.6274336,0 C70.6777078,0 72.3387097,1.6585135 72.3387097,3.70491803" id="Fill-7"></path>
                <path d="M92.7419355,3.70491803 C92.7419355,5.75132256 91.0820906,7.40983607 89.0314589,7.40983607 C86.9832247,7.40983607 85.3225806,5.75132256 85.3225806,3.70491803 C85.3225806,1.6585135 86.9832247,0 89.0314589,0 C91.0820906,0 92.7419355,1.6585135 92.7419355,3.70491803" id="Fill-9"></path>
                <path d="M7.41935484,24.0819672 C7.41935484,26.1283717 5.75871079,27.7868852 3.70807911,27.7868852 C1.66064405,27.7868852 0,26.1283717 0,24.0819672 C0,22.0363608 1.66064405,20.3770492 3.70807911,20.3770492 C5.75871079,20.3770492 7.41935484,22.0363608 7.41935484,24.0819672" id="Fill-14"></path>
                <path d="M29.6774194,24.0819672 C29.6774194,26.1283717 28.0167753,27.7868852 25.9669428,27.7868852 C23.9187086,27.7868852 22.2580645,26.1283717 22.2580645,24.0819672 C22.2580645,22.0363608 23.9187086,20.3770492 25.9669428,20.3770492 C28.0167753,20.3770492 29.6774194,22.0363608 29.6774194,24.0819672" id="Fill-16"></path>
                <path d="M50.0806452,24.0819672 C50.0806452,26.1283717 48.4196433,27.7868852 46.3709677,27.7868852 C44.3214929,27.7868852 42.6612903,26.1283717 42.6612903,24.0819672 C42.6612903,22.0363608 44.3214929,20.3770492 46.3709677,20.3770492 C48.4196433,20.3770492 50.0806452,22.0363608 50.0806452,24.0819672" id="Fill-18"></path>
                <path d="M72.3387097,24.0819672 C72.3387097,26.1283717 70.6777078,27.7868852 68.6274336,27.7868852 C66.5787581,27.7868852 64.9193548,26.1283717 64.9193548,24.0819672 C64.9193548,22.0363608 66.5787581,20.3770492 68.6274336,20.3770492 C70.6777078,20.3770492 72.3387097,22.0363608 72.3387097,24.0819672" id="Fill-20"></path>
                <path d="M92.7419355,24.0819672 C92.7419355,26.1283717 91.0820906,27.7868852 89.0314589,27.7868852 C86.9832247,27.7868852 85.3225806,26.1283717 85.3225806,24.0819672 C85.3225806,22.0363608 86.9832247,20.3770492 89.0314589,20.3770492 C91.0820906,20.3770492 92.7419355,22.0363608 92.7419355,24.0819672" id="Fill-22"></path>
                <path d="M7.41935484,47.2382037 C7.41935484,49.7949363 5.75871079,51.8688525 3.70807911,51.8688525 C1.66064405,51.8688525 0,49.7949363 0,47.2382037 C0,44.6804735 1.66064405,42.6065574 3.70807911,42.6065574 C5.75871079,42.6065574 7.41935484,44.6804735 7.41935484,47.2382037" id="Fill-27"></path>
                <path d="M29.6774194,47.2382037 C29.6774194,49.7949363 28.0167753,51.8688525 25.9669428,51.8688525 C23.9187086,51.8688525 22.2580645,49.7949363 22.2580645,47.2382037 C22.2580645,44.6804735 23.9187086,42.6065574 25.9669428,42.6065574 C28.0167753,42.6065574 29.6774194,44.6804735 29.6774194,47.2382037" id="Fill-29"></path>
                <path d="M50.0806452,47.2382037 C50.0806452,49.7949363 48.4196433,51.8688525 46.3709677,51.8688525 C44.3214929,51.8688525 42.6612903,49.7949363 42.6612903,47.2382037 C42.6612903,44.6804735 44.3214929,42.6065574 46.3709677,42.6065574 C48.4196433,42.6065574 50.0806452,44.6804735 50.0806452,47.2382037" id="Fill-31"></path>
                <path d="M72.3387097,47.2382037 C72.3387097,49.7949363 70.6777078,51.8688525 68.6274336,51.8688525 C66.5787581,51.8688525 64.9193548,49.7949363 64.9193548,47.2382037 C64.9193548,44.6804735 66.5787581,42.6065574 68.6274336,42.6065574 C70.6777078,42.6065574 72.3387097,44.6804735 72.3387097,47.2382037" id="Fill-33"></path>
                <path d="M92.7419355,47.2382037 C92.7419355,49.7949363 91.0820906,51.8688525 89.0314589,51.8688525 C86.9832247,51.8688525 85.3225806,49.7949363 85.3225806,47.2382037 C85.3225806,44.6804735 86.9832247,42.6065574 89.0314589,42.6065574 C91.0820906,42.6065574 92.7419355,44.6804735 92.7419355,47.2382037" id="Fill-35"></path>
                <path d="M7.41935484,67.6142553 C7.41935484,70.1719855 5.75871079,72.2459016 3.70807911,72.2459016 C1.66064405,72.2459016 0,70.1719855 0,67.6142553 C0,65.0575227 1.66064405,62.9836066 3.70807911,62.9836066 C5.75871079,62.9836066 7.41935484,65.0575227 7.41935484,67.6142553" id="Fill-40"></path>
                <path d="M29.6774194,67.6142553 C29.6774194,70.1719855 28.0167753,72.2459016 25.9669428,72.2459016 C23.9187086,72.2459016 22.2580645,70.1719855 22.2580645,67.6142553 C22.2580645,65.0575227 23.9187086,62.9836066 25.9669428,62.9836066 C28.0167753,62.9836066 29.6774194,65.0575227 29.6774194,67.6142553" id="Fill-42"></path>
                <path d="M50.0806452,67.6142553 C50.0806452,70.1719855 48.4196433,72.2459016 46.3709677,72.2459016 C44.3214929,72.2459016 42.6612903,70.1719855 42.6612903,67.6142553 C42.6612903,65.0575227 44.3214929,62.9836066 46.3709677,62.9836066 C48.4196433,62.9836066 50.0806452,65.0575227 50.0806452,67.6142553" id="Fill-44"></path>
                <path d="M72.3387097,67.6142553 C72.3387097,70.1719855 70.6777078,72.2459016 68.6274336,72.2459016 C66.5787581,72.2459016 64.9193548,70.1719855 64.9193548,67.6142553 C64.9193548,65.0575227 66.5787581,62.9836066 68.6274336,62.9836066 C70.6777078,62.9836066 72.3387097,65.0575227 72.3387097,67.6142553" id="Fill-46"></path>
                <path d="M92.7419355,67.6142553 C92.7419355,70.1719855 91.0820906,72.2459016 89.0314589,72.2459016 C86.9832247,72.2459016 85.3225806,70.1719855 85.3225806,67.6142553 C85.3225806,65.0575227 86.9832247,62.9836066 89.0314589,62.9836066 C91.0820906,62.9836066 92.7419355,65.0575227 92.7419355,67.6142553" id="Fill-48"></path>
                <path d="M7.41935484,88.9180328 C7.41935484,90.9636392 5.75871079,92.6229508 3.70807911,92.6229508 C1.66064405,92.6229508 0,90.9636392 0,88.9180328 C0,86.8716283 1.66064405,85.2131148 3.70807911,85.2131148 C5.75871079,85.2131148 7.41935484,86.8716283 7.41935484,88.9180328" id="Fill-53"></path>
                <path d="M29.6774194,88.9180328 C29.6774194,90.9636392 28.0167753,92.6229508 25.9669428,92.6229508 C23.9187086,92.6229508 22.2580645,90.9636392 22.2580645,88.9180328 C22.2580645,86.8716283 23.9187086,85.2131148 25.9669428,85.2131148 C28.0167753,85.2131148 29.6774194,86.8716283 29.6774194,88.9180328" id="Fill-55"></path>
                <path d="M50.0806452,88.9180328 C50.0806452,90.9636392 48.4196433,92.6229508 46.3709677,92.6229508 C44.3214929,92.6229508 42.6612903,90.9636392 42.6612903,88.9180328 C42.6612903,86.8716283 44.3214929,85.2131148 46.3709677,85.2131148 C48.4196433,85.2131148 50.0806452,86.8716283 50.0806452,88.9180328" id="Fill-57"></path>
                <path d="M72.3387097,88.9180328 C72.3387097,90.9636392 70.6777078,92.6229508 68.6274336,92.6229508 C66.5787581,92.6229508 64.9193548,90.9636392 64.9193548,88.9180328 C64.9193548,86.8716283 66.5787581,85.2131148 68.6274336,85.2131148 C70.6777078,85.2131148 72.3387097,86.8716283 72.3387097,88.9180328" id="Fill-59"></path>
                <path d="M92.7419355,88.9180328 C92.7419355,90.9636392 91.0820906,92.6229508 89.0314589,92.6229508 C86.9832247,92.6229508 85.3225806,90.9636392 85.3225806,88.9180328 C85.3225806,86.8716283 86.9832247,85.2131148 89.0314589,85.2131148 C91.0820906,85.2131148 92.7419355,86.8716283 92.7419355,88.9180328" id="Fill-61"></path>
                <path d="M7.41935484,109.295082 C7.41935484,111.341486 5.75871079,113 3.70807911,113 C1.66064405,113 0,111.341486 0,109.295082 C0,107.248677 1.66064405,105.590164 3.70807911,105.590164 C5.75871079,105.590164 7.41935484,107.248677 7.41935484,109.295082" id="Fill-66"></path>
                <path d="M29.6774194,109.295082 C29.6774194,111.341486 28.0167753,113 25.9669428,113 C23.9187086,113 22.2580645,111.341486 22.2580645,109.295082 C22.2580645,107.248677 23.9187086,105.590164 25.9669428,105.590164 C28.0167753,105.590164 29.6774194,107.248677 29.6774194,109.295082" id="Fill-68"></path>
                <path d="M50.0806452,109.295082 C50.0806452,111.341486 48.4196433,113 46.3709677,113 C44.3214929,113 42.6612903,111.341486 42.6612903,109.295082 C42.6612903,107.248677 44.3214929,105.590164 46.3709677,105.590164 C48.4196433,105.590164 50.0806452,107.248677 50.0806452,109.295082" id="Fill-70"></path>
                <path d="M72.3387097,109.295082 C72.3387097,111.341486 70.6777078,113 68.6274336,113 C66.5787581,113 64.9193548,111.341486 64.9193548,109.295082 C64.9193548,107.248677 66.5787581,105.590164 68.6274336,105.590164 C70.6777078,105.590164 72.3387097,107.248677 72.3387097,109.295082" id="Fill-72"></path>
                <path d="M92.7419355,109.295082 C92.7419355,111.341486 91.0820906,113 89.0314589,113 C86.9832247,113 85.3225806,111.341486 85.3225806,109.295082 C85.3225806,107.248677 86.9832247,105.590164 89.0314589,105.590164 C91.0820906,105.590164 92.7419355,107.248677 92.7419355,109.295082" id="Fill-74"></path>
                <path d="M115,3.70491803 C115,5.75132256 113.340155,7.40983607 111.289523,7.40983607 C109.241289,7.40983607 107.580645,5.75132256 107.580645,3.70491803 C107.580645,1.6585135 109.241289,0 111.289523,0 C113.340155,0 115,1.6585135 115,3.70491803" id="Fill-9-Copy"></path>
                <path d="M115,24.0819672 C115,26.1283717 113.340155,27.7868852 111.289523,27.7868852 C109.241289,27.7868852 107.580645,26.1283717 107.580645,24.0819672 C107.580645,22.0363608 109.241289,20.3770492 111.289523,20.3770492 C113.340155,20.3770492 115,22.0363608 115,24.0819672" id="Fill-22-Copy"></path>
                <path d="M115,47.2382037 C115,49.7949363 113.340155,51.8688525 111.289523,51.8688525 C109.241289,51.8688525 107.580645,49.7949363 107.580645,47.2382037 C107.580645,44.6804735 109.241289,42.6065574 111.289523,42.6065574 C113.340155,42.6065574 115,44.6804735 115,47.2382037" id="Fill-35-Copy"></path>
                <path d="M115,67.6142553 C115,70.1719855 113.340155,72.2459016 111.289523,72.2459016 C109.241289,72.2459016 107.580645,70.1719855 107.580645,67.6142553 C107.580645,65.0575227 109.241289,62.9836066 111.289523,62.9836066 C113.340155,62.9836066 115,65.0575227 115,67.6142553" id="Fill-48-Copy"></path>
                <path d="M115,88.9180328 C115,90.9636392 113.340155,92.6229508 111.289523,92.6229508 C109.241289,92.6229508 107.580645,90.9636392 107.580645,88.9180328 C107.580645,86.8716283 109.241289,85.2131148 111.289523,85.2131148 C113.340155,85.2131148 115,86.8716283 115,88.9180328" id="Fill-61-Copy"></path>
                <path d="M115,109.295082 C115,111.341486 113.340155,113 111.289523,113 C109.241289,113 107.580645,111.341486 107.580645,109.295082 C107.580645,107.248677 109.241289,105.590164 111.289523,105.590164 C113.340155,105.590164 115,107.248677 115,109.295082" id="Fill-74-Copy"></path>
            </g>
            <g id="Group-79-Copy" transform="translate(0.565333, 123.471143)">
                <path d="M7.41935484,3.70491803 C7.41935484,5.75132256 5.75871079,7.40983607 3.70807911,7.40983607 C1.66064405,7.40983607 0,5.75132256 0,3.70491803 C0,1.6585135 1.66064405,0 3.70807911,0 C5.75871079,0 7.41935484,1.6585135 7.41935484,3.70491803" id="Fill-1"></path>
                <path d="M29.6774194,3.70491803 C29.6774194,5.75132256 28.0167753,7.40983607 25.9669428,7.40983607 C23.9187086,7.40983607 22.2580645,5.75132256 22.2580645,3.70491803 C22.2580645,1.6585135 23.9187086,0 25.9669428,0 C28.0167753,0 29.6774194,1.6585135 29.6774194,3.70491803" id="Fill-3"></path>
                <path d="M50.0806452,3.70491803 C50.0806452,5.75132256 48.4196433,7.40983607 46.3709677,7.40983607 C44.3214929,7.40983607 42.6612903,5.75132256 42.6612903,3.70491803 C42.6612903,1.6585135 44.3214929,0 46.3709677,0 C48.4196433,0 50.0806452,1.6585135 50.0806452,3.70491803" id="Fill-5"></path>
                <path d="M72.3387097,3.70491803 C72.3387097,5.75132256 70.6777078,7.40983607 68.6274336,7.40983607 C66.5787581,7.40983607 64.9193548,5.75132256 64.9193548,3.70491803 C64.9193548,1.6585135 66.5787581,0 68.6274336,0 C70.6777078,0 72.3387097,1.6585135 72.3387097,3.70491803" id="Fill-7"></path>
                <path d="M92.7419355,3.70491803 C92.7419355,5.75132256 91.0820906,7.40983607 89.0314589,7.40983607 C86.9832247,7.40983607 85.3225806,5.75132256 85.3225806,3.70491803 C85.3225806,1.6585135 86.9832247,0 89.0314589,0 C91.0820906,0 92.7419355,1.6585135 92.7419355,3.70491803" id="Fill-9"></path>
                <path d="M7.41935484,24.0819672 C7.41935484,26.1283717 5.75871079,27.7868852 3.70807911,27.7868852 C1.66064405,27.7868852 0,26.1283717 0,24.0819672 C0,22.0363608 1.66064405,20.3770492 3.70807911,20.3770492 C5.75871079,20.3770492 7.41935484,22.0363608 7.41935484,24.0819672" id="Fill-14"></path>
                <path d="M29.6774194,24.0819672 C29.6774194,26.1283717 28.0167753,27.7868852 25.9669428,27.7868852 C23.9187086,27.7868852 22.2580645,26.1283717 22.2580645,24.0819672 C22.2580645,22.0363608 23.9187086,20.3770492 25.9669428,20.3770492 C28.0167753,20.3770492 29.6774194,22.0363608 29.6774194,24.0819672" id="Fill-16"></path>
                <path d="M50.0806452,24.0819672 C50.0806452,26.1283717 48.4196433,27.7868852 46.3709677,27.7868852 C44.3214929,27.7868852 42.6612903,26.1283717 42.6612903,24.0819672 C42.6612903,22.0363608 44.3214929,20.3770492 46.3709677,20.3770492 C48.4196433,20.3770492 50.0806452,22.0363608 50.0806452,24.0819672" id="Fill-18"></path>
                <path d="M72.3387097,24.0819672 C72.3387097,26.1283717 70.6777078,27.7868852 68.6274336,27.7868852 C66.5787581,27.7868852 64.9193548,26.1283717 64.9193548,24.0819672 C64.9193548,22.0363608 66.5787581,20.3770492 68.6274336,20.3770492 C70.6777078,20.3770492 72.3387097,22.0363608 72.3387097,24.0819672" id="Fill-20"></path>
                <path d="M92.7419355,24.0819672 C92.7419355,26.1283717 91.0820906,27.7868852 89.0314589,27.7868852 C86.9832247,27.7868852 85.3225806,26.1283717 85.3225806,24.0819672 C85.3225806,22.0363608 86.9832247,20.3770492 89.0314589,20.3770492 C91.0820906,20.3770492 92.7419355,22.0363608 92.7419355,24.0819672" id="Fill-22"></path>
                <path d="M7.41935484,47.2382037 C7.41935484,49.7949363 5.75871079,51.8688525 3.70807911,51.8688525 C1.66064405,51.8688525 0,49.7949363 0,47.2382037 C0,44.6804735 1.66064405,42.6065574 3.70807911,42.6065574 C5.75871079,42.6065574 7.41935484,44.6804735 7.41935484,47.2382037" id="Fill-27"></path>
                <path d="M29.6774194,47.2382037 C29.6774194,49.7949363 28.0167753,51.8688525 25.9669428,51.8688525 C23.9187086,51.8688525 22.2580645,49.7949363 22.2580645,47.2382037 C22.2580645,44.6804735 23.9187086,42.6065574 25.9669428,42.6065574 C28.0167753,42.6065574 29.6774194,44.6804735 29.6774194,47.2382037" id="Fill-29"></path>
                <path d="M50.0806452,47.2382037 C50.0806452,49.7949363 48.4196433,51.8688525 46.3709677,51.8688525 C44.3214929,51.8688525 42.6612903,49.7949363 42.6612903,47.2382037 C42.6612903,44.6804735 44.3214929,42.6065574 46.3709677,42.6065574 C48.4196433,42.6065574 50.0806452,44.6804735 50.0806452,47.2382037" id="Fill-31"></path>
                <path d="M72.3387097,47.2382037 C72.3387097,49.7949363 70.6777078,51.8688525 68.6274336,51.8688525 C66.5787581,51.8688525 64.9193548,49.7949363 64.9193548,47.2382037 C64.9193548,44.6804735 66.5787581,42.6065574 68.6274336,42.6065574 C70.6777078,42.6065574 72.3387097,44.6804735 72.3387097,47.2382037" id="Fill-33"></path>
                <path d="M92.7419355,47.2382037 C92.7419355,49.7949363 91.0820906,51.8688525 89.0314589,51.8688525 C86.9832247,51.8688525 85.3225806,49.7949363 85.3225806,47.2382037 C85.3225806,44.6804735 86.9832247,42.6065574 89.0314589,42.6065574 C91.0820906,42.6065574 92.7419355,44.6804735 92.7419355,47.2382037" id="Fill-35"></path>
                <path d="M7.41935484,67.6142553 C7.41935484,70.1719855 5.75871079,72.2459016 3.70807911,72.2459016 C1.66064405,72.2459016 0,70.1719855 0,67.6142553 C0,65.0575227 1.66064405,62.9836066 3.70807911,62.9836066 C5.75871079,62.9836066 7.41935484,65.0575227 7.41935484,67.6142553" id="Fill-40"></path>
                <path d="M29.6774194,67.6142553 C29.6774194,70.1719855 28.0167753,72.2459016 25.9669428,72.2459016 C23.9187086,72.2459016 22.2580645,70.1719855 22.2580645,67.6142553 C22.2580645,65.0575227 23.9187086,62.9836066 25.9669428,62.9836066 C28.0167753,62.9836066 29.6774194,65.0575227 29.6774194,67.6142553" id="Fill-42"></path>
                <path d="M50.0806452,67.6142553 C50.0806452,70.1719855 48.4196433,72.2459016 46.3709677,72.2459016 C44.3214929,72.2459016 42.6612903,70.1719855 42.6612903,67.6142553 C42.6612903,65.0575227 44.3214929,62.9836066 46.3709677,62.9836066 C48.4196433,62.9836066 50.0806452,65.0575227 50.0806452,67.6142553" id="Fill-44"></path>
                <path d="M72.3387097,67.6142553 C72.3387097,70.1719855 70.6777078,72.2459016 68.6274336,72.2459016 C66.5787581,72.2459016 64.9193548,70.1719855 64.9193548,67.6142553 C64.9193548,65.0575227 66.5787581,62.9836066 68.6274336,62.9836066 C70.6777078,62.9836066 72.3387097,65.0575227 72.3387097,67.6142553" id="Fill-46"></path>
                <path d="M92.7419355,67.6142553 C92.7419355,70.1719855 91.0820906,72.2459016 89.0314589,72.2459016 C86.9832247,72.2459016 85.3225806,70.1719855 85.3225806,67.6142553 C85.3225806,65.0575227 86.9832247,62.9836066 89.0314589,62.9836066 C91.0820906,62.9836066 92.7419355,65.0575227 92.7419355,67.6142553" id="Fill-48"></path>
                <path d="M7.41935484,88.9180328 C7.41935484,90.9636392 5.75871079,92.6229508 3.70807911,92.6229508 C1.66064405,92.6229508 0,90.9636392 0,88.9180328 C0,86.8716283 1.66064405,85.2131148 3.70807911,85.2131148 C5.75871079,85.2131148 7.41935484,86.8716283 7.41935484,88.9180328" id="Fill-53"></path>
                <path d="M29.6774194,88.9180328 C29.6774194,90.9636392 28.0167753,92.6229508 25.9669428,92.6229508 C23.9187086,92.6229508 22.2580645,90.9636392 22.2580645,88.9180328 C22.2580645,86.8716283 23.9187086,85.2131148 25.9669428,85.2131148 C28.0167753,85.2131148 29.6774194,86.8716283 29.6774194,88.9180328" id="Fill-55"></path>
                <path d="M50.0806452,88.9180328 C50.0806452,90.9636392 48.4196433,92.6229508 46.3709677,92.6229508 C44.3214929,92.6229508 42.6612903,90.9636392 42.6612903,88.9180328 C42.6612903,86.8716283 44.3214929,85.2131148 46.3709677,85.2131148 C48.4196433,85.2131148 50.0806452,86.8716283 50.0806452,88.9180328" id="Fill-57"></path>
                <path d="M72.3387097,88.9180328 C72.3387097,90.9636392 70.6777078,92.6229508 68.6274336,92.6229508 C66.5787581,92.6229508 64.9193548,90.9636392 64.9193548,88.9180328 C64.9193548,86.8716283 66.5787581,85.2131148 68.6274336,85.2131148 C70.6777078,85.2131148 72.3387097,86.8716283 72.3387097,88.9180328" id="Fill-59"></path>
                <path d="M92.7419355,88.9180328 C92.7419355,90.9636392 91.0820906,92.6229508 89.0314589,92.6229508 C86.9832247,92.6229508 85.3225806,90.9636392 85.3225806,88.9180328 C85.3225806,86.8716283 86.9832247,85.2131148 89.0314589,85.2131148 C91.0820906,85.2131148 92.7419355,86.8716283 92.7419355,88.9180328" id="Fill-61"></path>
                <path d="M7.41935484,109.295082 C7.41935484,111.341486 5.75871079,113 3.70807911,113 C1.66064405,113 0,111.341486 0,109.295082 C0,107.248677 1.66064405,105.590164 3.70807911,105.590164 C5.75871079,105.590164 7.41935484,107.248677 7.41935484,109.295082" id="Fill-66"></path>
                <path d="M29.6774194,109.295082 C29.6774194,111.341486 28.0167753,113 25.9669428,113 C23.9187086,113 22.2580645,111.341486 22.2580645,109.295082 C22.2580645,107.248677 23.9187086,105.590164 25.9669428,105.590164 C28.0167753,105.590164 29.6774194,107.248677 29.6774194,109.295082" id="Fill-68"></path>
                <path d="M50.0806452,109.295082 C50.0806452,111.341486 48.4196433,113 46.3709677,113 C44.3214929,113 42.6612903,111.341486 42.6612903,109.295082 C42.6612903,107.248677 44.3214929,105.590164 46.3709677,105.590164 C48.4196433,105.590164 50.0806452,107.248677 50.0806452,109.295082" id="Fill-70"></path>
                <path d="M72.3387097,109.295082 C72.3387097,111.341486 70.6777078,113 68.6274336,113 C66.5787581,113 64.9193548,111.341486 64.9193548,109.295082 C64.9193548,107.248677 66.5787581,105.590164 68.6274336,105.590164 C70.6777078,105.590164 72.3387097,107.248677 72.3387097,109.295082" id="Fill-72"></path>
                <path d="M92.7419355,109.295082 C92.7419355,111.341486 91.0820906,113 89.0314589,113 C86.9832247,113 85.3225806,111.341486 85.3225806,109.295082 C85.3225806,107.248677 86.9832247,105.590164 89.0314589,105.590164 C91.0820906,105.590164 92.7419355,107.248677 92.7419355,109.295082" id="Fill-74"></path>
                <path d="M115,3.70491803 C115,5.75132256 113.340155,7.40983607 111.289523,7.40983607 C109.241289,7.40983607 107.580645,5.75132256 107.580645,3.70491803 C107.580645,1.6585135 109.241289,0 111.289523,0 C113.340155,0 115,1.6585135 115,3.70491803" id="Fill-9-Copy"></path>
                <path d="M115,24.0819672 C115,26.1283717 113.340155,27.7868852 111.289523,27.7868852 C109.241289,27.7868852 107.580645,26.1283717 107.580645,24.0819672 C107.580645,22.0363608 109.241289,20.3770492 111.289523,20.3770492 C113.340155,20.3770492 115,22.0363608 115,24.0819672" id="Fill-22-Copy"></path>
                <path d="M115,47.2382037 C115,49.7949363 113.340155,51.8688525 111.289523,51.8688525 C109.241289,51.8688525 107.580645,49.7949363 107.580645,47.2382037 C107.580645,44.6804735 109.241289,42.6065574 111.289523,42.6065574 C113.340155,42.6065574 115,44.6804735 115,47.2382037" id="Fill-35-Copy"></path>
                <path d="M115,67.6142553 C115,70.1719855 113.340155,72.2459016 111.289523,72.2459016 C109.241289,72.2459016 107.580645,70.1719855 107.580645,67.6142553 C107.580645,65.0575227 109.241289,62.9836066 111.289523,62.9836066 C113.340155,62.9836066 115,65.0575227 115,67.6142553" id="Fill-48-Copy"></path>
                <path d="M115,88.9180328 C115,90.9636392 113.340155,92.6229508 111.289523,92.6229508 C109.241289,92.6229508 107.580645,90.9636392 107.580645,88.9180328 C107.580645,86.8716283 109.241289,85.2131148 111.289523,85.2131148 C113.340155,85.2131148 115,86.8716283 115,88.9180328" id="Fill-61-Copy"></path>
                <path d="M115,109.295082 C115,111.341486 113.340155,113 111.289523,113 C109.241289,113 107.580645,111.341486 107.580645,109.295082 C107.580645,107.248677 109.241289,105.590164 111.289523,105.590164 C113.340155,105.590164 115,107.248677 115,109.295082" id="Fill-74-Copy"></path>
            </g>
            <g id="Group-79-Copy-3" transform="translate(130.253753, 0.098076)">
                <path d="M7.41935484,3.70491803 C7.41935484,5.75132256 5.75871079,7.40983607 3.70807911,7.40983607 C1.66064405,7.40983607 0,5.75132256 0,3.70491803 C0,1.6585135 1.66064405,0 3.70807911,0 C5.75871079,0 7.41935484,1.6585135 7.41935484,3.70491803" id="Fill-1"></path>
                <path d="M29.6774194,3.70491803 C29.6774194,5.75132256 28.0167753,7.40983607 25.9669428,7.40983607 C23.9187086,7.40983607 22.2580645,5.75132256 22.2580645,3.70491803 C22.2580645,1.6585135 23.9187086,0 25.9669428,0 C28.0167753,0 29.6774194,1.6585135 29.6774194,3.70491803" id="Fill-3"></path>
                <path d="M50.0806452,3.70491803 C50.0806452,5.75132256 48.4196433,7.40983607 46.3709677,7.40983607 C44.3214929,7.40983607 42.6612903,5.75132256 42.6612903,3.70491803 C42.6612903,1.6585135 44.3214929,0 46.3709677,0 C48.4196433,0 50.0806452,1.6585135 50.0806452,3.70491803" id="Fill-5"></path>
                <path d="M72.3387097,3.70491803 C72.3387097,5.75132256 70.6777078,7.40983607 68.6274336,7.40983607 C66.5787581,7.40983607 64.9193548,5.75132256 64.9193548,3.70491803 C64.9193548,1.6585135 66.5787581,0 68.6274336,0 C70.6777078,0 72.3387097,1.6585135 72.3387097,3.70491803" id="Fill-7"></path>
                <path d="M92.7419355,3.70491803 C92.7419355,5.75132256 91.0820906,7.40983607 89.0314589,7.40983607 C86.9832247,7.40983607 85.3225806,5.75132256 85.3225806,3.70491803 C85.3225806,1.6585135 86.9832247,0 89.0314589,0 C91.0820906,0 92.7419355,1.6585135 92.7419355,3.70491803" id="Fill-9"></path>
                <path d="M7.41935484,24.0819672 C7.41935484,26.1283717 5.75871079,27.7868852 3.70807911,27.7868852 C1.66064405,27.7868852 0,26.1283717 0,24.0819672 C0,22.0363608 1.66064405,20.3770492 3.70807911,20.3770492 C5.75871079,20.3770492 7.41935484,22.0363608 7.41935484,24.0819672" id="Fill-14"></path>
                <path d="M29.6774194,24.0819672 C29.6774194,26.1283717 28.0167753,27.7868852 25.9669428,27.7868852 C23.9187086,27.7868852 22.2580645,26.1283717 22.2580645,24.0819672 C22.2580645,22.0363608 23.9187086,20.3770492 25.9669428,20.3770492 C28.0167753,20.3770492 29.6774194,22.0363608 29.6774194,24.0819672" id="Fill-16"></path>
                <path d="M50.0806452,24.0819672 C50.0806452,26.1283717 48.4196433,27.7868852 46.3709677,27.7868852 C44.3214929,27.7868852 42.6612903,26.1283717 42.6612903,24.0819672 C42.6612903,22.0363608 44.3214929,20.3770492 46.3709677,20.3770492 C48.4196433,20.3770492 50.0806452,22.0363608 50.0806452,24.0819672" id="Fill-18"></path>
                <path d="M72.3387097,24.0819672 C72.3387097,26.1283717 70.6777078,27.7868852 68.6274336,27.7868852 C66.5787581,27.7868852 64.9193548,26.1283717 64.9193548,24.0819672 C64.9193548,22.0363608 66.5787581,20.3770492 68.6274336,20.3770492 C70.6777078,20.3770492 72.3387097,22.0363608 72.3387097,24.0819672" id="Fill-20"></path>
                <path d="M92.7419355,24.0819672 C92.7419355,26.1283717 91.0820906,27.7868852 89.0314589,27.7868852 C86.9832247,27.7868852 85.3225806,26.1283717 85.3225806,24.0819672 C85.3225806,22.0363608 86.9832247,20.3770492 89.0314589,20.3770492 C91.0820906,20.3770492 92.7419355,22.0363608 92.7419355,24.0819672" id="Fill-22"></path>
                <path d="M7.41935484,47.2382037 C7.41935484,49.7949363 5.75871079,51.8688525 3.70807911,51.8688525 C1.66064405,51.8688525 0,49.7949363 0,47.2382037 C0,44.6804735 1.66064405,42.6065574 3.70807911,42.6065574 C5.75871079,42.6065574 7.41935484,44.6804735 7.41935484,47.2382037" id="Fill-27"></path>
                <path d="M29.6774194,47.2382037 C29.6774194,49.7949363 28.0167753,51.8688525 25.9669428,51.8688525 C23.9187086,51.8688525 22.2580645,49.7949363 22.2580645,47.2382037 C22.2580645,44.6804735 23.9187086,42.6065574 25.9669428,42.6065574 C28.0167753,42.6065574 29.6774194,44.6804735 29.6774194,47.2382037" id="Fill-29"></path>
                <path d="M50.0806452,47.2382037 C50.0806452,49.7949363 48.4196433,51.8688525 46.3709677,51.8688525 C44.3214929,51.8688525 42.6612903,49.7949363 42.6612903,47.2382037 C42.6612903,44.6804735 44.3214929,42.6065574 46.3709677,42.6065574 C48.4196433,42.6065574 50.0806452,44.6804735 50.0806452,47.2382037" id="Fill-31"></path>
                <path d="M72.3387097,47.2382037 C72.3387097,49.7949363 70.6777078,51.8688525 68.6274336,51.8688525 C66.5787581,51.8688525 64.9193548,49.7949363 64.9193548,47.2382037 C64.9193548,44.6804735 66.5787581,42.6065574 68.6274336,42.6065574 C70.6777078,42.6065574 72.3387097,44.6804735 72.3387097,47.2382037" id="Fill-33"></path>
                <path d="M92.7419355,47.2382037 C92.7419355,49.7949363 91.0820906,51.8688525 89.0314589,51.8688525 C86.9832247,51.8688525 85.3225806,49.7949363 85.3225806,47.2382037 C85.3225806,44.6804735 86.9832247,42.6065574 89.0314589,42.6065574 C91.0820906,42.6065574 92.7419355,44.6804735 92.7419355,47.2382037" id="Fill-35"></path>
                <path d="M7.41935484,67.6142553 C7.41935484,70.1719855 5.75871079,72.2459016 3.70807911,72.2459016 C1.66064405,72.2459016 0,70.1719855 0,67.6142553 C0,65.0575227 1.66064405,62.9836066 3.70807911,62.9836066 C5.75871079,62.9836066 7.41935484,65.0575227 7.41935484,67.6142553" id="Fill-40"></path>
                <path d="M29.6774194,67.6142553 C29.6774194,70.1719855 28.0167753,72.2459016 25.9669428,72.2459016 C23.9187086,72.2459016 22.2580645,70.1719855 22.2580645,67.6142553 C22.2580645,65.0575227 23.9187086,62.9836066 25.9669428,62.9836066 C28.0167753,62.9836066 29.6774194,65.0575227 29.6774194,67.6142553" id="Fill-42"></path>
                <path d="M50.0806452,67.6142553 C50.0806452,70.1719855 48.4196433,72.2459016 46.3709677,72.2459016 C44.3214929,72.2459016 42.6612903,70.1719855 42.6612903,67.6142553 C42.6612903,65.0575227 44.3214929,62.9836066 46.3709677,62.9836066 C48.4196433,62.9836066 50.0806452,65.0575227 50.0806452,67.6142553" id="Fill-44"></path>
                <path d="M72.3387097,67.6142553 C72.3387097,70.1719855 70.6777078,72.2459016 68.6274336,72.2459016 C66.5787581,72.2459016 64.9193548,70.1719855 64.9193548,67.6142553 C64.9193548,65.0575227 66.5787581,62.9836066 68.6274336,62.9836066 C70.6777078,62.9836066 72.3387097,65.0575227 72.3387097,67.6142553" id="Fill-46"></path>
                <path d="M92.7419355,67.6142553 C92.7419355,70.1719855 91.0820906,72.2459016 89.0314589,72.2459016 C86.9832247,72.2459016 85.3225806,70.1719855 85.3225806,67.6142553 C85.3225806,65.0575227 86.9832247,62.9836066 89.0314589,62.9836066 C91.0820906,62.9836066 92.7419355,65.0575227 92.7419355,67.6142553" id="Fill-48"></path>
                <path d="M7.41935484,88.9180328 C7.41935484,90.9636392 5.75871079,92.6229508 3.70807911,92.6229508 C1.66064405,92.6229508 0,90.9636392 0,88.9180328 C0,86.8716283 1.66064405,85.2131148 3.70807911,85.2131148 C5.75871079,85.2131148 7.41935484,86.8716283 7.41935484,88.9180328" id="Fill-53"></path>
                <path d="M29.6774194,88.9180328 C29.6774194,90.9636392 28.0167753,92.6229508 25.9669428,92.6229508 C23.9187086,92.6229508 22.2580645,90.9636392 22.2580645,88.9180328 C22.2580645,86.8716283 23.9187086,85.2131148 25.9669428,85.2131148 C28.0167753,85.2131148 29.6774194,86.8716283 29.6774194,88.9180328" id="Fill-55"></path>
                <path d="M50.0806452,88.9180328 C50.0806452,90.9636392 48.4196433,92.6229508 46.3709677,92.6229508 C44.3214929,92.6229508 42.6612903,90.9636392 42.6612903,88.9180328 C42.6612903,86.8716283 44.3214929,85.2131148 46.3709677,85.2131148 C48.4196433,85.2131148 50.0806452,86.8716283 50.0806452,88.9180328" id="Fill-57"></path>
                <path d="M72.3387097,88.9180328 C72.3387097,90.9636392 70.6777078,92.6229508 68.6274336,92.6229508 C66.5787581,92.6229508 64.9193548,90.9636392 64.9193548,88.9180328 C64.9193548,86.8716283 66.5787581,85.2131148 68.6274336,85.2131148 C70.6777078,85.2131148 72.3387097,86.8716283 72.3387097,88.9180328" id="Fill-59"></path>
                <path d="M92.7419355,88.9180328 C92.7419355,90.9636392 91.0820906,92.6229508 89.0314589,92.6229508 C86.9832247,92.6229508 85.3225806,90.9636392 85.3225806,88.9180328 C85.3225806,86.8716283 86.9832247,85.2131148 89.0314589,85.2131148 C91.0820906,85.2131148 92.7419355,86.8716283 92.7419355,88.9180328" id="Fill-61"></path>
                <path d="M7.41935484,109.295082 C7.41935484,111.341486 5.75871079,113 3.70807911,113 C1.66064405,113 0,111.341486 0,109.295082 C0,107.248677 1.66064405,105.590164 3.70807911,105.590164 C5.75871079,105.590164 7.41935484,107.248677 7.41935484,109.295082" id="Fill-66"></path>
                <path d="M29.6774194,109.295082 C29.6774194,111.341486 28.0167753,113 25.9669428,113 C23.9187086,113 22.2580645,111.341486 22.2580645,109.295082 C22.2580645,107.248677 23.9187086,105.590164 25.9669428,105.590164 C28.0167753,105.590164 29.6774194,107.248677 29.6774194,109.295082" id="Fill-68"></path>
                <path d="M50.0806452,109.295082 C50.0806452,111.341486 48.4196433,113 46.3709677,113 C44.3214929,113 42.6612903,111.341486 42.6612903,109.295082 C42.6612903,107.248677 44.3214929,105.590164 46.3709677,105.590164 C48.4196433,105.590164 50.0806452,107.248677 50.0806452,109.295082" id="Fill-70"></path>
                <path d="M72.3387097,109.295082 C72.3387097,111.341486 70.6777078,113 68.6274336,113 C66.5787581,113 64.9193548,111.341486 64.9193548,109.295082 C64.9193548,107.248677 66.5787581,105.590164 68.6274336,105.590164 C70.6777078,105.590164 72.3387097,107.248677 72.3387097,109.295082" id="Fill-72"></path>
                <path d="M92.7419355,109.295082 C92.7419355,111.341486 91.0820906,113 89.0314589,113 C86.9832247,113 85.3225806,111.341486 85.3225806,109.295082 C85.3225806,107.248677 86.9832247,105.590164 89.0314589,105.590164 C91.0820906,105.590164 92.7419355,107.248677 92.7419355,109.295082" id="Fill-74"></path>
                <path d="M115,3.70491803 C115,5.75132256 113.340155,7.40983607 111.289523,7.40983607 C109.241289,7.40983607 107.580645,5.75132256 107.580645,3.70491803 C107.580645,1.6585135 109.241289,0 111.289523,0 C113.340155,0 115,1.6585135 115,3.70491803" id="Fill-9-Copy"></path>
                <path d="M115,24.0819672 C115,26.1283717 113.340155,27.7868852 111.289523,27.7868852 C109.241289,27.7868852 107.580645,26.1283717 107.580645,24.0819672 C107.580645,22.0363608 109.241289,20.3770492 111.289523,20.3770492 C113.340155,20.3770492 115,22.0363608 115,24.0819672" id="Fill-22-Copy"></path>
                <path d="M115,47.2382037 C115,49.7949363 113.340155,51.8688525 111.289523,51.8688525 C109.241289,51.8688525 107.580645,49.7949363 107.580645,47.2382037 C107.580645,44.6804735 109.241289,42.6065574 111.289523,42.6065574 C113.340155,42.6065574 115,44.6804735 115,47.2382037" id="Fill-35-Copy"></path>
                <path d="M115,67.6142553 C115,70.1719855 113.340155,72.2459016 111.289523,72.2459016 C109.241289,72.2459016 107.580645,70.1719855 107.580645,67.6142553 C107.580645,65.0575227 109.241289,62.9836066 111.289523,62.9836066 C113.340155,62.9836066 115,65.0575227 115,67.6142553" id="Fill-48-Copy"></path>
                <path d="M115,88.9180328 C115,90.9636392 113.340155,92.6229508 111.289523,92.6229508 C109.241289,92.6229508 107.580645,90.9636392 107.580645,88.9180328 C107.580645,86.8716283 109.241289,85.2131148 111.289523,85.2131148 C113.340155,85.2131148 115,86.8716283 115,88.9180328" id="Fill-61-Copy"></path>
                <path d="M115,109.295082 C115,111.341486 113.340155,113 111.289523,113 C109.241289,113 107.580645,111.341486 107.580645,109.295082 C107.580645,107.248677 109.241289,105.590164 111.289523,105.590164 C113.340155,105.590164 115,107.248677 115,109.295082" id="Fill-74-Copy"></path>
            </g>
            <g id="Group-79-Copy-2" transform="translate(130.560178, 124.628820)">
                <path d="M7.41935484,3.70491803 C7.41935484,5.75132256 5.75871079,7.40983607 3.70807911,7.40983607 C1.66064405,7.40983607 0,5.75132256 0,3.70491803 C0,1.6585135 1.66064405,0 3.70807911,0 C5.75871079,0 7.41935484,1.6585135 7.41935484,3.70491803" id="Fill-1"></path>
                <path d="M29.6774194,3.70491803 C29.6774194,5.75132256 28.0167753,7.40983607 25.9669428,7.40983607 C23.9187086,7.40983607 22.2580645,5.75132256 22.2580645,3.70491803 C22.2580645,1.6585135 23.9187086,0 25.9669428,0 C28.0167753,0 29.6774194,1.6585135 29.6774194,3.70491803" id="Fill-3"></path>
                <path d="M50.0806452,3.70491803 C50.0806452,5.75132256 48.4196433,7.40983607 46.3709677,7.40983607 C44.3214929,7.40983607 42.6612903,5.75132256 42.6612903,3.70491803 C42.6612903,1.6585135 44.3214929,0 46.3709677,0 C48.4196433,0 50.0806452,1.6585135 50.0806452,3.70491803" id="Fill-5"></path>
                <path d="M72.3387097,3.70491803 C72.3387097,5.75132256 70.6777078,7.40983607 68.6274336,7.40983607 C66.5787581,7.40983607 64.9193548,5.75132256 64.9193548,3.70491803 C64.9193548,1.6585135 66.5787581,0 68.6274336,0 C70.6777078,0 72.3387097,1.6585135 72.3387097,3.70491803" id="Fill-7"></path>
                <path d="M92.7419355,3.70491803 C92.7419355,5.75132256 91.0820906,7.40983607 89.0314589,7.40983607 C86.9832247,7.40983607 85.3225806,5.75132256 85.3225806,3.70491803 C85.3225806,1.6585135 86.9832247,0 89.0314589,0 C91.0820906,0 92.7419355,1.6585135 92.7419355,3.70491803" id="Fill-9"></path>
                <path d="M7.41935484,24.0819672 C7.41935484,26.1283717 5.75871079,27.7868852 3.70807911,27.7868852 C1.66064405,27.7868852 0,26.1283717 0,24.0819672 C0,22.0363608 1.66064405,20.3770492 3.70807911,20.3770492 C5.75871079,20.3770492 7.41935484,22.0363608 7.41935484,24.0819672" id="Fill-14"></path>
                <path d="M29.6774194,24.0819672 C29.6774194,26.1283717 28.0167753,27.7868852 25.9669428,27.7868852 C23.9187086,27.7868852 22.2580645,26.1283717 22.2580645,24.0819672 C22.2580645,22.0363608 23.9187086,20.3770492 25.9669428,20.3770492 C28.0167753,20.3770492 29.6774194,22.0363608 29.6774194,24.0819672" id="Fill-16"></path>
                <path d="M50.0806452,24.0819672 C50.0806452,26.1283717 48.4196433,27.7868852 46.3709677,27.7868852 C44.3214929,27.7868852 42.6612903,26.1283717 42.6612903,24.0819672 C42.6612903,22.0363608 44.3214929,20.3770492 46.3709677,20.3770492 C48.4196433,20.3770492 50.0806452,22.0363608 50.0806452,24.0819672" id="Fill-18"></path>
                <path d="M72.3387097,24.0819672 C72.3387097,26.1283717 70.6777078,27.7868852 68.6274336,27.7868852 C66.5787581,27.7868852 64.9193548,26.1283717 64.9193548,24.0819672 C64.9193548,22.0363608 66.5787581,20.3770492 68.6274336,20.3770492 C70.6777078,20.3770492 72.3387097,22.0363608 72.3387097,24.0819672" id="Fill-20"></path>
                <path d="M92.7419355,24.0819672 C92.7419355,26.1283717 91.0820906,27.7868852 89.0314589,27.7868852 C86.9832247,27.7868852 85.3225806,26.1283717 85.3225806,24.0819672 C85.3225806,22.0363608 86.9832247,20.3770492 89.0314589,20.3770492 C91.0820906,20.3770492 92.7419355,22.0363608 92.7419355,24.0819672" id="Fill-22"></path>
                <path d="M7.41935484,47.2382037 C7.41935484,49.7949363 5.75871079,51.8688525 3.70807911,51.8688525 C1.66064405,51.8688525 0,49.7949363 0,47.2382037 C0,44.6804735 1.66064405,42.6065574 3.70807911,42.6065574 C5.75871079,42.6065574 7.41935484,44.6804735 7.41935484,47.2382037" id="Fill-27"></path>
                <path d="M29.6774194,47.2382037 C29.6774194,49.7949363 28.0167753,51.8688525 25.9669428,51.8688525 C23.9187086,51.8688525 22.2580645,49.7949363 22.2580645,47.2382037 C22.2580645,44.6804735 23.9187086,42.6065574 25.9669428,42.6065574 C28.0167753,42.6065574 29.6774194,44.6804735 29.6774194,47.2382037" id="Fill-29"></path>
                <path d="M50.0806452,47.2382037 C50.0806452,49.7949363 48.4196433,51.8688525 46.3709677,51.8688525 C44.3214929,51.8688525 42.6612903,49.7949363 42.6612903,47.2382037 C42.6612903,44.6804735 44.3214929,42.6065574 46.3709677,42.6065574 C48.4196433,42.6065574 50.0806452,44.6804735 50.0806452,47.2382037" id="Fill-31"></path>
                <path d="M72.3387097,47.2382037 C72.3387097,49.7949363 70.6777078,51.8688525 68.6274336,51.8688525 C66.5787581,51.8688525 64.9193548,49.7949363 64.9193548,47.2382037 C64.9193548,44.6804735 66.5787581,42.6065574 68.6274336,42.6065574 C70.6777078,42.6065574 72.3387097,44.6804735 72.3387097,47.2382037" id="Fill-33"></path>
                <path d="M92.7419355,47.2382037 C92.7419355,49.7949363 91.0820906,51.8688525 89.0314589,51.8688525 C86.9832247,51.8688525 85.3225806,49.7949363 85.3225806,47.2382037 C85.3225806,44.6804735 86.9832247,42.6065574 89.0314589,42.6065574 C91.0820906,42.6065574 92.7419355,44.6804735 92.7419355,47.2382037" id="Fill-35"></path>
                <path d="M7.41935484,67.6142553 C7.41935484,70.1719855 5.75871079,72.2459016 3.70807911,72.2459016 C1.66064405,72.2459016 0,70.1719855 0,67.6142553 C0,65.0575227 1.66064405,62.9836066 3.70807911,62.9836066 C5.75871079,62.9836066 7.41935484,65.0575227 7.41935484,67.6142553" id="Fill-40"></path>
                <path d="M29.6774194,67.6142553 C29.6774194,70.1719855 28.0167753,72.2459016 25.9669428,72.2459016 C23.9187086,72.2459016 22.2580645,70.1719855 22.2580645,67.6142553 C22.2580645,65.0575227 23.9187086,62.9836066 25.9669428,62.9836066 C28.0167753,62.9836066 29.6774194,65.0575227 29.6774194,67.6142553" id="Fill-42"></path>
                <path d="M50.0806452,67.6142553 C50.0806452,70.1719855 48.4196433,72.2459016 46.3709677,72.2459016 C44.3214929,72.2459016 42.6612903,70.1719855 42.6612903,67.6142553 C42.6612903,65.0575227 44.3214929,62.9836066 46.3709677,62.9836066 C48.4196433,62.9836066 50.0806452,65.0575227 50.0806452,67.6142553" id="Fill-44"></path>
                <path d="M72.3387097,67.6142553 C72.3387097,70.1719855 70.6777078,72.2459016 68.6274336,72.2459016 C66.5787581,72.2459016 64.9193548,70.1719855 64.9193548,67.6142553 C64.9193548,65.0575227 66.5787581,62.9836066 68.6274336,62.9836066 C70.6777078,62.9836066 72.3387097,65.0575227 72.3387097,67.6142553" id="Fill-46"></path>
                <path d="M92.7419355,67.6142553 C92.7419355,70.1719855 91.0820906,72.2459016 89.0314589,72.2459016 C86.9832247,72.2459016 85.3225806,70.1719855 85.3225806,67.6142553 C85.3225806,65.0575227 86.9832247,62.9836066 89.0314589,62.9836066 C91.0820906,62.9836066 92.7419355,65.0575227 92.7419355,67.6142553" id="Fill-48"></path>
                <path d="M7.41935484,88.9180328 C7.41935484,90.9636392 5.75871079,92.6229508 3.70807911,92.6229508 C1.66064405,92.6229508 0,90.9636392 0,88.9180328 C0,86.8716283 1.66064405,85.2131148 3.70807911,85.2131148 C5.75871079,85.2131148 7.41935484,86.8716283 7.41935484,88.9180328" id="Fill-53"></path>
                <path d="M29.6774194,88.9180328 C29.6774194,90.9636392 28.0167753,92.6229508 25.9669428,92.6229508 C23.9187086,92.6229508 22.2580645,90.9636392 22.2580645,88.9180328 C22.2580645,86.8716283 23.9187086,85.2131148 25.9669428,85.2131148 C28.0167753,85.2131148 29.6774194,86.8716283 29.6774194,88.9180328" id="Fill-55"></path>
                <path d="M50.0806452,88.9180328 C50.0806452,90.9636392 48.4196433,92.6229508 46.3709677,92.6229508 C44.3214929,92.6229508 42.6612903,90.9636392 42.6612903,88.9180328 C42.6612903,86.8716283 44.3214929,85.2131148 46.3709677,85.2131148 C48.4196433,85.2131148 50.0806452,86.8716283 50.0806452,88.9180328" id="Fill-57"></path>
                <path d="M72.3387097,88.9180328 C72.3387097,90.9636392 70.6777078,92.6229508 68.6274336,92.6229508 C66.5787581,92.6229508 64.9193548,90.9636392 64.9193548,88.9180328 C64.9193548,86.8716283 66.5787581,85.2131148 68.6274336,85.2131148 C70.6777078,85.2131148 72.3387097,86.8716283 72.3387097,88.9180328" id="Fill-59"></path>
                <path d="M92.7419355,88.9180328 C92.7419355,90.9636392 91.0820906,92.6229508 89.0314589,92.6229508 C86.9832247,92.6229508 85.3225806,90.9636392 85.3225806,88.9180328 C85.3225806,86.8716283 86.9832247,85.2131148 89.0314589,85.2131148 C91.0820906,85.2131148 92.7419355,86.8716283 92.7419355,88.9180328" id="Fill-61"></path>
                <path d="M7.41935484,109.295082 C7.41935484,111.341486 5.75871079,113 3.70807911,113 C1.66064405,113 0,111.341486 0,109.295082 C0,107.248677 1.66064405,105.590164 3.70807911,105.590164 C5.75871079,105.590164 7.41935484,107.248677 7.41935484,109.295082" id="Fill-66"></path>
                <path d="M29.6774194,109.295082 C29.6774194,111.341486 28.0167753,113 25.9669428,113 C23.9187086,113 22.2580645,111.341486 22.2580645,109.295082 C22.2580645,107.248677 23.9187086,105.590164 25.9669428,105.590164 C28.0167753,105.590164 29.6774194,107.248677 29.6774194,109.295082" id="Fill-68"></path>
                <path d="M50.0806452,109.295082 C50.0806452,111.341486 48.4196433,113 46.3709677,113 C44.3214929,113 42.6612903,111.341486 42.6612903,109.295082 C42.6612903,107.248677 44.3214929,105.590164 46.3709677,105.590164 C48.4196433,105.590164 50.0806452,107.248677 50.0806452,109.295082" id="Fill-70"></path>
                <path d="M72.3387097,109.295082 C72.3387097,111.341486 70.6777078,113 68.6274336,113 C66.5787581,113 64.9193548,111.341486 64.9193548,109.295082 C64.9193548,107.248677 66.5787581,105.590164 68.6274336,105.590164 C70.6777078,105.590164 72.3387097,107.248677 72.3387097,109.295082" id="Fill-72"></path>
                <path d="M92.7419355,109.295082 C92.7419355,111.341486 91.0820906,113 89.0314589,113 C86.9832247,113 85.3225806,111.341486 85.3225806,109.295082 C85.3225806,107.248677 86.9832247,105.590164 89.0314589,105.590164 C91.0820906,105.590164 92.7419355,107.248677 92.7419355,109.295082" id="Fill-74"></path>
                <path d="M115,3.70491803 C115,5.75132256 113.340155,7.40983607 111.289523,7.40983607 C109.241289,7.40983607 107.580645,5.75132256 107.580645,3.70491803 C107.580645,1.6585135 109.241289,0 111.289523,0 C113.340155,0 115,1.6585135 115,3.70491803" id="Fill-9-Copy"></path>
                <path d="M115,24.0819672 C115,26.1283717 113.340155,27.7868852 111.289523,27.7868852 C109.241289,27.7868852 107.580645,26.1283717 107.580645,24.0819672 C107.580645,22.0363608 109.241289,20.3770492 111.289523,20.3770492 C113.340155,20.3770492 115,22.0363608 115,24.0819672" id="Fill-22-Copy"></path>
                <path d="M115,47.2382037 C115,49.7949363 113.340155,51.8688525 111.289523,51.8688525 C109.241289,51.8688525 107.580645,49.7949363 107.580645,47.2382037 C107.580645,44.6804735 109.241289,42.6065574 111.289523,42.6065574 C113.340155,42.6065574 115,44.6804735 115,47.2382037" id="Fill-35-Copy"></path>
                <path d="M115,67.6142553 C115,70.1719855 113.340155,72.2459016 111.289523,72.2459016 C109.241289,72.2459016 107.580645,70.1719855 107.580645,67.6142553 C107.580645,65.0575227 109.241289,62.9836066 111.289523,62.9836066 C113.340155,62.9836066 115,65.0575227 115,67.6142553" id="Fill-48-Copy"></path>
                <path d="M115,88.9180328 C115,90.9636392 113.340155,92.6229508 111.289523,92.6229508 C109.241289,92.6229508 107.580645,90.9636392 107.580645,88.9180328 C107.580645,86.8716283 109.241289,85.2131148 111.289523,85.2131148 C113.340155,85.2131148 115,86.8716283 115,88.9180328" id="Fill-61-Copy"></path>
                <path d="M115,109.295082 C115,111.341486 113.340155,113 111.289523,113 C109.241289,113 107.580645,111.341486 107.580645,109.295082 C107.580645,107.248677 109.241289,105.590164 111.289523,105.590164 C113.340155,105.590164 115,107.248677 115,109.295082" id="Fill-74-Copy"></path>
            </g>
        </g>
    </g>
</svg>