<?xml version="1.0" encoding="UTF-8"?>
<svg width="63px" height="63px" viewBox="0 0 63 63" version="1.1" xmlns="http://www.w3.org/2000/svg" xmlns:xlink="http://www.w3.org/1999/xlink">
    <title>Group 2</title>
    <defs>
        <filter id="filter-1">
            <feColorMatrix in="SourceGraphic" type="matrix" values="0 0 0 0 0.968627 0 0 0 0 0.709804 0 0 0 0 0.000000 0 0 0 1.000000 0"></feColorMatrix>
        </filter>
    </defs>
    <g id="Page-1" stroke="none" stroke-width="1" fill="none" fill-rule="evenodd">
        <g id="Group-2">
            <path d="M0,31.5023913 C0,48.9011615 14.1025505,63 31.5047821,63 C48.9022317,63 63,48.9011615 63,31.5023913 C63,14.103621 48.9022317,0 31.5047821,0 C14.1025505,0 0,14.103621 0,31.5023913" id="Fill-4-Copy-7" fill="#FFFAED"></path>
            <g filter="url(#filter-1)" id="Group">
                <g transform="translate(13.000000, 12.037500)">
                    <path d="M35.4091904,16.5634757 C35.0830635,16.5634757 34.8183807,16.8235034 34.8183807,17.1448175 L34.8183807,28.1632336 C34.8183807,29.6041344 33.6273085,30.7765328 32.163046,30.7765328 L11.2688665,30.7765328 C10.8947396,30.7765328 10.5409891,30.9182252 10.2731554,31.1761859 L4.44047265,36.7901389 C4.43143982,36.7990269 4.42534792,36.8051246 4.40560175,36.7966499 C4.38596061,36.7884853 4.38596061,36.7800106 4.38596061,36.7675053 L4.38596061,31.8244983 C4.38596061,31.2888371 3.98095405,30.8257273 3.44350109,30.7473882 C2.15401313,30.5588785 1.18161926,29.4482832 1.18161926,28.1632336 L1.18161926,10.7383794 C1.18161926,9.29747862 2.3731116,8.12518355 3.83737418,8.12518355 L23.3960613,8.12518355 C23.7221882,8.12518355 23.9868709,7.86474244 23.9868709,7.54384178 C23.9868709,7.22283777 23.7221882,6.9625 23.3960613,6.9625 L3.83737418,6.9625 C1.721593,6.9625 0,8.65598735 0,10.7383794 L0,28.163647 C0,29.9985167 1.37277899,31.5875175 3.20434136,31.8871282 L3.20434136,36.7675053 C3.20434136,37.2495281 3.49601751,37.6815296 3.94734354,37.8684891 C4.39866958,38.0553453 4.9164814,37.9589201 5.2668709,37.6213801 L11.0994486,32.0074272 C11.1453479,31.9634002 11.2053217,31.9392164 11.2688665,31.9392164 L32.163046,31.9392164 C34.2788271,31.9392164 36,30.2456257 36,28.163647 L36,17.1448175 C36,16.8235034 35.7357374,16.5634757 35.4091904,16.5634757 Z" id="Fill-1" fill="#000000"></path>
                    <path d="M7.5786728,15.9625 C7.25914254,15.9625 7,16.2139459 7,16.523986 L7,24.3940731 C7,24.6674793 7.20328133,24.9009577 7.4809414,24.9473739 C7.64780491,24.9751237 10.2469459,24.9563576 10.4246114,24.9555591 C10.7440387,24.9536625 11.0016382,24.7010188 11,24.3909787 C10.998449,24.0817371 10.7396151,23.8325871 10.4214222,23.8325871 L10.4181302,23.8325871 C9.74018289,23.8360808 8.7613257,23.8396743 8.1573456,23.8388757 L8.1573456,16.523986 C8.1573456,16.2139459 7.89851169,15.9625 7.5786728,15.9625 Z" id="Fill-3" fill="#000000"></path>
                    <path d="M12,16.5240018 L12,24.4009982 C12,24.7109472 12.448,24.9625 13,24.9625 C13.5521778,24.9625 14,24.7109472 14,24.4009982 L14,16.5240018 C14,16.213953 13.5521778,15.9625 13,15.9625 C12.448,15.9625 12,16.213953 12,16.5240018 Z" id="Fill-4" fill="#000000"></path>
                    <path d="M25.6363842,24.9625 L29.3636158,24.9625 C29.715013,24.9625 30,24.7090143 30,24.3964591 C30,24.083602 29.715013,23.8304182 29.3636158,23.8304182 L26.2727684,23.8304182 L26.2727684,21.0285912 L29.088811,21.0285912 C29.440095,21.0285912 29.7251952,20.7750049 29.7251952,20.4625503 C29.7251952,20.1495926 29.440095,19.8965094 29.088811,19.8965094 L26.2727684,19.8965094 L26.2727684,17.0945818 L29.3636158,17.0945818 C29.715013,17.0945818 30,16.8409955 30,16.5285409 C30,16.2155832 29.715013,15.9625 29.3636158,15.9625 L25.6363842,15.9625 C25.2846476,15.9625 25,16.2155832 25,16.5285409 L25,24.3964591 C25,24.7090143 25.2846476,24.9625 25.6363842,24.9625 Z" id="Fill-5" fill="#000000"></path>
                    <path d="M21.8603586,16.3618509 L19.5542497,23.0299493 L17.1370543,16.3399899 C17.0310598,16.0471127 16.6978004,15.8919895 16.3930141,15.993708 C16.0881239,16.0955263 15.9265342,16.4152556 16.0325287,16.7084323 L18.8374356,24.4707777 C18.9466515,24.7655515 19.2373052,24.9625 19.5627708,24.9625 L19.5680706,24.9625 C19.8953028,24.9601043 20.1859565,24.7589633 20.2926784,24.4575013 L22.970184,16.7158191 C23.0716062,16.4214445 22.9059637,16.1037116 22.5995148,16.0057864 C22.2934815,15.907961 21.9621966,16.0673765 21.8603586,16.3618509 Z" id="Fill-6" fill="#000000"></path>
                    <path d="M38.8238351,6.94521372 C37.5355893,5.66648785 35.8223057,4.9625 33.9997998,4.9625 C32.1776142,4.9625 30.4643306,5.66648785 29.1760848,6.94521372 C28.9413051,7.17775748 28.9413051,7.55523058 29.1760848,7.78777435 C29.4104375,8.02074188 29.7908469,8.02074188 30.0251996,7.78777435 C31.0869934,6.73417628 32.4983411,6.15392925 33.9997998,6.15392925 C35.5015788,6.15392925 36.9129265,6.73417628 37.9747203,7.78777435 C38.2091798,8.02074188 38.5894824,8.02074188 38.8238351,7.78777435 C39.0587216,7.55523058 39.0587216,7.17775748 38.8238351,6.94521372 Z" id="Fill-7" fill="#000000"></path>
                    <path d="M32.1576453,10.715495 C31.9474516,11.0005507 31.9474516,11.463263 32.1576453,11.7483186 C32.3678389,12.0338938 32.7090326,12.0338938 32.9192263,11.7483186 C33.0744536,11.5383255 33.2806253,11.4220955 33.4998204,11.4220955 C33.7193986,11.4220955 33.9254746,11.537806 34.0807019,11.7483186 C34.2908956,12.0338938 34.6320892,12.0338938 34.8422829,11.7483186 C35.0525724,11.463263 35.0525724,11.0005507 34.8422829,10.715495 C34.1020565,9.71150166 32.8979675,9.71150166 32.1576453,10.715495 Z" id="Fill-8" fill="#000000"></path>
                    <path d="M30.1576628,9.08595931 C29.9474457,9.28636102 29.9474457,9.61166002 30.1576628,9.81206174 C30.367402,10.0124634 30.7077625,10.0124634 30.9175973,9.81206174 C32.0656689,8.71501072 33.9342116,8.71501072 35.082761,9.81206174 C35.2925003,10.0128286 35.6328607,10.0124634 35.8426956,9.81206174 C36.0524348,9.61166002 36.0524348,9.28636102 35.8426956,9.08595931 C34.2753365,7.58801356 31.7249262,7.58801356 30.1576628,9.08595931 Z" id="Fill-9" fill="#000000"></path>
                    <path d="M33.9998509,0.9625 C30.140055,0.9625 27,4.10295267 27,7.96274856 C27,11.822445 30.140055,14.9625 33.9998509,14.9625 C37.859945,14.9625 41,11.822445 41,7.96274856 C41,4.10295267 37.859945,0.9625 33.9998509,0.9625 Z M33.9998509,13.8439635 C30.7568905,13.8439635 28.1185365,11.2057089 28.1185365,7.96274856 C28.1185365,4.71968882 30.7568905,2.08103646 33.9998509,2.08103646 C37.2432089,2.08103646 39.8814635,4.71968882 39.8814635,7.96274856 C39.8814635,11.2057089 37.2432089,13.8439635 33.9998509,13.8439635 Z" id="Fill-10" fill="#000000"></path>
                </g>
            </g>
        </g>
    </g>
</svg>