<?xml version="1.0" encoding="UTF-8"?>
<svg width="63px" height="63px" viewBox="0 0 63 63" version="1.1" xmlns="http://www.w3.org/2000/svg" xmlns:xlink="http://www.w3.org/1999/xlink">
    <title>Group 2</title>
    <defs>
        <filter id="filter-1">
            <feColorMatrix in="SourceGraphic" type="matrix" values="0 0 0 0 0.949020 0 0 0 0 0.356863 0 0 0 0 0.356863 0 0 0 1.000000 0"></feColorMatrix>
        </filter>
        <polygon id="path-2" points="0.00472340426 0.0517685775 36.9474915 0.0517685775 36.9474915 36.9214437 0.00472340426 36.9214437"></polygon>
    </defs>
    <g id="Page-1" stroke="none" stroke-width="1" fill="none" fill-rule="evenodd">
        <g id="Group-2">
            <path d="M0,31.5023913 C0,48.9011615 14.1025505,63 31.5047821,63 C48.9022317,63 63,48.9011615 63,31.5023913 C63,14.103621 48.9022317,0 31.5047821,0 C14.1025505,0 0,14.103621 0,31.5023913" id="Fill-4-Copy-5" fill="#FFF1F1"></path>
            <g filter="url(#filter-1)" id="Group">
                <g transform="translate(14.000000, 13.000000)">
                    <g id="Group-3">
                        <mask id="mask-3" fill="white">
                            <use xlink:href="#path-2"></use>
                        </mask>
                        <g id="Clip-2"></g>
                        <path d="M35.2680851,26.0282824 C35.2680851,26.490586 34.8917085,26.866242 34.4283426,26.866242 L28.5503809,26.866242 C26.6978617,26.866242 25.1914894,25.3629894 25.1914894,23.514482 C25.1914894,21.6659745 26.6978617,20.1627219 28.5503809,20.1627219 L34.4283426,20.1627219 C34.8917085,20.1627219 35.2680851,20.5383779 35.2680851,21.0006815 L35.2680851,26.0282824 Z M31.9091936,35.2455244 L3.35889149,35.2455244 C2.43302553,35.2455244 1.67940638,34.4935053 1.67940638,33.5696837 L1.67940638,13.4592803 C1.67940638,12.5354586 2.43302553,11.7834395 3.35889149,11.7834395 L31.9091936,11.7834395 C32.8350596,11.7834395 33.5886787,12.5354586 33.5886787,13.4592803 L33.5886787,18.4868811 L28.5503809,18.4868811 C25.7720745,18.4868811 23.512083,20.7420743 23.512083,23.514482 C23.512083,26.2868896 25.7720745,28.5420828 28.5503809,28.5420828 L33.5886787,28.5420828 L33.5886787,33.5696837 C33.5886787,34.4935053 32.8350596,35.2455244 31.9091936,35.2455244 Z M23.6400085,1.9516518 C24.0196915,1.72988747 24.4632979,1.67097028 24.8872234,1.78385563 C25.3161085,1.89839066 25.6736702,2.17498726 25.8959064,2.56203397 L25.8976383,2.56509766 L12.9153617,10.1075202 L9.60024043,10.1075202 L23.6400085,1.9516518 Z M28.3953745,6.91845011 L30.2250638,10.1075202 L22.9060702,10.1075202 L28.3953745,6.91845011 Z M16.2529979,10.1075202 L26.7320277,4.01940977 L27.5609851,5.464138 L19.5682766,10.1075202 L16.2529979,10.1075202 Z M35.2680851,18.6412442 L35.2680851,13.4592803 C35.2680851,11.7021338 33.902234,10.2731168 32.1765383,10.1345435 L27.3539426,1.72902335 C26.9070298,0.951630573 26.1853723,0.396002123 25.3218553,0.165282378 C24.4625106,-0.063866242 23.5637255,0.056403397 22.7945191,0.503231423 L6.26236809,10.1075202 L3.35889149,10.1075202 C1.50637234,10.1075202 0,11.6107728 0,13.4592803 L0,33.5696837 C0,35.4181911 1.50637234,36.9214437 3.35889149,36.9214437 L31.9091936,36.9214437 C33.7617128,36.9214437 35.2680851,35.4181911 35.2680851,33.5696837 L35.2680851,28.3877197 C36.2433894,28.0406582 36.9474915,27.1192718 36.9474915,26.0282824 L36.9474915,21.0006815 C36.9474915,19.9096921 36.2433894,18.9883057 35.2680851,18.6412442 L35.2680851,18.6412442 Z" id="Fill-1" fill="#0A0B09" mask="url(#mask-3)"></path>
                    </g>
                    <path d="M28.5000352,22 C27.6730963,22 27,22.6731121 27,23.5 C27,24.3268879 27.6730963,25 28.5000352,25 C29.3269037,25 30,24.3268879 30,23.5 C30,22.6731121 29.3269037,22 28.5000352,22" id="Fill-4" fill="#0A0B09"></path>
                </g>
            </g>
        </g>
    </g>
</svg>