<?xml version="1.0" encoding="UTF-8"?>
<svg width="63px" height="63px" viewBox="0 0 63 63" version="1.1" xmlns="http://www.w3.org/2000/svg" xmlns:xlink="http://www.w3.org/1999/xlink">
    <title>Group 2</title>
    <defs>
        <filter id="filter-1">
            <feColorMatrix in="SourceGraphic" type="matrix" values="0 0 0 0 0.384314 0 0 0 0 0.211765 0 0 0 0 1.000000 0 0 0 1.000000 0"></feColorMatrix>
        </filter>
        <polygon id="path-2" points="0.00586956522 0 36 0 36 36 0.00586956522 36"></polygon>
    </defs>
    <g id="Page-1" stroke="none" stroke-width="1" fill="none" fill-rule="evenodd">
        <g id="Group-2">
            <path d="M0,31.5023913 C0,48.9011615 14.1025505,63 31.5047821,63 C48.9022317,63 63,48.9011615 63,31.5023913 C63,14.103621 48.9022317,0 31.5047821,0 C14.1025505,0 0,14.103621 0,31.5023913" id="Fill-4-Copy-6" fill="#F4F1FF"></path>
            <g filter="url(#filter-1)" id="Group">
                <g transform="translate(14.000000, 14.000000)">
                    <g id="Group-3">
                        <mask id="mask-3" fill="white">
                            <use xlink:href="#path-2"></use>
                        </mask>
                        <g id="Clip-2"></g>
                        <path d="M35.2173913,0 L21.1304348,0 C19.8518478,0 18.7146196,0.616793478 18,1.56746739 C17.2853804,0.616793478 16.1481522,0 14.8695652,0 L0.782608696,0 C0.350804348,0 0,0.350804348 0,0.782608696 L0,32.0869565 C0,32.5187609 0.350804348,32.8695652 0.782608696,32.8695652 L14.8695652,32.8695652 C16.1638043,32.8695652 17.2173913,33.9231522 17.2173913,35.2173913 C17.2173913,35.6491957 17.5681957,36 18,36 C18.4318043,36 18.7826087,35.6491957 18.7826087,35.2173913 C18.7826087,33.9231522 19.8361957,32.8695652 21.1304348,32.8695652 L35.2173913,32.8695652 C35.6503696,32.8695652 36,32.5187609 36,32.0869565 L36,0.782608696 C36,0.350804348 35.6503696,0 35.2173913,0 Z M17.2173913,32.0965435 C16.5624457,31.6024239 15.7515652,31.3043478 14.8695652,31.3043478 L1.56521739,31.3043478 L1.56521739,1.56521739 L14.8695652,1.56521739 C16.1638043,1.56521739 17.2173913,2.61880435 17.2173913,3.91304348 L17.2173913,32.0965435 Z M34.4347826,31.3043478 L21.1304348,31.3043478 C20.2484348,31.3043478 19.4375543,31.6024239 18.7826087,32.0965435 L18.7826087,3.91304348 C18.7826087,2.61880435 19.8361957,1.56521739 21.1304348,1.56521739 L34.4347826,1.56521739 L34.4347826,31.3043478 Z" id="Fill-1" fill="#000000" mask="url(#mask-3)"></path>
                    </g>
                    <path d="M22.8333333,19 L31.1666667,19 C31.6277083,19 32,18.6513611 32,18.2222222 L32,5.77777778 C32,5.34863889 31.6277083,5 31.1666667,5 L22.8333333,5 C22.3722917,5 22,5.34863889 22,5.77777778 L22,18.2222222 C22,18.6513611 22.3722917,19 22.8333333,19 Z M23.6666667,17.4444444 L30.3333333,17.4444444 L30.3333333,6.55555556 L23.6666667,6.55555556 L23.6666667,17.4444444 Z" id="Fill-4" fill="#000000"></path>
                    <path d="M13.1666667,5 L4.83333333,5 C4.37354167,5 4,5.34863889 4,5.77777778 L4,18.2222222 C4,18.6513611 4.37354167,19 4.83333333,19 L13.1666667,19 C13.6264583,19 14,18.6513611 14,18.2222222 L14,5.77777778 C14,5.34863889 13.6264583,5 13.1666667,5 Z M5.66666667,17.4444444 L12.3333333,17.4444444 L12.3333333,6.55555556 L5.66666667,6.55555556 L5.66666667,17.4444444 Z" id="Fill-5" fill="#000000"></path>
                    <path d="M13.1666667,22 L4.83333333,22 C4.37354167,22 4,22.44825 4,23 C4,23.55175 4.37354167,24 4.83333333,24 L13.1666667,24 C13.6264583,24 14,23.55175 14,23 C14,22.44825 13.6264583,22 13.1666667,22 Z" id="Fill-6" fill="#000000"></path>
                    <path d="M13.1666667,27 L4.83333333,27 C4.37354167,27 4,27.44825 4,28 C4,28.55175 4.37354167,29 4.83333333,29 L13.1666667,29 C13.6264583,29 14,28.55175 14,28 C14,27.44825 13.6264583,27 13.1666667,27 Z" id="Fill-7" fill="#000000"></path>
                    <path d="M22.8333333,24 L31.1666667,24 C31.6277083,24 32,23.55175 32,23 C32,22.44825 31.6277083,22 31.1666667,22 L22.8333333,22 C22.3722917,22 22,22.44825 22,23 C22,23.55175 22.3722917,24 22.8333333,24 Z" id="Fill-8" fill="#000000"></path>
                    <path d="M22.8333333,29 L31.1666667,29 C31.6277083,29 32,28.55175 32,28 C32,27.44825 31.6277083,27 31.1666667,27 L22.8333333,27 C22.3722917,27 22,27.44825 22,28 C22,28.55175 22.3722917,29 22.8333333,29 Z" id="Fill-9" fill="#000000"></path>
                </g>
            </g>
        </g>
    </g>
</svg>