<?xml version="1.0" encoding="UTF-8"?>
<svg width="224px" height="217px" viewBox="0 0 224 217" version="1.1" xmlns="http://www.w3.org/2000/svg" xmlns:xlink="http://www.w3.org/1999/xlink">
    <title>Group Copy 4</title>
    <g id="Page-1" stroke="none" stroke-width="1" fill="none" fill-rule="evenodd" opacity="0.3">
        <g id="Group-Copy-4" fill="#1B8BC8">
            <g id="Group-79">
                <path d="M6.77419355,3.40983607 C6.77419355,5.29325263 5.25795333,6.81967213 3.38563745,6.81967213 C1.51624022,6.81967213 0,5.29325263 0,3.40983607 C0,1.52641951 1.51624022,0 3.38563745,0 C5.25795333,0 6.77419355,1.52641951 6.77419355,3.40983607" id="Fill-1"></path>
                <path d="M27.0967742,3.40983607 C27.0967742,5.29325263 25.580534,6.81967213 23.7089478,6.81967213 C21.8388209,6.81967213 20.3225806,5.29325263 20.3225806,3.40983607 C20.3225806,1.52641951 21.8388209,0 23.7089478,0 C25.580534,0 27.0967742,1.52641951 27.0967742,3.40983607" id="Fill-3"></path>
                <path d="M45.7258065,3.40983607 C45.7258065,5.29325263 44.2092395,6.81967213 42.3387097,6.81967213 C40.46745,6.81967213 38.9516129,5.29325263 38.9516129,3.40983607 C38.9516129,1.52641951 40.46745,0 42.3387097,0 C44.2092395,0 45.7258065,1.52641951 45.7258065,3.40983607" id="Fill-5"></path>
                <path d="M66.0483871,3.40983607 C66.0483871,5.29325263 64.5318202,6.81967213 62.6598307,6.81967213 C60.7893008,6.81967213 59.2741935,5.29325263 59.2741935,3.40983607 C59.2741935,1.52641951 60.7893008,0 62.6598307,0 C64.5318202,0 66.0483871,1.52641951 66.0483871,3.40983607" id="Fill-7"></path>
                <path d="M84.6774194,3.40983607 C84.6774194,5.29325263 83.1619088,6.81967213 81.2895929,6.81967213 C79.419466,6.81967213 77.9032258,5.29325263 77.9032258,3.40983607 C77.9032258,1.52641951 79.419466,0 81.2895929,0 C83.1619088,0 84.6774194,1.52641951 84.6774194,3.40983607" id="Fill-9"></path>
                <path d="M6.77419355,22.1639344 C6.77419355,24.047351 5.25795333,25.5737705 3.38563745,25.5737705 C1.51624022,25.5737705 0,24.047351 0,22.1639344 C0,20.2812524 1.51624022,18.7540984 3.38563745,18.7540984 C5.25795333,18.7540984 6.77419355,20.2812524 6.77419355,22.1639344" id="Fill-14"></path>
                <path d="M27.0967742,22.1639344 C27.0967742,24.047351 25.580534,25.5737705 23.7089478,25.5737705 C21.8388209,25.5737705 20.3225806,24.047351 20.3225806,22.1639344 C20.3225806,20.2812524 21.8388209,18.7540984 23.7089478,18.7540984 C25.580534,18.7540984 27.0967742,20.2812524 27.0967742,22.1639344" id="Fill-16"></path>
                <path d="M45.7258065,22.1639344 C45.7258065,24.047351 44.2092395,25.5737705 42.3387097,25.5737705 C40.46745,25.5737705 38.9516129,24.047351 38.9516129,22.1639344 C38.9516129,20.2812524 40.46745,18.7540984 42.3387097,18.7540984 C44.2092395,18.7540984 45.7258065,20.2812524 45.7258065,22.1639344" id="Fill-18"></path>
                <path d="M66.0483871,22.1639344 C66.0483871,24.047351 64.5318202,25.5737705 62.6598307,25.5737705 C60.7893008,25.5737705 59.2741935,24.047351 59.2741935,22.1639344 C59.2741935,20.2812524 60.7893008,18.7540984 62.6598307,18.7540984 C64.5318202,18.7540984 66.0483871,20.2812524 66.0483871,22.1639344" id="Fill-20"></path>
                <path d="M84.6774194,22.1639344 C84.6774194,24.047351 83.1619088,25.5737705 81.2895929,25.5737705 C79.419466,25.5737705 77.9032258,24.047351 77.9032258,22.1639344 C77.9032258,20.2812524 79.419466,18.7540984 81.2895929,18.7540984 C83.1619088,18.7540984 84.6774194,20.2812524 84.6774194,22.1639344" id="Fill-22"></path>
                <path d="M6.77419355,43.4758689 C6.77419355,45.8289679 5.25795333,47.7377049 3.38563745,47.7377049 C1.51624022,47.7377049 0,45.8289679 0,43.4758689 C0,41.1218517 1.51624022,39.2131148 3.38563745,39.2131148 C5.25795333,39.2131148 6.77419355,41.1218517 6.77419355,43.4758689" id="Fill-27"></path>
                <path d="M27.0967742,43.4758689 C27.0967742,45.8289679 25.580534,47.7377049 23.7089478,47.7377049 C21.8388209,47.7377049 20.3225806,45.8289679 20.3225806,43.4758689 C20.3225806,41.1218517 21.8388209,39.2131148 23.7089478,39.2131148 C25.580534,39.2131148 27.0967742,41.1218517 27.0967742,43.4758689" id="Fill-29"></path>
                <path d="M45.7258065,43.4758689 C45.7258065,45.8289679 44.2092395,47.7377049 42.3387097,47.7377049 C40.46745,47.7377049 38.9516129,45.8289679 38.9516129,43.4758689 C38.9516129,41.1218517 40.46745,39.2131148 42.3387097,39.2131148 C44.2092395,39.2131148 45.7258065,41.1218517 45.7258065,43.4758689" id="Fill-31"></path>
                <path d="M66.0483871,43.4758689 C66.0483871,45.8289679 64.5318202,47.7377049 62.6598307,47.7377049 C60.7893008,47.7377049 59.2741935,45.8289679 59.2741935,43.4758689 C59.2741935,41.1218517 60.7893008,39.2131148 62.6598307,39.2131148 C64.5318202,39.2131148 66.0483871,41.1218517 66.0483871,43.4758689" id="Fill-33"></path>
                <path d="M84.6774194,43.4758689 C84.6774194,45.8289679 83.1619088,47.7377049 81.2895929,47.7377049 C79.419466,47.7377049 77.9032258,45.8289679 77.9032258,43.4758689 C77.9032258,41.1218517 79.419466,39.2131148 81.2895929,39.2131148 C83.1619088,39.2131148 84.6774194,41.1218517 84.6774194,43.4758689" id="Fill-35"></path>
                <path d="M6.77419355,62.2290491 C6.77419355,64.5830663 5.25795333,66.4918033 3.38563745,66.4918033 C1.51624022,66.4918033 0,64.5830663 0,62.2290491 C0,59.8759501 1.51624022,57.9672131 3.38563745,57.9672131 C5.25795333,57.9672131 6.77419355,59.8759501 6.77419355,62.2290491" id="Fill-40"></path>
                <path d="M27.0967742,62.2290491 C27.0967742,64.5830663 25.580534,66.4918033 23.7089478,66.4918033 C21.8388209,66.4918033 20.3225806,64.5830663 20.3225806,62.2290491 C20.3225806,59.8759501 21.8388209,57.9672131 23.7089478,57.9672131 C25.580534,57.9672131 27.0967742,59.8759501 27.0967742,62.2290491" id="Fill-42"></path>
                <path d="M45.7258065,62.2290491 C45.7258065,64.5830663 44.2092395,66.4918033 42.3387097,66.4918033 C40.46745,66.4918033 38.9516129,64.5830663 38.9516129,62.2290491 C38.9516129,59.8759501 40.46745,57.9672131 42.3387097,57.9672131 C44.2092395,57.9672131 45.7258065,59.8759501 45.7258065,62.2290491" id="Fill-44"></path>
                <path d="M66.0483871,62.2290491 C66.0483871,64.5830663 64.5318202,66.4918033 62.6598307,66.4918033 C60.7893008,66.4918033 59.2741935,64.5830663 59.2741935,62.2290491 C59.2741935,59.8759501 60.7893008,57.9672131 62.6598307,57.9672131 C64.5318202,57.9672131 66.0483871,59.8759501 66.0483871,62.2290491" id="Fill-46"></path>
                <path d="M84.6774194,62.2290491 C84.6774194,64.5830663 83.1619088,66.4918033 81.2895929,66.4918033 C79.419466,66.4918033 77.9032258,64.5830663 77.9032258,62.2290491 C77.9032258,59.8759501 79.419466,57.9672131 81.2895929,57.9672131 C83.1619088,57.9672131 84.6774194,59.8759501 84.6774194,62.2290491" id="Fill-48"></path>
                <path d="M6.77419355,81.8360656 C6.77419355,83.7187476 5.25795333,85.2459016 3.38563745,85.2459016 C1.51624022,85.2459016 0,83.7187476 0,81.8360656 C0,79.952649 1.51624022,78.4262295 3.38563745,78.4262295 C5.25795333,78.4262295 6.77419355,79.952649 6.77419355,81.8360656" id="Fill-53"></path>
                <path d="M27.0967742,81.8360656 C27.0967742,83.7187476 25.580534,85.2459016 23.7089478,85.2459016 C21.8388209,85.2459016 20.3225806,83.7187476 20.3225806,81.8360656 C20.3225806,79.952649 21.8388209,78.4262295 23.7089478,78.4262295 C25.580534,78.4262295 27.0967742,79.952649 27.0967742,81.8360656" id="Fill-55"></path>
                <path d="M45.7258065,81.8360656 C45.7258065,83.7187476 44.2092395,85.2459016 42.3387097,85.2459016 C40.46745,85.2459016 38.9516129,83.7187476 38.9516129,81.8360656 C38.9516129,79.952649 40.46745,78.4262295 42.3387097,78.4262295 C44.2092395,78.4262295 45.7258065,79.952649 45.7258065,81.8360656" id="Fill-57"></path>
                <path d="M66.0483871,81.8360656 C66.0483871,83.7187476 64.5318202,85.2459016 62.6598307,85.2459016 C60.7893008,85.2459016 59.2741935,83.7187476 59.2741935,81.8360656 C59.2741935,79.952649 60.7893008,78.4262295 62.6598307,78.4262295 C64.5318202,78.4262295 66.0483871,79.952649 66.0483871,81.8360656" id="Fill-59"></path>
                <path d="M84.6774194,81.8360656 C84.6774194,83.7187476 83.1619088,85.2459016 81.2895929,85.2459016 C79.419466,85.2459016 77.9032258,83.7187476 77.9032258,81.8360656 C77.9032258,79.952649 79.419466,78.4262295 81.2895929,78.4262295 C83.1619088,78.4262295 84.6774194,79.952649 84.6774194,81.8360656" id="Fill-61"></path>
                <path d="M6.77419355,100.590164 C6.77419355,102.47358 5.25795333,104 3.38563745,104 C1.51624022,104 0,102.47358 0,100.590164 C0,98.7067474 1.51624022,97.1803279 3.38563745,97.1803279 C5.25795333,97.1803279 6.77419355,98.7067474 6.77419355,100.590164" id="Fill-66"></path>
                <path d="M27.0967742,100.590164 C27.0967742,102.47358 25.580534,104 23.7089478,104 C21.8388209,104 20.3225806,102.47358 20.3225806,100.590164 C20.3225806,98.7067474 21.8388209,97.1803279 23.7089478,97.1803279 C25.580534,97.1803279 27.0967742,98.7067474 27.0967742,100.590164" id="Fill-68"></path>
                <path d="M45.7258065,100.590164 C45.7258065,102.47358 44.2092395,104 42.3387097,104 C40.46745,104 38.9516129,102.47358 38.9516129,100.590164 C38.9516129,98.7067474 40.46745,97.1803279 42.3387097,97.1803279 C44.2092395,97.1803279 45.7258065,98.7067474 45.7258065,100.590164" id="Fill-70"></path>
                <path d="M66.0483871,100.590164 C66.0483871,102.47358 64.5318202,104 62.6598307,104 C60.7893008,104 59.2741935,102.47358 59.2741935,100.590164 C59.2741935,98.7067474 60.7893008,97.1803279 62.6598307,97.1803279 C64.5318202,97.1803279 66.0483871,98.7067474 66.0483871,100.590164" id="Fill-72"></path>
                <path d="M84.6774194,100.590164 C84.6774194,102.47358 83.1619088,104 81.2895929,104 C79.419466,104 77.9032258,102.47358 77.9032258,100.590164 C77.9032258,98.7067474 79.419466,97.1803279 81.2895929,97.1803279 C83.1619088,97.1803279 84.6774194,98.7067474 84.6774194,100.590164" id="Fill-74"></path>
                <path d="M105,3.40983607 C105,5.29325263 103.484489,6.81967213 101.612174,6.81967213 C99.7420467,6.81967213 98.2258065,5.29325263 98.2258065,3.40983607 C98.2258065,1.52641951 99.7420467,0 101.612174,0 C103.484489,0 105,1.52641951 105,3.40983607" id="Fill-9-Copy"></path>
                <path d="M105,22.1639344 C105,24.047351 103.484489,25.5737705 101.612174,25.5737705 C99.7420467,25.5737705 98.2258065,24.047351 98.2258065,22.1639344 C98.2258065,20.2812524 99.7420467,18.7540984 101.612174,18.7540984 C103.484489,18.7540984 105,20.2812524 105,22.1639344" id="Fill-22-Copy"></path>
                <path d="M105,43.4758689 C105,45.8289679 103.484489,47.7377049 101.612174,47.7377049 C99.7420467,47.7377049 98.2258065,45.8289679 98.2258065,43.4758689 C98.2258065,41.1218517 99.7420467,39.2131148 101.612174,39.2131148 C103.484489,39.2131148 105,41.1218517 105,43.4758689" id="Fill-35-Copy"></path>
                <path d="M105,62.2290491 C105,64.5830663 103.484489,66.4918033 101.612174,66.4918033 C99.7420467,66.4918033 98.2258065,64.5830663 98.2258065,62.2290491 C98.2258065,59.8759501 99.7420467,57.9672131 101.612174,57.9672131 C103.484489,57.9672131 105,59.8759501 105,62.2290491" id="Fill-48-Copy"></path>
                <path d="M105,81.8360656 C105,83.7187476 103.484489,85.2459016 101.612174,85.2459016 C99.7420467,85.2459016 98.2258065,83.7187476 98.2258065,81.8360656 C98.2258065,79.952649 99.7420467,78.4262295 101.612174,78.4262295 C103.484489,78.4262295 105,79.952649 105,81.8360656" id="Fill-61-Copy"></path>
                <path d="M105,100.590164 C105,102.47358 103.484489,104 101.612174,104 C99.7420467,104 98.2258065,102.47358 98.2258065,100.590164 C98.2258065,98.7067474 99.7420467,97.1803279 101.612174,97.1803279 C103.484489,97.1803279 105,98.7067474 105,100.590164" id="Fill-74-Copy"></path>
            </g>
            <g id="Group-79-Copy" transform="translate(0.000000, 113.000000)">
                <path d="M6.77419355,3.40983607 C6.77419355,5.29325263 5.25795333,6.81967213 3.38563745,6.81967213 C1.51624022,6.81967213 0,5.29325263 0,3.40983607 C0,1.52641951 1.51624022,0 3.38563745,0 C5.25795333,0 6.77419355,1.52641951 6.77419355,3.40983607" id="Fill-1"></path>
                <path d="M27.0967742,3.40983607 C27.0967742,5.29325263 25.580534,6.81967213 23.7089478,6.81967213 C21.8388209,6.81967213 20.3225806,5.29325263 20.3225806,3.40983607 C20.3225806,1.52641951 21.8388209,0 23.7089478,0 C25.580534,0 27.0967742,1.52641951 27.0967742,3.40983607" id="Fill-3"></path>
                <path d="M45.7258065,3.40983607 C45.7258065,5.29325263 44.2092395,6.81967213 42.3387097,6.81967213 C40.46745,6.81967213 38.9516129,5.29325263 38.9516129,3.40983607 C38.9516129,1.52641951 40.46745,0 42.3387097,0 C44.2092395,0 45.7258065,1.52641951 45.7258065,3.40983607" id="Fill-5"></path>
                <path d="M66.0483871,3.40983607 C66.0483871,5.29325263 64.5318202,6.81967213 62.6598307,6.81967213 C60.7893008,6.81967213 59.2741935,5.29325263 59.2741935,3.40983607 C59.2741935,1.52641951 60.7893008,0 62.6598307,0 C64.5318202,0 66.0483871,1.52641951 66.0483871,3.40983607" id="Fill-7"></path>
                <path d="M84.6774194,3.40983607 C84.6774194,5.29325263 83.1619088,6.81967213 81.2895929,6.81967213 C79.419466,6.81967213 77.9032258,5.29325263 77.9032258,3.40983607 C77.9032258,1.52641951 79.419466,0 81.2895929,0 C83.1619088,0 84.6774194,1.52641951 84.6774194,3.40983607" id="Fill-9"></path>
                <path d="M6.77419355,22.1639344 C6.77419355,24.047351 5.25795333,25.5737705 3.38563745,25.5737705 C1.51624022,25.5737705 0,24.047351 0,22.1639344 C0,20.2812524 1.51624022,18.7540984 3.38563745,18.7540984 C5.25795333,18.7540984 6.77419355,20.2812524 6.77419355,22.1639344" id="Fill-14"></path>
                <path d="M27.0967742,22.1639344 C27.0967742,24.047351 25.580534,25.5737705 23.7089478,25.5737705 C21.8388209,25.5737705 20.3225806,24.047351 20.3225806,22.1639344 C20.3225806,20.2812524 21.8388209,18.7540984 23.7089478,18.7540984 C25.580534,18.7540984 27.0967742,20.2812524 27.0967742,22.1639344" id="Fill-16"></path>
                <path d="M45.7258065,22.1639344 C45.7258065,24.047351 44.2092395,25.5737705 42.3387097,25.5737705 C40.46745,25.5737705 38.9516129,24.047351 38.9516129,22.1639344 C38.9516129,20.2812524 40.46745,18.7540984 42.3387097,18.7540984 C44.2092395,18.7540984 45.7258065,20.2812524 45.7258065,22.1639344" id="Fill-18"></path>
                <path d="M66.0483871,22.1639344 C66.0483871,24.047351 64.5318202,25.5737705 62.6598307,25.5737705 C60.7893008,25.5737705 59.2741935,24.047351 59.2741935,22.1639344 C59.2741935,20.2812524 60.7893008,18.7540984 62.6598307,18.7540984 C64.5318202,18.7540984 66.0483871,20.2812524 66.0483871,22.1639344" id="Fill-20"></path>
                <path d="M84.6774194,22.1639344 C84.6774194,24.047351 83.1619088,25.5737705 81.2895929,25.5737705 C79.419466,25.5737705 77.9032258,24.047351 77.9032258,22.1639344 C77.9032258,20.2812524 79.419466,18.7540984 81.2895929,18.7540984 C83.1619088,18.7540984 84.6774194,20.2812524 84.6774194,22.1639344" id="Fill-22"></path>
                <path d="M6.77419355,43.4758689 C6.77419355,45.8289679 5.25795333,47.7377049 3.38563745,47.7377049 C1.51624022,47.7377049 0,45.8289679 0,43.4758689 C0,41.1218517 1.51624022,39.2131148 3.38563745,39.2131148 C5.25795333,39.2131148 6.77419355,41.1218517 6.77419355,43.4758689" id="Fill-27"></path>
                <path d="M27.0967742,43.4758689 C27.0967742,45.8289679 25.580534,47.7377049 23.7089478,47.7377049 C21.8388209,47.7377049 20.3225806,45.8289679 20.3225806,43.4758689 C20.3225806,41.1218517 21.8388209,39.2131148 23.7089478,39.2131148 C25.580534,39.2131148 27.0967742,41.1218517 27.0967742,43.4758689" id="Fill-29"></path>
                <path d="M45.7258065,43.4758689 C45.7258065,45.8289679 44.2092395,47.7377049 42.3387097,47.7377049 C40.46745,47.7377049 38.9516129,45.8289679 38.9516129,43.4758689 C38.9516129,41.1218517 40.46745,39.2131148 42.3387097,39.2131148 C44.2092395,39.2131148 45.7258065,41.1218517 45.7258065,43.4758689" id="Fill-31"></path>
                <path d="M66.0483871,43.4758689 C66.0483871,45.8289679 64.5318202,47.7377049 62.6598307,47.7377049 C60.7893008,47.7377049 59.2741935,45.8289679 59.2741935,43.4758689 C59.2741935,41.1218517 60.7893008,39.2131148 62.6598307,39.2131148 C64.5318202,39.2131148 66.0483871,41.1218517 66.0483871,43.4758689" id="Fill-33"></path>
                <path d="M84.6774194,43.4758689 C84.6774194,45.8289679 83.1619088,47.7377049 81.2895929,47.7377049 C79.419466,47.7377049 77.9032258,45.8289679 77.9032258,43.4758689 C77.9032258,41.1218517 79.419466,39.2131148 81.2895929,39.2131148 C83.1619088,39.2131148 84.6774194,41.1218517 84.6774194,43.4758689" id="Fill-35"></path>
                <path d="M6.77419355,62.2290491 C6.77419355,64.5830663 5.25795333,66.4918033 3.38563745,66.4918033 C1.51624022,66.4918033 0,64.5830663 0,62.2290491 C0,59.8759501 1.51624022,57.9672131 3.38563745,57.9672131 C5.25795333,57.9672131 6.77419355,59.8759501 6.77419355,62.2290491" id="Fill-40"></path>
                <path d="M27.0967742,62.2290491 C27.0967742,64.5830663 25.580534,66.4918033 23.7089478,66.4918033 C21.8388209,66.4918033 20.3225806,64.5830663 20.3225806,62.2290491 C20.3225806,59.8759501 21.8388209,57.9672131 23.7089478,57.9672131 C25.580534,57.9672131 27.0967742,59.8759501 27.0967742,62.2290491" id="Fill-42"></path>
                <path d="M45.7258065,62.2290491 C45.7258065,64.5830663 44.2092395,66.4918033 42.3387097,66.4918033 C40.46745,66.4918033 38.9516129,64.5830663 38.9516129,62.2290491 C38.9516129,59.8759501 40.46745,57.9672131 42.3387097,57.9672131 C44.2092395,57.9672131 45.7258065,59.8759501 45.7258065,62.2290491" id="Fill-44"></path>
                <path d="M66.0483871,62.2290491 C66.0483871,64.5830663 64.5318202,66.4918033 62.6598307,66.4918033 C60.7893008,66.4918033 59.2741935,64.5830663 59.2741935,62.2290491 C59.2741935,59.8759501 60.7893008,57.9672131 62.6598307,57.9672131 C64.5318202,57.9672131 66.0483871,59.8759501 66.0483871,62.2290491" id="Fill-46"></path>
                <path d="M84.6774194,62.2290491 C84.6774194,64.5830663 83.1619088,66.4918033 81.2895929,66.4918033 C79.419466,66.4918033 77.9032258,64.5830663 77.9032258,62.2290491 C77.9032258,59.8759501 79.419466,57.9672131 81.2895929,57.9672131 C83.1619088,57.9672131 84.6774194,59.8759501 84.6774194,62.2290491" id="Fill-48"></path>
                <path d="M6.77419355,81.8360656 C6.77419355,83.7187476 5.25795333,85.2459016 3.38563745,85.2459016 C1.51624022,85.2459016 0,83.7187476 0,81.8360656 C0,79.952649 1.51624022,78.4262295 3.38563745,78.4262295 C5.25795333,78.4262295 6.77419355,79.952649 6.77419355,81.8360656" id="Fill-53"></path>
                <path d="M27.0967742,81.8360656 C27.0967742,83.7187476 25.580534,85.2459016 23.7089478,85.2459016 C21.8388209,85.2459016 20.3225806,83.7187476 20.3225806,81.8360656 C20.3225806,79.952649 21.8388209,78.4262295 23.7089478,78.4262295 C25.580534,78.4262295 27.0967742,79.952649 27.0967742,81.8360656" id="Fill-55"></path>
                <path d="M45.7258065,81.8360656 C45.7258065,83.7187476 44.2092395,85.2459016 42.3387097,85.2459016 C40.46745,85.2459016 38.9516129,83.7187476 38.9516129,81.8360656 C38.9516129,79.952649 40.46745,78.4262295 42.3387097,78.4262295 C44.2092395,78.4262295 45.7258065,79.952649 45.7258065,81.8360656" id="Fill-57"></path>
                <path d="M66.0483871,81.8360656 C66.0483871,83.7187476 64.5318202,85.2459016 62.6598307,85.2459016 C60.7893008,85.2459016 59.2741935,83.7187476 59.2741935,81.8360656 C59.2741935,79.952649 60.7893008,78.4262295 62.6598307,78.4262295 C64.5318202,78.4262295 66.0483871,79.952649 66.0483871,81.8360656" id="Fill-59"></path>
                <path d="M84.6774194,81.8360656 C84.6774194,83.7187476 83.1619088,85.2459016 81.2895929,85.2459016 C79.419466,85.2459016 77.9032258,83.7187476 77.9032258,81.8360656 C77.9032258,79.952649 79.419466,78.4262295 81.2895929,78.4262295 C83.1619088,78.4262295 84.6774194,79.952649 84.6774194,81.8360656" id="Fill-61"></path>
                <path d="M6.77419355,100.590164 C6.77419355,102.47358 5.25795333,104 3.38563745,104 C1.51624022,104 0,102.47358 0,100.590164 C0,98.7067474 1.51624022,97.1803279 3.38563745,97.1803279 C5.25795333,97.1803279 6.77419355,98.7067474 6.77419355,100.590164" id="Fill-66"></path>
                <path d="M27.0967742,100.590164 C27.0967742,102.47358 25.580534,104 23.7089478,104 C21.8388209,104 20.3225806,102.47358 20.3225806,100.590164 C20.3225806,98.7067474 21.8388209,97.1803279 23.7089478,97.1803279 C25.580534,97.1803279 27.0967742,98.7067474 27.0967742,100.590164" id="Fill-68"></path>
                <path d="M45.7258065,100.590164 C45.7258065,102.47358 44.2092395,104 42.3387097,104 C40.46745,104 38.9516129,102.47358 38.9516129,100.590164 C38.9516129,98.7067474 40.46745,97.1803279 42.3387097,97.1803279 C44.2092395,97.1803279 45.7258065,98.7067474 45.7258065,100.590164" id="Fill-70"></path>
                <path d="M66.0483871,100.590164 C66.0483871,102.47358 64.5318202,104 62.6598307,104 C60.7893008,104 59.2741935,102.47358 59.2741935,100.590164 C59.2741935,98.7067474 60.7893008,97.1803279 62.6598307,97.1803279 C64.5318202,97.1803279 66.0483871,98.7067474 66.0483871,100.590164" id="Fill-72"></path>
                <path d="M84.6774194,100.590164 C84.6774194,102.47358 83.1619088,104 81.2895929,104 C79.419466,104 77.9032258,102.47358 77.9032258,100.590164 C77.9032258,98.7067474 79.419466,97.1803279 81.2895929,97.1803279 C83.1619088,97.1803279 84.6774194,98.7067474 84.6774194,100.590164" id="Fill-74"></path>
                <path d="M105,3.40983607 C105,5.29325263 103.484489,6.81967213 101.612174,6.81967213 C99.7420467,6.81967213 98.2258065,5.29325263 98.2258065,3.40983607 C98.2258065,1.52641951 99.7420467,0 101.612174,0 C103.484489,0 105,1.52641951 105,3.40983607" id="Fill-9-Copy"></path>
                <path d="M105,22.1639344 C105,24.047351 103.484489,25.5737705 101.612174,25.5737705 C99.7420467,25.5737705 98.2258065,24.047351 98.2258065,22.1639344 C98.2258065,20.2812524 99.7420467,18.7540984 101.612174,18.7540984 C103.484489,18.7540984 105,20.2812524 105,22.1639344" id="Fill-22-Copy"></path>
                <path d="M105,43.4758689 C105,45.8289679 103.484489,47.7377049 101.612174,47.7377049 C99.7420467,47.7377049 98.2258065,45.8289679 98.2258065,43.4758689 C98.2258065,41.1218517 99.7420467,39.2131148 101.612174,39.2131148 C103.484489,39.2131148 105,41.1218517 105,43.4758689" id="Fill-35-Copy"></path>
                <path d="M105,62.2290491 C105,64.5830663 103.484489,66.4918033 101.612174,66.4918033 C99.7420467,66.4918033 98.2258065,64.5830663 98.2258065,62.2290491 C98.2258065,59.8759501 99.7420467,57.9672131 101.612174,57.9672131 C103.484489,57.9672131 105,59.8759501 105,62.2290491" id="Fill-48-Copy"></path>
                <path d="M105,81.8360656 C105,83.7187476 103.484489,85.2459016 101.612174,85.2459016 C99.7420467,85.2459016 98.2258065,83.7187476 98.2258065,81.8360656 C98.2258065,79.952649 99.7420467,78.4262295 101.612174,78.4262295 C103.484489,78.4262295 105,79.952649 105,81.8360656" id="Fill-61-Copy"></path>
                <path d="M105,100.590164 C105,102.47358 103.484489,104 101.612174,104 C99.7420467,104 98.2258065,102.47358 98.2258065,100.590164 C98.2258065,98.7067474 99.7420467,97.1803279 101.612174,97.1803279 C103.484489,97.1803279 105,98.7067474 105,100.590164" id="Fill-74-Copy"></path>
            </g>
            <g id="Group-79-Copy-3" transform="translate(119.000000, 0.000000)">
                <path d="M6.77419355,3.40983607 C6.77419355,5.29325263 5.25795333,6.81967213 3.38563745,6.81967213 C1.51624022,6.81967213 0,5.29325263 0,3.40983607 C0,1.52641951 1.51624022,0 3.38563745,0 C5.25795333,0 6.77419355,1.52641951 6.77419355,3.40983607" id="Fill-1"></path>
                <path d="M27.0967742,3.40983607 C27.0967742,5.29325263 25.580534,6.81967213 23.7089478,6.81967213 C21.8388209,6.81967213 20.3225806,5.29325263 20.3225806,3.40983607 C20.3225806,1.52641951 21.8388209,0 23.7089478,0 C25.580534,0 27.0967742,1.52641951 27.0967742,3.40983607" id="Fill-3"></path>
                <path d="M45.7258065,3.40983607 C45.7258065,5.29325263 44.2092395,6.81967213 42.3387097,6.81967213 C40.46745,6.81967213 38.9516129,5.29325263 38.9516129,3.40983607 C38.9516129,1.52641951 40.46745,0 42.3387097,0 C44.2092395,0 45.7258065,1.52641951 45.7258065,3.40983607" id="Fill-5"></path>
                <path d="M66.0483871,3.40983607 C66.0483871,5.29325263 64.5318202,6.81967213 62.6598307,6.81967213 C60.7893008,6.81967213 59.2741935,5.29325263 59.2741935,3.40983607 C59.2741935,1.52641951 60.7893008,0 62.6598307,0 C64.5318202,0 66.0483871,1.52641951 66.0483871,3.40983607" id="Fill-7"></path>
                <path d="M84.6774194,3.40983607 C84.6774194,5.29325263 83.1619088,6.81967213 81.2895929,6.81967213 C79.419466,6.81967213 77.9032258,5.29325263 77.9032258,3.40983607 C77.9032258,1.52641951 79.419466,0 81.2895929,0 C83.1619088,0 84.6774194,1.52641951 84.6774194,3.40983607" id="Fill-9"></path>
                <path d="M6.77419355,22.1639344 C6.77419355,24.047351 5.25795333,25.5737705 3.38563745,25.5737705 C1.51624022,25.5737705 0,24.047351 0,22.1639344 C0,20.2812524 1.51624022,18.7540984 3.38563745,18.7540984 C5.25795333,18.7540984 6.77419355,20.2812524 6.77419355,22.1639344" id="Fill-14"></path>
                <path d="M27.0967742,22.1639344 C27.0967742,24.047351 25.580534,25.5737705 23.7089478,25.5737705 C21.8388209,25.5737705 20.3225806,24.047351 20.3225806,22.1639344 C20.3225806,20.2812524 21.8388209,18.7540984 23.7089478,18.7540984 C25.580534,18.7540984 27.0967742,20.2812524 27.0967742,22.1639344" id="Fill-16"></path>
                <path d="M45.7258065,22.1639344 C45.7258065,24.047351 44.2092395,25.5737705 42.3387097,25.5737705 C40.46745,25.5737705 38.9516129,24.047351 38.9516129,22.1639344 C38.9516129,20.2812524 40.46745,18.7540984 42.3387097,18.7540984 C44.2092395,18.7540984 45.7258065,20.2812524 45.7258065,22.1639344" id="Fill-18"></path>
                <path d="M66.0483871,22.1639344 C66.0483871,24.047351 64.5318202,25.5737705 62.6598307,25.5737705 C60.7893008,25.5737705 59.2741935,24.047351 59.2741935,22.1639344 C59.2741935,20.2812524 60.7893008,18.7540984 62.6598307,18.7540984 C64.5318202,18.7540984 66.0483871,20.2812524 66.0483871,22.1639344" id="Fill-20"></path>
                <path d="M84.6774194,22.1639344 C84.6774194,24.047351 83.1619088,25.5737705 81.2895929,25.5737705 C79.419466,25.5737705 77.9032258,24.047351 77.9032258,22.1639344 C77.9032258,20.2812524 79.419466,18.7540984 81.2895929,18.7540984 C83.1619088,18.7540984 84.6774194,20.2812524 84.6774194,22.1639344" id="Fill-22"></path>
                <path d="M6.77419355,43.4758689 C6.77419355,45.8289679 5.25795333,47.7377049 3.38563745,47.7377049 C1.51624022,47.7377049 0,45.8289679 0,43.4758689 C0,41.1218517 1.51624022,39.2131148 3.38563745,39.2131148 C5.25795333,39.2131148 6.77419355,41.1218517 6.77419355,43.4758689" id="Fill-27"></path>
                <path d="M27.0967742,43.4758689 C27.0967742,45.8289679 25.580534,47.7377049 23.7089478,47.7377049 C21.8388209,47.7377049 20.3225806,45.8289679 20.3225806,43.4758689 C20.3225806,41.1218517 21.8388209,39.2131148 23.7089478,39.2131148 C25.580534,39.2131148 27.0967742,41.1218517 27.0967742,43.4758689" id="Fill-29"></path>
                <path d="M45.7258065,43.4758689 C45.7258065,45.8289679 44.2092395,47.7377049 42.3387097,47.7377049 C40.46745,47.7377049 38.9516129,45.8289679 38.9516129,43.4758689 C38.9516129,41.1218517 40.46745,39.2131148 42.3387097,39.2131148 C44.2092395,39.2131148 45.7258065,41.1218517 45.7258065,43.4758689" id="Fill-31"></path>
                <path d="M66.0483871,43.4758689 C66.0483871,45.8289679 64.5318202,47.7377049 62.6598307,47.7377049 C60.7893008,47.7377049 59.2741935,45.8289679 59.2741935,43.4758689 C59.2741935,41.1218517 60.7893008,39.2131148 62.6598307,39.2131148 C64.5318202,39.2131148 66.0483871,41.1218517 66.0483871,43.4758689" id="Fill-33"></path>
                <path d="M84.6774194,43.4758689 C84.6774194,45.8289679 83.1619088,47.7377049 81.2895929,47.7377049 C79.419466,47.7377049 77.9032258,45.8289679 77.9032258,43.4758689 C77.9032258,41.1218517 79.419466,39.2131148 81.2895929,39.2131148 C83.1619088,39.2131148 84.6774194,41.1218517 84.6774194,43.4758689" id="Fill-35"></path>
                <path d="M6.77419355,62.2290491 C6.77419355,64.5830663 5.25795333,66.4918033 3.38563745,66.4918033 C1.51624022,66.4918033 0,64.5830663 0,62.2290491 C0,59.8759501 1.51624022,57.9672131 3.38563745,57.9672131 C5.25795333,57.9672131 6.77419355,59.8759501 6.77419355,62.2290491" id="Fill-40"></path>
                <path d="M27.0967742,62.2290491 C27.0967742,64.5830663 25.580534,66.4918033 23.7089478,66.4918033 C21.8388209,66.4918033 20.3225806,64.5830663 20.3225806,62.2290491 C20.3225806,59.8759501 21.8388209,57.9672131 23.7089478,57.9672131 C25.580534,57.9672131 27.0967742,59.8759501 27.0967742,62.2290491" id="Fill-42"></path>
                <path d="M45.7258065,62.2290491 C45.7258065,64.5830663 44.2092395,66.4918033 42.3387097,66.4918033 C40.46745,66.4918033 38.9516129,64.5830663 38.9516129,62.2290491 C38.9516129,59.8759501 40.46745,57.9672131 42.3387097,57.9672131 C44.2092395,57.9672131 45.7258065,59.8759501 45.7258065,62.2290491" id="Fill-44"></path>
                <path d="M66.0483871,62.2290491 C66.0483871,64.5830663 64.5318202,66.4918033 62.6598307,66.4918033 C60.7893008,66.4918033 59.2741935,64.5830663 59.2741935,62.2290491 C59.2741935,59.8759501 60.7893008,57.9672131 62.6598307,57.9672131 C64.5318202,57.9672131 66.0483871,59.8759501 66.0483871,62.2290491" id="Fill-46"></path>
                <path d="M84.6774194,62.2290491 C84.6774194,64.5830663 83.1619088,66.4918033 81.2895929,66.4918033 C79.419466,66.4918033 77.9032258,64.5830663 77.9032258,62.2290491 C77.9032258,59.8759501 79.419466,57.9672131 81.2895929,57.9672131 C83.1619088,57.9672131 84.6774194,59.8759501 84.6774194,62.2290491" id="Fill-48"></path>
                <path d="M6.77419355,81.8360656 C6.77419355,83.7187476 5.25795333,85.2459016 3.38563745,85.2459016 C1.51624022,85.2459016 0,83.7187476 0,81.8360656 C0,79.952649 1.51624022,78.4262295 3.38563745,78.4262295 C5.25795333,78.4262295 6.77419355,79.952649 6.77419355,81.8360656" id="Fill-53"></path>
                <path d="M27.0967742,81.8360656 C27.0967742,83.7187476 25.580534,85.2459016 23.7089478,85.2459016 C21.8388209,85.2459016 20.3225806,83.7187476 20.3225806,81.8360656 C20.3225806,79.952649 21.8388209,78.4262295 23.7089478,78.4262295 C25.580534,78.4262295 27.0967742,79.952649 27.0967742,81.8360656" id="Fill-55"></path>
                <path d="M45.7258065,81.8360656 C45.7258065,83.7187476 44.2092395,85.2459016 42.3387097,85.2459016 C40.46745,85.2459016 38.9516129,83.7187476 38.9516129,81.8360656 C38.9516129,79.952649 40.46745,78.4262295 42.3387097,78.4262295 C44.2092395,78.4262295 45.7258065,79.952649 45.7258065,81.8360656" id="Fill-57"></path>
                <path d="M66.0483871,81.8360656 C66.0483871,83.7187476 64.5318202,85.2459016 62.6598307,85.2459016 C60.7893008,85.2459016 59.2741935,83.7187476 59.2741935,81.8360656 C59.2741935,79.952649 60.7893008,78.4262295 62.6598307,78.4262295 C64.5318202,78.4262295 66.0483871,79.952649 66.0483871,81.8360656" id="Fill-59"></path>
                <path d="M84.6774194,81.8360656 C84.6774194,83.7187476 83.1619088,85.2459016 81.2895929,85.2459016 C79.419466,85.2459016 77.9032258,83.7187476 77.9032258,81.8360656 C77.9032258,79.952649 79.419466,78.4262295 81.2895929,78.4262295 C83.1619088,78.4262295 84.6774194,79.952649 84.6774194,81.8360656" id="Fill-61"></path>
                <path d="M6.77419355,100.590164 C6.77419355,102.47358 5.25795333,104 3.38563745,104 C1.51624022,104 0,102.47358 0,100.590164 C0,98.7067474 1.51624022,97.1803279 3.38563745,97.1803279 C5.25795333,97.1803279 6.77419355,98.7067474 6.77419355,100.590164" id="Fill-66"></path>
                <path d="M27.0967742,100.590164 C27.0967742,102.47358 25.580534,104 23.7089478,104 C21.8388209,104 20.3225806,102.47358 20.3225806,100.590164 C20.3225806,98.7067474 21.8388209,97.1803279 23.7089478,97.1803279 C25.580534,97.1803279 27.0967742,98.7067474 27.0967742,100.590164" id="Fill-68"></path>
                <path d="M45.7258065,100.590164 C45.7258065,102.47358 44.2092395,104 42.3387097,104 C40.46745,104 38.9516129,102.47358 38.9516129,100.590164 C38.9516129,98.7067474 40.46745,97.1803279 42.3387097,97.1803279 C44.2092395,97.1803279 45.7258065,98.7067474 45.7258065,100.590164" id="Fill-70"></path>
                <path d="M66.0483871,100.590164 C66.0483871,102.47358 64.5318202,104 62.6598307,104 C60.7893008,104 59.2741935,102.47358 59.2741935,100.590164 C59.2741935,98.7067474 60.7893008,97.1803279 62.6598307,97.1803279 C64.5318202,97.1803279 66.0483871,98.7067474 66.0483871,100.590164" id="Fill-72"></path>
                <path d="M84.6774194,100.590164 C84.6774194,102.47358 83.1619088,104 81.2895929,104 C79.419466,104 77.9032258,102.47358 77.9032258,100.590164 C77.9032258,98.7067474 79.419466,97.1803279 81.2895929,97.1803279 C83.1619088,97.1803279 84.6774194,98.7067474 84.6774194,100.590164" id="Fill-74"></path>
                <path d="M105,3.40983607 C105,5.29325263 103.484489,6.81967213 101.612174,6.81967213 C99.7420467,6.81967213 98.2258065,5.29325263 98.2258065,3.40983607 C98.2258065,1.52641951 99.7420467,0 101.612174,0 C103.484489,0 105,1.52641951 105,3.40983607" id="Fill-9-Copy"></path>
                <path d="M105,22.1639344 C105,24.047351 103.484489,25.5737705 101.612174,25.5737705 C99.7420467,25.5737705 98.2258065,24.047351 98.2258065,22.1639344 C98.2258065,20.2812524 99.7420467,18.7540984 101.612174,18.7540984 C103.484489,18.7540984 105,20.2812524 105,22.1639344" id="Fill-22-Copy"></path>
                <path d="M105,43.4758689 C105,45.8289679 103.484489,47.7377049 101.612174,47.7377049 C99.7420467,47.7377049 98.2258065,45.8289679 98.2258065,43.4758689 C98.2258065,41.1218517 99.7420467,39.2131148 101.612174,39.2131148 C103.484489,39.2131148 105,41.1218517 105,43.4758689" id="Fill-35-Copy"></path>
                <path d="M105,62.2290491 C105,64.5830663 103.484489,66.4918033 101.612174,66.4918033 C99.7420467,66.4918033 98.2258065,64.5830663 98.2258065,62.2290491 C98.2258065,59.8759501 99.7420467,57.9672131 101.612174,57.9672131 C103.484489,57.9672131 105,59.8759501 105,62.2290491" id="Fill-48-Copy"></path>
                <path d="M105,81.8360656 C105,83.7187476 103.484489,85.2459016 101.612174,85.2459016 C99.7420467,85.2459016 98.2258065,83.7187476 98.2258065,81.8360656 C98.2258065,79.952649 99.7420467,78.4262295 101.612174,78.4262295 C103.484489,78.4262295 105,79.952649 105,81.8360656" id="Fill-61-Copy"></path>
                <path d="M105,100.590164 C105,102.47358 103.484489,104 101.612174,104 C99.7420467,104 98.2258065,102.47358 98.2258065,100.590164 C98.2258065,98.7067474 99.7420467,97.1803279 101.612174,97.1803279 C103.484489,97.1803279 105,98.7067474 105,100.590164" id="Fill-74-Copy"></path>
            </g>
            <g id="Group-79-Copy-2" transform="translate(119.000000, 113.000000)">
                <path d="M6.77419355,3.40983607 C6.77419355,5.29325263 5.25795333,6.81967213 3.38563745,6.81967213 C1.51624022,6.81967213 0,5.29325263 0,3.40983607 C0,1.52641951 1.51624022,0 3.38563745,0 C5.25795333,0 6.77419355,1.52641951 6.77419355,3.40983607" id="Fill-1"></path>
                <path d="M27.0967742,3.40983607 C27.0967742,5.29325263 25.580534,6.81967213 23.7089478,6.81967213 C21.8388209,6.81967213 20.3225806,5.29325263 20.3225806,3.40983607 C20.3225806,1.52641951 21.8388209,0 23.7089478,0 C25.580534,0 27.0967742,1.52641951 27.0967742,3.40983607" id="Fill-3"></path>
                <path d="M45.7258065,3.40983607 C45.7258065,5.29325263 44.2092395,6.81967213 42.3387097,6.81967213 C40.46745,6.81967213 38.9516129,5.29325263 38.9516129,3.40983607 C38.9516129,1.52641951 40.46745,0 42.3387097,0 C44.2092395,0 45.7258065,1.52641951 45.7258065,3.40983607" id="Fill-5"></path>
                <path d="M66.0483871,3.40983607 C66.0483871,5.29325263 64.5318202,6.81967213 62.6598307,6.81967213 C60.7893008,6.81967213 59.2741935,5.29325263 59.2741935,3.40983607 C59.2741935,1.52641951 60.7893008,0 62.6598307,0 C64.5318202,0 66.0483871,1.52641951 66.0483871,3.40983607" id="Fill-7"></path>
                <path d="M84.6774194,3.40983607 C84.6774194,5.29325263 83.1619088,6.81967213 81.2895929,6.81967213 C79.419466,6.81967213 77.9032258,5.29325263 77.9032258,3.40983607 C77.9032258,1.52641951 79.419466,0 81.2895929,0 C83.1619088,0 84.6774194,1.52641951 84.6774194,3.40983607" id="Fill-9"></path>
                <path d="M6.77419355,22.1639344 C6.77419355,24.047351 5.25795333,25.5737705 3.38563745,25.5737705 C1.51624022,25.5737705 0,24.047351 0,22.1639344 C0,20.2812524 1.51624022,18.7540984 3.38563745,18.7540984 C5.25795333,18.7540984 6.77419355,20.2812524 6.77419355,22.1639344" id="Fill-14"></path>
                <path d="M27.0967742,22.1639344 C27.0967742,24.047351 25.580534,25.5737705 23.7089478,25.5737705 C21.8388209,25.5737705 20.3225806,24.047351 20.3225806,22.1639344 C20.3225806,20.2812524 21.8388209,18.7540984 23.7089478,18.7540984 C25.580534,18.7540984 27.0967742,20.2812524 27.0967742,22.1639344" id="Fill-16"></path>
                <path d="M45.7258065,22.1639344 C45.7258065,24.047351 44.2092395,25.5737705 42.3387097,25.5737705 C40.46745,25.5737705 38.9516129,24.047351 38.9516129,22.1639344 C38.9516129,20.2812524 40.46745,18.7540984 42.3387097,18.7540984 C44.2092395,18.7540984 45.7258065,20.2812524 45.7258065,22.1639344" id="Fill-18"></path>
                <path d="M66.0483871,22.1639344 C66.0483871,24.047351 64.5318202,25.5737705 62.6598307,25.5737705 C60.7893008,25.5737705 59.2741935,24.047351 59.2741935,22.1639344 C59.2741935,20.2812524 60.7893008,18.7540984 62.6598307,18.7540984 C64.5318202,18.7540984 66.0483871,20.2812524 66.0483871,22.1639344" id="Fill-20"></path>
                <path d="M84.6774194,22.1639344 C84.6774194,24.047351 83.1619088,25.5737705 81.2895929,25.5737705 C79.419466,25.5737705 77.9032258,24.047351 77.9032258,22.1639344 C77.9032258,20.2812524 79.419466,18.7540984 81.2895929,18.7540984 C83.1619088,18.7540984 84.6774194,20.2812524 84.6774194,22.1639344" id="Fill-22"></path>
                <path d="M6.77419355,43.4758689 C6.77419355,45.8289679 5.25795333,47.7377049 3.38563745,47.7377049 C1.51624022,47.7377049 0,45.8289679 0,43.4758689 C0,41.1218517 1.51624022,39.2131148 3.38563745,39.2131148 C5.25795333,39.2131148 6.77419355,41.1218517 6.77419355,43.4758689" id="Fill-27"></path>
                <path d="M27.0967742,43.4758689 C27.0967742,45.8289679 25.580534,47.7377049 23.7089478,47.7377049 C21.8388209,47.7377049 20.3225806,45.8289679 20.3225806,43.4758689 C20.3225806,41.1218517 21.8388209,39.2131148 23.7089478,39.2131148 C25.580534,39.2131148 27.0967742,41.1218517 27.0967742,43.4758689" id="Fill-29"></path>
                <path d="M45.7258065,43.4758689 C45.7258065,45.8289679 44.2092395,47.7377049 42.3387097,47.7377049 C40.46745,47.7377049 38.9516129,45.8289679 38.9516129,43.4758689 C38.9516129,41.1218517 40.46745,39.2131148 42.3387097,39.2131148 C44.2092395,39.2131148 45.7258065,41.1218517 45.7258065,43.4758689" id="Fill-31"></path>
                <path d="M66.0483871,43.4758689 C66.0483871,45.8289679 64.5318202,47.7377049 62.6598307,47.7377049 C60.7893008,47.7377049 59.2741935,45.8289679 59.2741935,43.4758689 C59.2741935,41.1218517 60.7893008,39.2131148 62.6598307,39.2131148 C64.5318202,39.2131148 66.0483871,41.1218517 66.0483871,43.4758689" id="Fill-33"></path>
                <path d="M84.6774194,43.4758689 C84.6774194,45.8289679 83.1619088,47.7377049 81.2895929,47.7377049 C79.419466,47.7377049 77.9032258,45.8289679 77.9032258,43.4758689 C77.9032258,41.1218517 79.419466,39.2131148 81.2895929,39.2131148 C83.1619088,39.2131148 84.6774194,41.1218517 84.6774194,43.4758689" id="Fill-35"></path>
                <path d="M6.77419355,62.2290491 C6.77419355,64.5830663 5.25795333,66.4918033 3.38563745,66.4918033 C1.51624022,66.4918033 0,64.5830663 0,62.2290491 C0,59.8759501 1.51624022,57.9672131 3.38563745,57.9672131 C5.25795333,57.9672131 6.77419355,59.8759501 6.77419355,62.2290491" id="Fill-40"></path>
                <path d="M27.0967742,62.2290491 C27.0967742,64.5830663 25.580534,66.4918033 23.7089478,66.4918033 C21.8388209,66.4918033 20.3225806,64.5830663 20.3225806,62.2290491 C20.3225806,59.8759501 21.8388209,57.9672131 23.7089478,57.9672131 C25.580534,57.9672131 27.0967742,59.8759501 27.0967742,62.2290491" id="Fill-42"></path>
                <path d="M45.7258065,62.2290491 C45.7258065,64.5830663 44.2092395,66.4918033 42.3387097,66.4918033 C40.46745,66.4918033 38.9516129,64.5830663 38.9516129,62.2290491 C38.9516129,59.8759501 40.46745,57.9672131 42.3387097,57.9672131 C44.2092395,57.9672131 45.7258065,59.8759501 45.7258065,62.2290491" id="Fill-44"></path>
                <path d="M66.0483871,62.2290491 C66.0483871,64.5830663 64.5318202,66.4918033 62.6598307,66.4918033 C60.7893008,66.4918033 59.2741935,64.5830663 59.2741935,62.2290491 C59.2741935,59.8759501 60.7893008,57.9672131 62.6598307,57.9672131 C64.5318202,57.9672131 66.0483871,59.8759501 66.0483871,62.2290491" id="Fill-46"></path>
                <path d="M84.6774194,62.2290491 C84.6774194,64.5830663 83.1619088,66.4918033 81.2895929,66.4918033 C79.419466,66.4918033 77.9032258,64.5830663 77.9032258,62.2290491 C77.9032258,59.8759501 79.419466,57.9672131 81.2895929,57.9672131 C83.1619088,57.9672131 84.6774194,59.8759501 84.6774194,62.2290491" id="Fill-48"></path>
                <path d="M6.77419355,81.8360656 C6.77419355,83.7187476 5.25795333,85.2459016 3.38563745,85.2459016 C1.51624022,85.2459016 0,83.7187476 0,81.8360656 C0,79.952649 1.51624022,78.4262295 3.38563745,78.4262295 C5.25795333,78.4262295 6.77419355,79.952649 6.77419355,81.8360656" id="Fill-53"></path>
                <path d="M27.0967742,81.8360656 C27.0967742,83.7187476 25.580534,85.2459016 23.7089478,85.2459016 C21.8388209,85.2459016 20.3225806,83.7187476 20.3225806,81.8360656 C20.3225806,79.952649 21.8388209,78.4262295 23.7089478,78.4262295 C25.580534,78.4262295 27.0967742,79.952649 27.0967742,81.8360656" id="Fill-55"></path>
                <path d="M45.7258065,81.8360656 C45.7258065,83.7187476 44.2092395,85.2459016 42.3387097,85.2459016 C40.46745,85.2459016 38.9516129,83.7187476 38.9516129,81.8360656 C38.9516129,79.952649 40.46745,78.4262295 42.3387097,78.4262295 C44.2092395,78.4262295 45.7258065,79.952649 45.7258065,81.8360656" id="Fill-57"></path>
                <path d="M66.0483871,81.8360656 C66.0483871,83.7187476 64.5318202,85.2459016 62.6598307,85.2459016 C60.7893008,85.2459016 59.2741935,83.7187476 59.2741935,81.8360656 C59.2741935,79.952649 60.7893008,78.4262295 62.6598307,78.4262295 C64.5318202,78.4262295 66.0483871,79.952649 66.0483871,81.8360656" id="Fill-59"></path>
                <path d="M84.6774194,81.8360656 C84.6774194,83.7187476 83.1619088,85.2459016 81.2895929,85.2459016 C79.419466,85.2459016 77.9032258,83.7187476 77.9032258,81.8360656 C77.9032258,79.952649 79.419466,78.4262295 81.2895929,78.4262295 C83.1619088,78.4262295 84.6774194,79.952649 84.6774194,81.8360656" id="Fill-61"></path>
                <path d="M6.77419355,100.590164 C6.77419355,102.47358 5.25795333,104 3.38563745,104 C1.51624022,104 0,102.47358 0,100.590164 C0,98.7067474 1.51624022,97.1803279 3.38563745,97.1803279 C5.25795333,97.1803279 6.77419355,98.7067474 6.77419355,100.590164" id="Fill-66"></path>
                <path d="M27.0967742,100.590164 C27.0967742,102.47358 25.580534,104 23.7089478,104 C21.8388209,104 20.3225806,102.47358 20.3225806,100.590164 C20.3225806,98.7067474 21.8388209,97.1803279 23.7089478,97.1803279 C25.580534,97.1803279 27.0967742,98.7067474 27.0967742,100.590164" id="Fill-68"></path>
                <path d="M45.7258065,100.590164 C45.7258065,102.47358 44.2092395,104 42.3387097,104 C40.46745,104 38.9516129,102.47358 38.9516129,100.590164 C38.9516129,98.7067474 40.46745,97.1803279 42.3387097,97.1803279 C44.2092395,97.1803279 45.7258065,98.7067474 45.7258065,100.590164" id="Fill-70"></path>
                <path d="M66.0483871,100.590164 C66.0483871,102.47358 64.5318202,104 62.6598307,104 C60.7893008,104 59.2741935,102.47358 59.2741935,100.590164 C59.2741935,98.7067474 60.7893008,97.1803279 62.6598307,97.1803279 C64.5318202,97.1803279 66.0483871,98.7067474 66.0483871,100.590164" id="Fill-72"></path>
                <path d="M84.6774194,100.590164 C84.6774194,102.47358 83.1619088,104 81.2895929,104 C79.419466,104 77.9032258,102.47358 77.9032258,100.590164 C77.9032258,98.7067474 79.419466,97.1803279 81.2895929,97.1803279 C83.1619088,97.1803279 84.6774194,98.7067474 84.6774194,100.590164" id="Fill-74"></path>
                <path d="M105,3.40983607 C105,5.29325263 103.484489,6.81967213 101.612174,6.81967213 C99.7420467,6.81967213 98.2258065,5.29325263 98.2258065,3.40983607 C98.2258065,1.52641951 99.7420467,0 101.612174,0 C103.484489,0 105,1.52641951 105,3.40983607" id="Fill-9-Copy"></path>
                <path d="M105,22.1639344 C105,24.047351 103.484489,25.5737705 101.612174,25.5737705 C99.7420467,25.5737705 98.2258065,24.047351 98.2258065,22.1639344 C98.2258065,20.2812524 99.7420467,18.7540984 101.612174,18.7540984 C103.484489,18.7540984 105,20.2812524 105,22.1639344" id="Fill-22-Copy"></path>
                <path d="M105,43.4758689 C105,45.8289679 103.484489,47.7377049 101.612174,47.7377049 C99.7420467,47.7377049 98.2258065,45.8289679 98.2258065,43.4758689 C98.2258065,41.1218517 99.7420467,39.2131148 101.612174,39.2131148 C103.484489,39.2131148 105,41.1218517 105,43.4758689" id="Fill-35-Copy"></path>
                <path d="M105,62.2290491 C105,64.5830663 103.484489,66.4918033 101.612174,66.4918033 C99.7420467,66.4918033 98.2258065,64.5830663 98.2258065,62.2290491 C98.2258065,59.8759501 99.7420467,57.9672131 101.612174,57.9672131 C103.484489,57.9672131 105,59.8759501 105,62.2290491" id="Fill-48-Copy"></path>
                <path d="M105,81.8360656 C105,83.7187476 103.484489,85.2459016 101.612174,85.2459016 C99.7420467,85.2459016 98.2258065,83.7187476 98.2258065,81.8360656 C98.2258065,79.952649 99.7420467,78.4262295 101.612174,78.4262295 C103.484489,78.4262295 105,79.952649 105,81.8360656" id="Fill-61-Copy"></path>
                <path d="M105,100.590164 C105,102.47358 103.484489,104 101.612174,104 C99.7420467,104 98.2258065,102.47358 98.2258065,100.590164 C98.2258065,98.7067474 99.7420467,97.1803279 101.612174,97.1803279 C103.484489,97.1803279 105,98.7067474 105,100.590164" id="Fill-74-Copy"></path>
            </g>
        </g>
    </g>
</svg>