<?xml version="1.0" encoding="UTF-8"?>
<svg width="63px" height="63px" viewBox="0 0 63 63" version="1.1" xmlns="http://www.w3.org/2000/svg" xmlns:xlink="http://www.w3.org/1999/xlink">
    <title>Group</title>
    <defs>
        <filter id="filter-1">
            <feColorMatrix in="SourceGraphic" type="matrix" values="0 0 0 0 0.266667 0 0 0 0 0.843137 0 0 0 0 0.713725 0 0 0 1.000000 0"></feColorMatrix>
        </filter>
    </defs>
    <g id="Page-1" stroke="none" stroke-width="1" fill="none" fill-rule="evenodd">
        <g id="Group">
            <path d="M0,31.5023913 C0,48.9011615 14.1025505,63 31.5047821,63 C48.9022317,63 63,48.9011615 63,31.5023913 C63,14.103621 48.9022317,0 31.5047821,0 C14.1025505,0 0,14.103621 0,31.5023913" id="Fill-4-Copy-8" fill="#EDFFFB"></path>
            <g filter="url(#filter-1)" id="Group-2">
                <g transform="translate(10.000000, 11.000000)">
                    <path d="M41.7605729,29 C41.4169488,29 41.1383497,29.2610081 41.1383497,29.5833199 L41.1383497,34.4464661 C41.1383497,35.7627283 39.9968133,36.8334642 38.5935157,36.8334642 L30.004133,36.8334642 C29.660509,36.8334642 29.3823529,37.0944723 29.3823529,37.4166801 C29.3823529,37.7389919 29.660509,38 30.004133,38 L38.5939588,38 C40.6826214,38 42.3823529,36.406105 42.3823529,34.4464661 L42.3823529,29.5833199 C42.3823529,29.2610081 42.1040861,29 41.7605729,29 Z" id="Fill-1" fill="#000000"></path>
                    <path d="M38.9542878,3.51760945 L37.1593813,3.51760945 L37.1593813,2.74027215 C37.1593813,1.74016203 36.3507702,0.926375 35.3564829,0.926375 C34.3617576,0.926375 33.553037,1.74016203 33.553037,2.74027215 L33.553037,3.51760945 L31.6849986,3.51760945 L31.6849986,2.74027215 C31.6849986,1.74016203 30.8759496,0.926375 29.8816622,0.926375 C28.8873749,0.926375 28.0782164,1.74016203 28.0782164,2.74027215 L28.0782164,3.51760945 L26.2106159,3.51760945 L26.2106159,2.74027215 C26.2106159,1.74016203 25.4015668,0.926375 24.4072795,0.926375 C23.4125543,0.926375 22.6038337,1.74016203 22.6038337,2.74027215 L22.6038337,3.51760945 L20.7359047,3.51760945 L20.7359047,2.74027215 C20.7359047,1.74016203 19.9271841,0.926375 18.9324589,0.926375 C17.9381715,0.926375 17.1294509,1.74016203 17.1294509,2.74027215 L17.1294509,3.51760945 L15.261522,3.51760945 L15.261522,2.74027215 C15.261522,1.74016203 14.4523635,0.926375 13.4580761,0.926375 C12.4637888,0.926375 11.6546303,1.74016203 11.6546303,2.74027215 L11.6546303,3.51760945 L9.78670136,3.51760945 L9.78670136,2.74027215 C9.78670136,1.74016203 8.97798076,0.926375 7.98325551,0.926375 C6.98896817,0.926375 6.18035704,1.74016203 6.18035704,2.74027215 L6.18035704,3.51760945 L4.40296716,3.51760945 C2.33830466,3.51760945 0.658460478,5.20718108 0.658460478,7.28404486 L0.658460478,35.1602699 C0.658460478,37.2371337 2.33830466,38.926375 4.40296716,38.926375 L12.81018,38.926375 C13.1497836,38.926375 13.4246851,38.6497535 13.4246851,38.3081611 C13.4246851,37.9666789 13.1497836,37.6900574 12.81018,37.6900574 L4.40296716,37.6900574 C3.01608851,37.6900574 1.88790848,36.5552705 1.88790848,35.1602699 L1.88790848,10.7085576 L41.4689086,10.7085576 L41.4689086,27.3714802 C41.4689086,27.712632 41.744248,27.9895839 42.0838516,27.9895839 C42.4233456,27.9895839 42.6983566,27.712632 42.6983566,27.3714802 L42.6983566,7.28404486 C42.6983566,5.20718108 41.0185124,3.51760945 38.9542878,3.51760945 Z M34.4087996,2.72190867 C34.4087996,2.3866898 34.6743436,2.113875 35.0007415,2.113875 C35.3270264,2.113875 35.5930221,2.3866898 35.5930221,2.72190867 L35.5930221,5.66209133 C35.5930221,5.9973102 35.3270264,6.270125 35.0007415,6.270125 C34.6743436,6.270125 34.4087996,5.9973102 34.4087996,5.66209133 L34.4087996,2.72190867 Z M29.0797987,2.72190867 C29.0797987,2.3866898 29.3453564,2.113875 29.6719099,2.113875 C29.9983505,2.113875 30.2640211,2.3866898 30.2640211,2.72190867 L30.2640211,5.66209133 C30.2640211,5.9973102 29.9983505,6.270125 29.6719099,6.270125 C29.3453564,6.270125 29.0797987,5.9973102 29.0797987,5.66209133 L29.0797987,2.72190867 Z M23.7507978,2.72190867 C23.7507978,2.3866898 24.0163555,2.113875 24.342909,2.113875 C24.6693496,2.113875 24.9350202,2.3866898 24.9350202,2.72190867 L24.9350202,5.66209133 C24.9350202,5.9973102 24.6693496,6.270125 24.342909,6.270125 C24.0163555,6.270125 23.7507978,5.9973102 23.7507978,5.66209133 L23.7507978,2.72190867 Z M17.8296857,2.72190867 C17.8296857,2.3866898 18.0952434,2.113875 18.4217969,2.113875 C18.7483504,2.113875 19.0139081,2.3866898 19.0139081,2.72190867 L19.0139081,5.66209133 C19.0139081,5.9973102 18.7483504,6.270125 18.4217969,6.270125 C18.0952434,6.270125 17.8296857,5.9973102 17.8296857,5.66209133 L17.8296857,2.72190867 Z M12.5006847,2.72190867 C12.5006847,2.3866898 12.7662424,2.113875 13.092796,2.113875 C13.4193495,2.113875 13.6849072,2.3866898 13.6849072,2.72190867 L13.6849072,5.66209133 C13.6849072,5.9973102 13.4193495,6.270125 13.092796,6.270125 C12.7662424,6.270125 12.5006847,5.9973102 12.5006847,5.66209133 L12.5006847,2.72190867 Z M7.17168382,2.72190867 C7.17168382,2.3866898 7.4377048,2.113875 7.76356921,2.113875 C8.08999818,2.113875 8.35590625,2.3866898 8.35590625,2.72190867 L8.35590625,5.66209133 C8.35590625,5.9973102 8.08999818,6.270125 7.76356921,6.270125 C7.4377048,6.270125 7.17168382,5.9973102 7.17168382,5.66209133 L7.17168382,2.72190867 Z M41.5141342,9.832625 L1.8426829,9.832625 L1.8426829,7.62958023 C1.8426829,6.22511286 2.97343168,5.082625 4.36346812,5.082625 L6.14490494,5.082625 L6.14490494,5.8652375 C6.14490494,6.87213462 6.9553572,7.6914442 7.95234734,7.6914442 C8.94889856,7.6914442 9.75946055,6.87213462 9.75946055,5.8652375 L9.75946055,5.082625 L11.6316426,5.082625 L11.6316426,5.8652375 C11.6316426,6.87213462 12.4426435,7.6914442 13.4391947,7.6914442 C14.4357459,7.6914442 15.2467468,6.87213462 15.2467468,5.8652375 L15.2467468,5.082625 L17.1189288,5.082625 L17.1189288,5.8652375 C17.1189288,6.87213462 17.9294908,7.6914442 18.926042,7.6914442 C19.9230322,7.6914442 20.7335942,6.87213462 20.7335942,5.8652375 L20.7335942,5.082625 L22.6057762,5.082625 L22.6057762,5.8652375 C22.6057762,6.87213462 23.4167771,7.6914442 24.4133283,7.6914442 C25.4098795,7.6914442 26.2207707,6.87213462 26.2207707,5.8652375 L26.2207707,5.082625 L28.0930624,5.082625 L28.0930624,5.8652375 C28.0930624,6.87213462 28.9036244,7.6914442 29.9001756,7.6914442 C30.8971658,7.6914442 31.707618,6.87213462 31.707618,5.8652375 L31.707618,5.082625 L33.5799098,5.082625 L33.5799098,5.8652375 C33.5799098,6.87213462 34.3908009,7.6914442 35.3874619,7.6914442 C36.3840131,7.6914442 37.1949043,6.87213462 37.1949043,5.8652375 L37.1949043,5.082625 L38.9934587,5.082625 C40.3834951,5.082625 41.5141342,6.22511286 41.5141342,7.62958023 L41.5141342,9.832625 L41.5141342,9.832625 Z" id="Fill-2" fill="#000000"></path>
                    <path d="M20.7179715,18.9291429 C19.9625944,18.9291429 19.3482574,19.4781022 19.3482574,20.1533772 L19.3482574,21.7049085 C19.3482574,22.3797593 19.9625944,22.9291429 20.7179715,22.9291429 L23.0467344,22.9291429 C23.8021115,22.9291429 24.4164484,22.3801836 24.4164484,21.7049085 L24.4164484,20.1533772 C24.4164484,19.4781022 23.8021115,18.9291429 23.0467344,18.9291429 L20.7179715,18.9291429 Z M23.1494007,20.1076066 L23.1494007,21.7507914 C23.1494007,21.7701111 23.1312732,21.7862857 23.1092702,21.7862857 L20.6549356,21.7862857 C20.6329326,21.7862857 20.6153052,21.7705604 20.6153052,21.7507914 L20.6153052,20.1076066 C20.6153052,20.0882869 20.6329326,20.072 20.6549356,20.072 L23.1092702,20.072 C23.1312732,20.072 23.1494007,20.0882869 23.1494007,20.1076066 Z" id="Fill-3" fill="#000000"></path>
                    <path d="M14.895438,18.9291429 C14.1406893,18.9291429 13.5262625,19.4781022 13.5262625,20.1533772 L13.5262625,21.7049085 C13.5262625,22.3797593 14.1406893,22.9291429 14.895438,22.9291429 L17.224685,22.9291429 C17.9799081,22.9291429 18.5943349,22.3801836 18.5943349,21.7049085 L18.5943349,20.1533772 C18.5943349,19.4781022 17.9799081,18.9291429 17.224685,18.9291429 L14.895438,18.9291429 Z M17.3273168,20.1076066 L17.3273168,21.7507914 C17.3273168,21.7701111 17.3096898,21.7862857 17.2876873,21.7862857 L14.8327851,21.7862857 C14.8114076,21.7862857 14.7932806,21.7705604 14.7932806,21.7507914 L14.7932806,20.1076066 C14.7932806,20.0882869 14.8114076,20.072 14.8327851,20.072 L17.2876873,20.072 C17.3096898,20.072 17.3273168,20.0882869 17.3273168,20.1076066 Z" id="Fill-4" fill="#000000"></path>
                    <path d="M12.1387131,20.1533772 C12.1387131,19.4781022 11.5242863,18.9291429 10.7690632,18.9291429 L8.43981614,18.9291429 C7.68459305,18.9291429 7.07064069,19.4781022 7.07064069,20.1533772 L7.07064069,21.7049085 C7.07064069,22.3797593 7.68459305,22.9291429 8.43981614,22.9291429 L10.7690632,22.9291429 C11.5242863,22.9291429 12.1387131,22.3801836 12.1387131,21.7049085 L12.1387131,20.1533772 Z M10.871695,21.7507914 C10.871695,21.7701111 10.8541921,21.7862857 10.8321886,21.7862857 L8.3771652,21.7862857 C8.35566171,21.7862857 8.33765879,21.7705604 8.33765879,21.7507914 L8.33765879,20.1076066 C8.33765879,20.0882869 8.35516163,20.072 8.3771652,20.072 L10.8321886,20.072 C10.8541921,20.072 10.871695,20.0882869 10.871695,20.1076066 L10.871695,21.7507914 Z" id="Fill-5" fill="#000000"></path>
                    <path d="M26.5400209,18.9291429 C25.7847978,18.9291429 25.170371,19.4781022 25.170371,20.1533772 L25.170371,21.7049085 C25.170371,22.3797593 25.7847978,22.9291429 26.5400209,22.9291429 L28.8692679,22.9291429 C29.6240166,22.9291429 30.2384434,22.3801836 30.2384434,21.7049085 L30.2384434,20.1533772 C30.2384434,19.4781022 29.6240166,18.9291429 28.8692679,18.9291429 L26.5400209,18.9291429 Z M28.9714253,20.1076066 L28.9714253,21.7507914 C28.9714253,21.7701111 28.9532982,21.7862857 28.9319208,21.7862857 L26.4770186,21.7862857 C26.4550161,21.7862857 26.4373891,21.7705604 26.4373891,21.7507914 L26.4373891,20.1076066 C26.4373891,20.0882869 26.4550161,20.072 26.4770186,20.072 L28.9319208,20.072 C28.9532982,20.072 28.9714253,20.0882869 28.9714253,20.1076066 Z" id="Fill-6" fill="#000000"></path>
                    <path d="M36.6940652,20.1533772 C36.6940652,19.4781022 36.0801128,18.9291429 35.3248897,18.9291429 L32.9956427,18.9291429 C32.2404196,18.9291429 31.6259928,19.4781022 31.6259928,20.1533772 L31.6259928,21.7049085 C31.6259928,22.3797593 32.2404196,22.9291429 32.9956427,22.9291429 L35.3248897,22.9291429 C36.0801128,22.9291429 36.6940652,22.3801836 36.6940652,21.7049085 L36.6940652,20.1533772 Z M35.4270471,21.7507914 C35.4270471,21.7701111 35.4095443,21.7862857 35.3875407,21.7862857 L32.9325173,21.7862857 C32.9105137,21.7862857 32.8930109,21.7705604 32.8930109,21.7507914 L32.8930109,20.1076066 C32.8930109,20.0882869 32.9105137,20.072 32.9325173,20.072 L35.3875407,20.072 C35.4090442,20.072 35.4270471,20.0882869 35.4270471,20.1076066 L35.4270471,21.7507914 Z" id="Fill-7" fill="#000000"></path>
                    <path d="M12.1387131,26.1536716 C12.1387131,25.4784681 11.5242863,24.9291429 10.7690632,24.9291429 L8.43981614,24.9291429 C7.68459305,24.9291429 7.07064069,25.4784681 7.07064069,26.1536716 L7.07064069,27.7050383 C7.07064069,28.3798176 7.68459305,28.9291429 8.43981614,28.9291429 L10.7690632,28.9291429 C11.5242863,28.9291429 12.1387131,28.3798176 12.1387131,27.7050383 L12.1387131,26.1536716 Z M10.871695,27.7507891 C10.871695,27.77011 10.8541921,27.7862857 10.8321886,27.7862857 L8.3771652,27.7862857 C8.35566171,27.7862857 8.33765879,27.77011 8.33765879,27.7507891 L8.33765879,26.1074966 C8.33765879,26.0881757 8.35516163,26.072 8.3771652,26.072 L10.8321886,26.072 C10.8541921,26.072 10.871695,26.0877264 10.871695,26.1074966 L10.871695,27.7507891 Z" id="Fill-8" fill="#000000"></path>
                    <path d="M36.6940652,26.1536716 C36.6940652,25.4784681 36.0801128,24.9291429 35.3248897,24.9291429 L32.9956427,24.9291429 C32.2404196,24.9291429 31.6259928,25.4784681 31.6259928,26.1536716 L31.6259928,27.7050383 C31.6259928,28.3798176 32.2404196,28.9291429 32.9956427,28.9291429 L35.3248897,28.9291429 C36.0801128,28.9291429 36.6940652,28.3798176 36.6940652,27.7050383 L36.6940652,26.1536716 Z M35.4270471,27.7507891 C35.4270471,27.77011 35.4095443,27.7862857 35.3875407,27.7862857 L32.9325173,27.7862857 C32.9105137,27.7862857 32.8930109,27.77011 32.8930109,27.7507891 L32.8930109,26.1074966 C32.8930109,26.0881757 32.9105137,26.072 32.9325173,26.072 L35.3875407,26.072 C35.4090442,26.072 35.4270471,26.0877264 35.4270471,26.1074966 L35.4270471,27.7507891 Z" id="Fill-9" fill="#000000"></path>
                    <path d="M10.7690632,29.9291429 L8.43981614,29.9291429 C7.68459305,29.9291429 7.07064069,30.4784681 7.07064069,31.1536716 L7.07064069,32.7050383 C7.07064069,33.3799236 7.68459305,33.9291429 8.43981614,33.9291429 L10.7690632,33.9291429 C11.5242863,33.9291429 12.1387131,33.3799236 12.1387131,32.7050383 L12.1387131,31.1536716 C12.1387131,30.4784681 11.5242863,29.9291429 10.7690632,29.9291429 Z M10.871695,32.7506791 C10.871695,32.7699988 10.8541921,32.7862857 10.8321886,32.7862857 L8.3771652,32.7862857 C8.35566171,32.7862857 8.33765879,32.7699988 8.33765879,32.7506791 L8.33765879,31.1074943 C8.33765879,31.0878377 8.35516163,31.072 8.3771652,31.072 L10.8321886,31.072 C10.8541921,31.072 10.871695,31.0878377 10.871695,31.1074943 L10.871695,32.7506791 Z" id="Fill-10" fill="#000000"></path>
                    <path d="M35.3248897,29.9291429 L32.9956427,29.9291429 C32.2404196,29.9291429 31.6259928,30.4784681 31.6259928,31.1536716 L31.6259928,32.7050383 C31.6259928,33.3799236 32.2404196,33.9291429 32.9956427,33.9291429 L35.3248897,33.9291429 C36.0801128,33.9291429 36.6940652,33.3799236 36.6940652,32.7050383 L36.6940652,31.1536716 C36.6940652,30.4784681 36.0801128,29.9291429 35.3248897,29.9291429 Z M35.4270471,32.7506791 C35.4270471,32.7699988 35.4095443,32.7862857 35.3875407,32.7862857 L32.9325173,32.7862857 C32.9105137,32.7862857 32.8930109,32.7699988 32.8930109,32.7506791 L32.8930109,31.1074943 C32.8930109,31.0878377 32.9105137,31.072 32.9325173,31.072 L35.3875407,31.072 C35.4090442,31.072 35.4270471,31.0878377 35.4270471,31.1074943 L35.4270471,32.7506791 Z" id="Fill-11" fill="#000000"></path>
                    <path d="M21.8821882,24 C20.4450302,24 19.0237967,24.3659433 17.7727905,25.0584021 C17.4746181,25.2231425 17.3669905,25.5985309 17.5317266,25.896711 C17.6964628,26.1944518 18.0714022,26.3025215 18.3700139,26.1373418 C19.4386023,25.545814 20.6535861,25.2330269 21.8821882,25.2330269 C25.8890102,25.2330269 29.1490284,28.4931294 29.1490284,32.5000549 C29.1490284,36.5069805 25.8890102,39.7666436 21.8821882,39.7666436 C17.8753662,39.7666436 14.6157873,36.5069805 14.6157873,32.5000549 C14.6157873,30.7054829 15.2756104,28.9821887 16.4737912,27.647462 C16.701127,27.3939815 16.6801506,27.0039861 16.4270061,26.7766443 C16.1735321,26.5487535 15.7835468,26.5702795 15.5561011,26.8233208 C14.1546359,28.3849498 13.3823529,30.4009329 13.3823529,32.5000549 C13.3823529,37.1870288 17.1953354,41 21.8821882,41 C26.569041,41 30.3823529,37.1870288 30.3823529,32.5000549 C30.3820235,27.813081 26.569041,24 21.8821882,24 Z" id="Fill-12" fill="#000000"></path>
                    <path d="M21.4233089,38.9256 C24.6835437,38.9256 27.3358141,36.2341051 27.3358141,32.9256546 C27.3358141,29.6172041 24.6835437,26.9256 21.4233089,26.9256 C18.1630742,26.9256 15.5108038,29.6172041 15.5108038,32.9256546 C15.5108038,36.2341051 18.1630742,38.9256 21.4233089,38.9256 Z M17.6466407,29.972674 L17.7033999,30.0301597 C17.8232491,30.1517769 17.9796642,30.2123639 18.1366252,30.2123639 C18.293477,30.2123639 18.450438,30.1517769 18.570178,30.0301597 C18.8094397,29.7874793 18.8094397,29.3937189 18.570178,29.1510384 L18.5130913,29.0929989 C19.1662585,28.5811658 19.9529188,28.2376916 20.810419,28.1256 L20.810419,28.2091149 C20.810419,28.5526999 21.0845003,28.8308243 21.4230906,28.8308243 C21.761681,28.8308243 22.0361989,28.5526999 22.0361989,28.2091149 L22.0361989,28.1256 C22.8936991,28.2376916 23.6803594,28.5811658 24.3330899,29.0929989 L24.2764399,29.1510384 C24.0371782,29.3937189 24.0371782,29.7874793 24.2764399,30.0301597 C24.3961799,30.1517769 24.5531409,30.2123639 24.7095561,30.2123639 C24.866517,30.2123639 25.0233688,30.1517769 25.143218,30.0301597 L25.1999772,29.972674 C25.7043698,30.6350333 26.042851,31.433298 26.153313,32.3038906 L26.0710122,32.3038906 C25.7324219,32.3038906 25.4583406,32.582015 25.4583406,32.9256 C25.4583406,33.269185 25.7324219,33.5473094 26.0710122,33.5473094 L26.153313,33.5473094 C26.042851,34.417459 25.7043698,35.2157237 25.1999772,35.878526 L25.143218,35.8205972 C24.9036288,35.577806 24.5155925,35.577806 24.2764399,35.8205972 C24.0371782,36.0637207 24.0371782,36.4574811 24.2764399,36.7001616 L24.3330899,36.7582011 C23.6803594,37.2695911 22.8936991,37.6130654 22.0361989,37.7256 L22.0361989,37.6420851 C22.0361989,37.2985001 21.761681,37.0199327 21.4230906,37.0199327 C21.0845003,37.0199327 20.810419,37.2985001 20.810419,37.6420851 L20.810419,37.7256 C19.9529188,37.6130654 19.1662585,37.2695911 18.513528,36.7582011 L18.570178,36.7001616 C18.8094397,36.4574811 18.8094397,36.0637207 18.570178,35.8205972 C18.3310254,35.577806 17.9425525,35.577806 17.7033999,35.8205972 L17.6466407,35.878526 C17.1422481,35.2157237 16.8037669,34.417459 16.6933048,33.5473094 L16.7756056,33.5473094 C17.1140868,33.5473094 17.3882773,33.269185 17.3882773,32.9256 C17.3882773,32.582015 17.1140868,32.3038906 16.7756056,32.3038906 L16.6933048,32.3038906 C16.8037669,31.433298 17.1422481,30.6350333 17.6466407,29.972674 Z" id="Fill-13" fill="#000000"></path>
                    <path d="M22.1327102,34.2684878 C22.3875522,34.2684878 22.6289293,34.1998361 22.8450599,34.0781139 L23.3985045,34.7330002 C23.5072134,34.8615172 23.6494853,34.9256 23.7914602,34.9256 C23.9337321,34.9256 24.076103,34.8615172 24.1848118,34.7330002 C24.4017344,34.4762004 24.4017344,34.059838 24.1848118,33.8030383 L23.6313671,33.1476834 C23.7342346,32.8924066 23.7922522,32.6067872 23.7922522,32.3052349 C23.7922522,31.4531798 23.3311803,30.7268301 22.6888281,30.455972 L22.6888281,29.5832979 C22.6888281,29.2198888 22.4398275,28.9256 22.1327102,28.9256 C21.825593,28.9256 21.5769884,29.2198888 21.5769884,29.5832979 L21.5769884,30.455972 C20.9349332,30.7268301 20.4735643,31.4531798 20.4735643,32.3052349 C20.4735643,33.3874959 21.2180909,34.2684878 22.1327102,34.2684878 Z M22.1336239,31.9256 C22.4390108,31.9256 22.687244,32.1947264 22.687244,32.525817 C22.687244,32.8564736 22.4390108,33.1256 22.1336239,33.1256 C21.8286374,33.1256 21.5804041,32.8564736 21.5804041,32.525817 C21.5804041,32.1947264 21.8286374,31.9256 22.1336239,31.9256 Z" id="Fill-14" fill="#000000"></path>
                    <path d="M38.3823529,15.5269215 L38.3823529,13.4730785 C38.3823529,12.6607069 37.6741205,12 36.8038554,12 L34.5825109,12 C34.2410535,12 33.964211,12.2581176 33.964211,12.5767571 C33.964211,12.8954994 34.2410535,13.1536169 34.5825109,13.1536169 L36.8038554,13.1536169 C36.9925266,13.1536169 37.1460834,13.2968557 37.1460834,13.4730785 L37.1460834,15.5269215 C37.1460834,15.7031443 36.9925266,15.8464858 36.8038554,15.8464858 L5.96085046,15.8464858 C5.77217928,15.8464858 5.61862251,15.7031443 5.61862251,15.5269215 L5.61862251,13.4730785 C5.61862251,13.2968557 5.77217928,13.1536169 5.96085046,13.1536169 L31.9483794,13.1536169 C32.2898369,13.1536169 32.5666793,12.8954994 32.5666793,12.5767571 C32.5666793,12.2581176 32.2898369,12 31.9483794,12 L5.96085046,12 C5.09058537,12 4.38235294,12.6607069 4.38235294,13.4730785 L4.38235294,15.5269215 C4.38235294,16.3393958 5.09058537,17 5.96085046,17 L36.8038554,17 C37.6741205,17 38.3823529,16.3393958 38.3823529,15.5269215 Z" id="Fill-15" fill="#000000"></path>
                </g>
            </g>
        </g>
    </g>
</svg>